<svg width="144" height="72" viewBox="0 0 144 72" fill="none" xmlns="http://www.w3.org/2000/svg">
<path d="M48.5176 29.9883C48.5176 32.0586 48.1172 34.0117 47.3164 35.8477C46.5352 37.6641 45.4609 39.2559 44.0938 40.623C42.7461 41.9707 41.1641 43.0352 39.3477 43.8164C37.5312 44.5977 35.5879 44.9883 33.5176 44.9883H9.40625V39.0703H33.5176C34.7676 39.0703 35.9395 38.8359 37.0332 38.3672C38.127 37.8789 39.0742 37.2246 39.875 36.4043C40.6953 35.584 41.3398 34.627 41.8086 33.5332C42.2773 32.4199 42.5117 31.2383 42.5117 29.9883C42.5117 28.7383 42.2773 27.5664 41.8086 26.4727C41.3398 25.3789 40.6953 24.4316 39.875 23.6309C39.0742 22.8105 38.127 22.166 37.0332 21.6973C35.9395 21.2285 34.7676 20.9941 33.5176 20.9941H6.03711V57H0.03125V14.9883H33.5176C35.5879 14.9883 37.5312 15.3887 39.3477 16.1895C41.1641 16.9707 42.7461 18.0449 44.0938 19.4121C45.4609 20.7598 46.5352 22.3418 47.3164 24.1582C48.1172 25.9746 48.5176 27.918 48.5176 29.9883ZM97.5934 44.9883C97.5934 46.668 97.2809 48.2402 96.6559 49.7051C96.0309 51.1504 95.1715 52.4199 94.0777 53.5137C93.0035 54.5879 91.734 55.4375 90.2691 56.0625C88.8238 56.6875 87.2711 57 85.6109 57H49.107V50.9941H85.6109C86.4508 50.9941 87.232 50.8379 87.9547 50.5254C88.6773 50.2129 89.3023 49.7832 89.8297 49.2363C90.3766 48.6895 90.8063 48.0547 91.1188 47.332C91.4313 46.5898 91.5875 45.8086 91.5875 44.9883C91.5875 44.168 91.4313 43.3965 91.1188 42.6738C90.8063 41.9512 90.3766 41.3164 89.8297 40.7695C89.3023 40.2227 88.6773 39.793 87.9547 39.4805C87.232 39.168 86.4508 39.0117 85.6109 39.0117H61.1188C59.4781 39.0117 57.9254 38.6992 56.4605 38.0742C54.9957 37.4492 53.7164 36.5996 52.6227 35.5254C51.5484 34.4316 50.6891 33.1523 50.0445 31.6875C49.4195 30.2227 49.107 28.6602 49.107 27C49.107 25.3594 49.4195 23.8066 50.0445 22.3418C50.6891 20.877 51.5484 19.6074 52.6227 18.5332C53.7164 17.4395 54.9957 16.5801 56.4605 15.9551C57.9254 15.3105 59.4781 14.9883 61.1188 14.9883H94.6051V20.9941H61.1188C60.2984 20.9941 59.5172 21.1504 58.775 21.4629C58.0523 21.7754 57.4176 22.2051 56.8707 22.752C56.3238 23.2988 55.8941 23.9434 55.5816 24.6855C55.2691 25.4082 55.1129 26.1797 55.1129 27C55.1129 27.8203 55.2691 28.6016 55.5816 29.3438C55.8941 30.0664 56.3238 30.7012 56.8707 31.248C57.4176 31.7949 58.0523 32.2246 58.775 32.5371C59.5172 32.8496 60.2984 33.0059 61.1188 33.0059H85.6109C87.2711 33.0059 88.8238 33.3281 90.2691 33.9727C91.734 34.5977 93.0035 35.457 94.0777 36.5508C95.1715 37.625 96.0309 38.8945 96.6559 40.3594C97.2809 41.8047 97.5934 43.3477 97.5934 44.9883Z" fill="#14487A"/>
<path d="M143.229 57H116.188C113.277 57 110.631 56.4531 108.248 55.3594C105.865 54.2656 103.824 52.7715 102.125 50.877C100.445 48.9824 99.1465 46.7559 98.2285 44.1973C97.3105 41.6387 96.8516 38.9043 96.8516 35.9941C96.8516 33.1035 97.3105 30.3887 98.2285 27.8496C99.1465 25.291 100.445 23.0645 102.125 21.1699C103.824 19.2559 105.865 17.752 108.248 16.6582C110.631 15.5449 113.277 14.9883 116.188 14.9883H143.229V20.9941H116.188C114.117 20.9941 112.252 21.3945 110.592 22.1953C108.951 22.9766 107.555 24.0508 106.402 25.418C105.27 26.7656 104.391 28.3477 103.766 30.1641C103.16 31.9805 102.857 33.9238 102.857 35.9941C102.857 38.0645 103.16 40.0176 103.766 41.8535C104.391 43.6699 105.27 45.2617 106.402 46.6289C107.555 47.9766 108.951 49.041 110.592 49.8223C112.252 50.6035 114.117 50.9941 116.188 50.9941H137.223V39.0117H111.793V33.0059H143.229V57Z" fill="#F3C903"/>
<path d="M68.5 21C69.2879 21 70.0681 20.8448 70.7961 20.5433C71.5241 20.2417 72.1855 19.7998 72.7426 19.2426C73.2998 18.6855 73.7417 18.0241 74.0433 17.2961C74.3448 16.5681 74.5 15.7879 74.5 15H68.5L68.5 21Z" fill="#14487A"/>
<path d="M116.5 21C117.288 21 118.068 20.8448 118.796 20.5433C119.524 20.2417 120.185 19.7998 120.743 19.2426C121.3 18.6855 121.742 18.0241 122.043 17.2961C122.345 16.5681 122.5 15.7879 122.5 15H116.5L116.5 21Z" fill="#F3C903"/>
<path d="M43.5 51C43.5 51.7879 43.6552 52.5681 43.9567 53.2961C44.2583 54.0241 44.7002 54.6855 45.2574 55.2426C45.8145 55.7998 46.4759 56.2417 47.2039 56.5433C47.9319 56.8448 48.7121 57 49.5 57V51L43.5 51Z" fill="#14487A"/>
<path d="M98.5 21C98.5 20.2121 98.3448 19.4319 98.0433 18.7039C97.7417 17.9759 97.2998 17.3145 96.7426 16.7574C96.1855 16.2002 95.5241 15.7583 94.7961 15.4567C94.0681 15.1552 93.2879 15 92.5 15V21L98.5 21Z" fill="#14487A"/>
<path d="M106.5 33C106.5 33.7879 106.655 34.5681 106.957 35.2961C107.258 36.0241 107.7 36.6855 108.257 37.2426C108.815 37.7998 109.476 38.2417 110.204 38.5433C110.932 38.8448 111.712 39 112.5 39V33L106.5 33Z" fill="#F3C903"/>
<path d="M6 62V57H0C0.596784 59.6855 2.84951 61.685 5.58689 61.9587L6 62Z" fill="#14487A"/>
</svg>
