<svg width="25" height="25" viewBox="0 0 25 25" fill="none" xmlns="http://www.w3.org/2000/svg">
<path d="M12.4997 2.08325C6.73926 2.08325 2.08301 6.7395 2.08301 12.4999C2.08301 18.2603 6.73926 22.9166 12.4997 22.9166C18.2601 22.9166 22.9163 18.2603 22.9163 12.4999C22.9163 6.7395 18.2601 2.08325 12.4997 2.08325ZM12.4997 20.8333C7.90592 20.8333 4.16634 17.0937 4.16634 12.4999C4.16634 7.90617 7.90592 4.16659 12.4997 4.16659C17.0934 4.16659 20.833 7.90617 20.833 12.4999C20.833 17.0937 17.0934 20.8333 12.4997 20.8333ZM16.2393 7.29158L12.4997 11.0312L8.76009 7.29158L7.29134 8.76033L11.0309 12.4999L7.29134 16.2395L8.76009 17.7083L12.4997 13.9687L16.2393 17.7083L17.708 16.2395L13.9684 12.4999L17.708 8.76033L16.2393 7.29158Z" fill="#D72525"/>
</svg>
