<svg width="68" height="66" viewBox="0 0 68 66" fill="none" xmlns="http://www.w3.org/2000/svg">
<path d="M33.925 16.6606C37.1947 16.6606 39.8444 19.1784 39.8444 22.2856C39.8444 25.3927 37.1947 27.9106 33.925 27.9106C30.6552 27.9106 28.0056 25.3927 28.0056 22.2856C28.0056 19.1784 30.6552 16.6606 33.925 16.6606ZM33.925 40.7677C42.2967 40.7677 51.1194 44.6784 51.1194 46.3927V49.3392H16.7306V46.3927C16.7306 44.6784 25.5533 40.7677 33.925 40.7677ZM33.925 11.5713C27.6956 11.5713 22.65 16.3659 22.65 22.2856C22.65 28.2052 27.6956 32.9999 33.925 32.9999C40.1544 32.9999 45.2 28.2052 45.2 22.2856C45.2 16.3659 40.1544 11.5713 33.925 11.5713ZM33.925 35.6784C26.3989 35.6784 11.375 39.2677 11.375 46.3927V54.4284H56.475V46.3927C56.475 39.2677 41.4511 35.6784 33.925 35.6784Z" fill="white"/>
<ellipse cx="34.7706" cy="21.7506" rx="9.30187" ry="8.03572" fill="white"/>
<path d="M55.0656 52.2857H14.4756V43.4464L35.6162 38.625L53.3743 45.0536L55.0656 52.2857Z" fill="white" stroke="white"/>
</svg>
