<svg width="41" height="45" viewBox="0 0 41 45" fill="none" xmlns="http://www.w3.org/2000/svg">
<rect x="5.55859" y="0.142578" width="34.6922" height="38.961" rx="4" fill="white"/>
<path d="M9.89551 21.2461H12.7865V17.9994H9.89551V21.2461ZM9.89551 27.7396H12.7865V24.4929H9.89551V27.7396ZM9.89551 14.7526H12.7865V11.5059H9.89551V14.7526ZM15.6775 21.2461H35.9147V17.9994H15.6775V21.2461ZM15.6775 27.7396H35.9147V24.4929H15.6775V27.7396ZM15.6775 11.5059V14.7526H35.9147V11.5059H15.6775ZM9.89551 21.2461H12.7865V17.9994H9.89551V21.2461ZM9.89551 27.7396H12.7865V24.4929H9.89551V27.7396ZM9.89551 14.7526H12.7865V11.5059H9.89551V14.7526ZM15.6775 21.2461H35.9147V17.9994H15.6775V21.2461ZM15.6775 27.7396H35.9147V24.4929H15.6775V27.7396ZM15.6775 11.5059V14.7526H35.9147V11.5059H15.6775Z" fill="#0A2471"/>
<path d="M2.08984 6.37598V34.9994C2.08984 39.4176 5.67157 42.9994 10.0898 42.9994H36.7821" stroke="white" stroke-width="3" stroke-linecap="round"/>
</svg>
