<svg width="50" height="50" viewBox="0 0 50 50" fill="none" xmlns="http://www.w3.org/2000/svg">
<path d="M24.9997 15.2489C27.4163 15.2489 29.3747 17.0537 29.3747 19.2808C29.3747 21.5079 27.4163 23.3127 24.9997 23.3127C22.583 23.3127 20.6247 21.5079 20.6247 19.2808C20.6247 17.0537 22.583 15.2489 24.9997 15.2489ZM24.9997 32.5284C31.1872 32.5284 37.708 35.3315 37.708 36.5602V38.6721H12.2913V36.5602C12.2913 35.3315 18.8122 32.5284 24.9997 32.5284ZM24.9997 11.6011C20.3955 11.6011 16.6663 15.0378 16.6663 19.2808C16.6663 23.5239 20.3955 26.9605 24.9997 26.9605C29.6038 26.9605 33.333 23.5239 33.333 19.2808C33.333 15.0378 29.6038 11.6011 24.9997 11.6011ZM24.9997 28.8805C19.4372 28.8805 8.33301 31.4532 8.33301 36.5602V42.32H41.6663V36.5602C41.6663 31.4532 30.5622 28.8805 24.9997 28.8805Z" fill="#F4F7FF"/>
<mask id="path-2-inside-1_116_2857" fill="white">
<path d="M50 24.5098C50 38.0462 38.8071 49.0196 25 49.0196C11.1929 49.0196 0 38.0462 0 24.5098C0 10.9734 11.1929 0 25 0C38.8071 0 50 10.9734 50 24.5098ZM2.76653 24.5098C2.76653 36.5482 12.7208 46.3073 25 46.3073C37.2792 46.3073 47.2335 36.5482 47.2335 24.5098C47.2335 12.4714 37.2792 2.71228 25 2.71228C12.7208 2.71228 2.76653 12.4714 2.76653 24.5098Z"/>
</mask>
<path d="M50 24.5098C50 38.0462 38.8071 49.0196 25 49.0196C11.1929 49.0196 0 38.0462 0 24.5098C0 10.9734 11.1929 0 25 0C38.8071 0 50 10.9734 50 24.5098ZM2.76653 24.5098C2.76653 36.5482 12.7208 46.3073 25 46.3073C37.2792 46.3073 47.2335 36.5482 47.2335 24.5098C47.2335 12.4714 37.2792 2.71228 25 2.71228C12.7208 2.71228 2.76653 12.4714 2.76653 24.5098Z" stroke="#F4F7FF" stroke-width="8" mask="url(#path-2-inside-1_116_2857)"/>
<path d="M10 35.0877V41.6925L15.5 44.5821L22 46.646L29 47.0588L36 44.5821L40 40.8669L39 35.0877L30 31.3726H19.5L10 35.0877Z" fill="#F4F7FF" stroke="#F4F7FF"/>
<ellipse cx="25.5" cy="19.6079" rx="5.5" ry="5.88235" fill="#F4F7FF"/>
<path d="M9.60061 41.8492C9.59447 42.4857 13.4787 45.9215 16.3998 46.3998C19.3209 46.8781 20.8626 47.9599 24.9998 47.9999C29.137 48.0398 29.87 47.2216 32.7998 46.7998C35.7296 46.378 40.793 42.7869 40.7992 42.1504L25.1999 41.9998L9.60061 41.8492Z" fill="#F4F7FF"/>
</svg>
