<svg width="75" height="75" viewBox="0 0 75 75" fill="none" xmlns="http://www.w3.org/2000/svg">
<path d="M37.5 22.8737C41.125 22.8737 44.0625 25.5808 44.0625 28.9215C44.0625 32.2621 41.125 34.9693 37.5 34.9693C33.875 34.9693 30.9375 32.2621 30.9375 28.9215C30.9375 25.5808 33.875 22.8737 37.5 22.8737ZM37.5 48.7928C46.7812 48.7928 56.5625 52.9974 56.5625 54.8406V58.0085H18.4375V54.8406C18.4375 52.9974 28.2187 48.7928 37.5 48.7928ZM37.5 17.4019C30.5937 17.4019 25 22.5569 25 28.9215C25 35.286 30.5937 40.4411 37.5 40.4411C44.4062 40.4411 50 35.286 50 28.9215C50 22.5569 44.4062 17.4019 37.5 17.4019ZM37.5 43.321C29.1562 43.321 12.5 47.18 12.5 54.8406V63.4803H62.5V54.8406C62.5 47.18 45.8437 43.321 37.5 43.321Z" fill="#F4F7FF"/>
<mask id="path-2-inside-1_445_1928" fill="white">
<path d="M75 36.7647C75 57.0693 58.2107 73.5294 37.5 73.5294C16.7893 73.5294 0 57.0693 0 36.7647C0 16.4601 16.7893 0 37.5 0C58.2107 0 75 16.4601 75 36.7647ZM4.1498 36.7647C4.1498 54.8224 19.0812 69.461 37.5 69.461C55.9188 69.461 70.8502 54.8224 70.8502 36.7647C70.8502 18.7071 55.9188 4.06843 37.5 4.06843C19.0812 4.06843 4.1498 18.7071 4.1498 36.7647Z"/>
</mask>
<path d="M75 36.7647C75 57.0693 58.2107 73.5294 37.5 73.5294C16.7893 73.5294 0 57.0693 0 36.7647C0 16.4601 16.7893 0 37.5 0C58.2107 0 75 16.4601 75 36.7647ZM4.1498 36.7647C4.1498 54.8224 19.0812 69.461 37.5 69.461C55.9188 69.461 70.8502 54.8224 70.8502 36.7647C70.8502 18.7071 55.9188 4.06843 37.5 4.06843C19.0812 4.06843 4.1498 18.7071 4.1498 36.7647Z" stroke="#F4F7FF" stroke-width="8" mask="url(#path-2-inside-1_445_1928)"/>
<path d="M15 52.6313V62.5385L23.25 66.8728L33 69.9688L43.5 70.588L54 66.8728L60 61.3001L58.5 52.6313L45 47.0586H29.25L15 52.6313Z" fill="#F4F7FF"/>
<ellipse cx="38.25" cy="29.4119" rx="8.25" ry="8.82353" fill="#F4F7FF"/>
<path d="M14.4014 62.774C14.3922 63.7287 20.2186 68.8825 24.6002 69.6C28.9818 70.3174 31.2945 71.9401 37.5002 72C43.706 72.06 44.8055 70.8327 49.2002 70.2C53.5949 69.5672 61.19 64.1806 61.1992 63.2259L37.8003 63L14.4014 62.774Z" fill="#F4F7FF"/>
</svg>
