<svg width="35" height="35" viewBox="0 0 35 35" fill="none" xmlns="http://www.w3.org/2000/svg">
<path d="M17.4997 8.60384C19.1913 8.60384 20.5622 9.97467 20.5622 11.6663C20.5622 13.358 19.1913 14.7288 17.4997 14.7288C15.808 14.7288 14.4372 13.358 14.4372 11.6663C14.4372 9.97467 15.808 8.60384 17.4997 8.60384ZM17.4997 21.7288C21.8309 21.7288 26.3955 23.858 26.3955 24.7913V26.3955H8.60384V24.7913C8.60384 23.858 13.1684 21.7288 17.4997 21.7288ZM17.4997 5.83301C14.2768 5.83301 11.6663 8.44342 11.6663 11.6663C11.6663 14.8893 14.2768 17.4997 17.4997 17.4997C20.7226 17.4997 23.333 14.8893 23.333 11.6663C23.333 8.44342 20.7226 5.83301 17.4997 5.83301ZM17.4997 18.958C13.6059 18.958 5.83301 20.9122 5.83301 24.7913V29.1663H29.1663V24.7913C29.1663 20.9122 21.3934 18.958 17.4997 18.958Z" fill="#2D3457"/>
<ellipse cx="17.9375" cy="11.375" rx="4.8125" ry="4.375" fill="#2D3457"/>
<path d="M28.4375 28H7.4375V23.1875L18.375 20.5625L27.5625 24.0625L28.4375 28Z" fill="#2D3457" stroke="#2D3457"/>
</svg>
