<svg width="25" height="25" viewBox="0 0 25 25" fill="none" xmlns="http://www.w3.org/2000/svg">
<path d="M12.4997 2.08325C6.74967 2.08325 2.08301 6.74992 2.08301 12.4999C2.08301 18.2499 6.74967 22.9166 12.4997 22.9166C18.2497 22.9166 22.9163 18.2499 22.9163 12.4999C22.9163 6.74992 18.2497 2.08325 12.4997 2.08325ZM12.4997 20.8333C7.90592 20.8333 4.16634 17.0937 4.16634 12.4999C4.16634 7.90617 7.90592 4.16659 12.4997 4.16659C17.0934 4.16659 20.833 7.90617 20.833 12.4999C20.833 17.0937 17.0934 20.8333 12.4997 20.8333ZM17.2809 7.89575L10.4163 14.7603L7.71842 12.0728L6.24967 13.5416L10.4163 17.7083L18.7497 9.37492L17.2809 7.89575Z" fill="#00B955"/>
</svg>
