<svg width="500" height="500" viewBox="0 0 500 500" fill="none" xmlns="http://www.w3.org/2000/svg">
<path d="M364.131 309.55H372.841V299.71H364.131V309.55Z" fill="white"/>
<path d="M377.001 314.8C376.871 314.8 376.771 302.54 376.771 287.42C376.771 272.3 376.871 260.04 377.001 260.04C377.131 260.04 377.231 272.3 377.231 287.42C377.231 302.54 377.131 314.8 377.001 314.8Z" fill="#E0E0E0"/>
<path d="M450.22 114.21L456.9 127.74L471.83 129.91L461.03 140.45L463.58 155.32L450.22 148.3L436.86 155.32L439.41 140.45L428.61 129.91L443.54 127.74L450.22 114.21Z" fill="#F0C901"/>
<path d="M52.5106 288.97L56.7206 297.5L66.1306 298.86L59.3206 305.5L60.9306 314.88L52.5106 310.45L44.0906 314.88L45.7006 305.5L38.8906 298.86L48.3006 297.5L52.5106 288.97Z" fill="#F0C901"/>
<path d="M57.7305 214.66L67.0805 233.6L87.9805 236.64L72.8605 251.38L76.4305 272.2L57.7305 262.37L39.0405 272.2L42.6105 251.38L27.4805 236.64L48.3805 233.6L57.7305 214.66Z" fill="#F0C901"/>
<path d="M312.051 43.0698L316.081 51.2298L325.091 52.5398L318.571 58.8998L320.111 67.8698L312.051 63.6298L303.991 67.8698L305.531 58.8998L299.011 52.5398L308.021 51.2298L312.051 43.0698Z" fill="#F0C901"/>
<path d="M404.22 130.41L406.86 135.75L412.76 136.61L408.49 140.77L409.5 146.64L404.22 143.87L398.95 146.64L399.96 140.77L395.69 136.61L401.59 135.75L404.22 130.41Z" fill="#F0C901"/>
<path d="M160.921 400.11L166.061 410.51L177.541 412.18L169.231 420.28L171.201 431.72L160.921 426.32L150.651 431.72L152.611 420.28L144.301 412.18L155.791 410.51L160.921 400.11Z" fill="#F0C901"/>
<path d="M364.13 349.92L368.65 359.07L378.75 360.54L371.44 367.66L373.17 377.72L364.13 372.97L355.1 377.72L356.83 367.66L349.52 360.54L359.62 359.07L364.13 349.92Z" fill="#F0C901"/>
<path d="M357.44 103.66L361 92.5998C357.607 85.7673 356.577 78.0023 358.07 70.5214C359.564 63.0405 363.497 56.2664 369.253 51.2603C375.009 46.2542 382.263 43.2989 389.879 42.8576C397.495 42.4162 405.042 44.5136 411.338 48.8212C417.634 53.1288 422.323 59.4033 424.67 66.6616C427.018 73.9198 426.892 81.7518 424.311 88.9306C421.73 96.1094 416.841 102.229 410.41 106.332C403.978 110.434 396.367 112.287 388.77 111.6C381.357 111.095 374.342 108.059 368.9 103L357.44 103.66Z" fill="white"/>
<path d="M357.44 103.66L358.2 103.6L360.41 103.44L368.9 102.86C373.108 106.752 378.291 109.434 383.9 110.62C385.631 111.005 387.39 111.256 389.16 111.37L391.96 111.48C392.9 111.48 393.87 111.37 394.84 111.32C403.612 110.524 411.741 106.381 417.54 99.75C420.808 96.0668 423.234 91.7159 424.65 87C426.1 81.9607 426.394 76.6588 425.51 71.49C425.29 70.1612 424.982 68.8484 424.59 67.56C424.412 66.9074 424.195 66.2662 423.94 65.64C423.69 65 423.47 64.36 423.2 63.73C422.086 61.1867 420.676 58.7835 419 56.57C418.164 55.4666 417.259 54.4178 416.29 53.43C415.819 52.9263 415.318 52.4521 414.79 52.01C414.28 51.56 413.79 51.07 413.25 50.66L411.61 49.44L410.79 48.84L409.91 48.32L408.18 47.32C407.59 46.99 406.97 46.74 406.37 46.44C401.774 44.265 396.748 43.1485 391.664 43.1727C386.579 43.1969 381.565 44.3613 376.99 46.58C369.062 50.3873 362.906 57.1023 359.8 65.33C359.63 65.79 359.47 66.25 359.31 66.7C359.129 67.144 358.985 67.6023 358.88 68.07C358.65 68.99 358.43 69.9 358.21 70.79C357.906 72.5339 357.699 74.2933 357.59 76.06C357.366 81.7752 358.569 87.4561 361.09 92.59L358.41 100.77L357.7 102.89C357.54 103.37 357.45 103.62 357.45 103.62C357.45 103.62 357.51 103.39 357.66 102.92L358.3 100.82L360.87 92.53V92.61C358.281 87.4666 357.03 81.7544 357.23 76C357.324 74.2135 357.521 72.4338 357.82 70.67C358.04 69.77 358.27 68.85 358.49 67.92C358.596 67.4472 358.736 66.9826 358.91 66.53C359.08 66.07 359.24 65.61 359.41 65.14C361.08 60.6541 363.663 56.5637 366.996 53.1279C370.329 49.6921 374.339 46.9857 378.772 45.1799C383.205 43.3742 387.964 42.5085 392.749 42.6376C397.534 42.7667 402.24 43.8878 406.57 45.93C407.18 46.22 407.81 46.48 408.41 46.82L410.17 47.87L411.05 48.4L411.89 49.01L413.55 50.24C414.1 50.67 414.6 51.16 415.12 51.61C415.653 52.0615 416.16 52.5422 416.64 53.05C417.622 54.058 418.541 55.1268 419.39 56.25C421.098 58.4761 422.538 60.8962 423.68 63.46C423.95 64.1 424.17 64.76 424.42 65.4C424.685 66.052 424.909 66.7199 425.09 67.4C425.485 68.7113 425.793 70.0477 426.01 71.4C426.913 76.6456 426.612 82.0278 425.13 87.14C423.709 91.9457 421.255 96.3826 417.94 100.14C412.053 106.834 403.818 111.008 394.94 111.8C393.94 111.8 392.94 111.94 392.02 111.94L389.19 111.82C387.402 111.695 385.627 111.434 383.88 111.04C378.25 109.807 373.064 107.062 368.88 103.1H368.96L360.39 103.55L358.21 103.65C357.68 103.66 357.44 103.66 357.44 103.66Z" fill="#263238"/>
<path d="M372.31 75.9998L377.98 71.0798L387.53 80.8898L408.95 63.0498L413.48 68.6998L386.04 91.0398L372.31 75.9998Z" fill="#00B955"/>
<path d="M298.11 349.49L106.35 392.23C105.24 392.484 104.091 392.516 102.969 392.323C101.846 392.131 100.773 391.718 99.8114 391.11C98.8493 390.501 98.0173 389.708 97.3631 388.776C96.7089 387.844 96.2456 386.792 95.9998 385.68L33.8098 106.43C33.5621 105.324 33.5351 104.179 33.7303 103.062C33.9256 101.945 34.3393 100.878 34.9477 99.9211C35.5562 98.9643 36.3474 98.1369 37.2761 97.4864C38.2048 96.8359 39.2527 96.375 40.3598 96.1301L232.12 53.3901C233.227 53.1423 234.372 53.1151 235.49 53.3103C236.607 53.5054 237.675 53.919 238.633 54.5274C239.591 55.1357 240.419 55.9269 241.07 56.8557C241.722 57.7845 242.184 58.8326 242.43 59.9401L304.66 339.19C304.908 340.297 304.935 341.441 304.739 342.558C304.544 343.675 304.13 344.742 303.522 345.699C302.913 346.656 302.122 347.483 301.194 348.134C300.265 348.784 299.217 349.245 298.11 349.49Z" fill="#8290B0"/>
<path d="M298.11 349.49L298.75 349.31C299.372 349.108 299.971 348.843 300.54 348.52C301.473 347.972 302.296 347.256 302.97 346.41C303.888 345.25 304.491 343.872 304.72 342.41C304.865 341.526 304.865 340.624 304.72 339.74C304.56 338.81 304.31 337.83 304.09 336.81C303.63 334.81 303.09 332.53 302.59 330.11C301.503 325.263 300.253 319.687 298.84 313.38C293.21 288.21 285.07 251.79 275.01 206.78C270.01 184.28 264.49 159.63 258.58 133.16C255.633 119.933 252.583 106.267 249.43 92.16C247.863 85.1067 246.27 77.9567 244.65 70.71C243.83 67.09 243.02 63.44 242.19 59.77C241.739 57.9407 240.687 56.3161 239.201 55.1572C237.716 53.9983 235.884 53.3724 234 53.38C233.061 53.4008 232.127 53.5351 231.22 53.78L228.42 54.4L222.79 55.66L211.43 58.19L188.31 63.35L140.67 74L40.4301 96.32C38.3112 96.7896 36.4547 98.0574 35.2461 99.86C34.0375 101.663 33.5698 103.862 33.9401 106C34.8501 110.25 35.8301 114.51 36.7601 118.75C38.6534 127.217 40.5301 135.633 42.3901 144L53.3901 193.41C60.6101 225.8 67.5701 257 74.2001 286.8C80.8301 316.6 87.1201 344.8 93.0201 371.31C93.7534 374.643 94.4834 377.923 95.2101 381.15C95.5801 382.77 95.9101 384.41 96.3001 386C96.7201 387.566 97.5809 388.979 98.7801 390.07C99.9716 391.145 101.44 391.866 103.02 392.15C103.804 392.278 104.6 392.301 105.39 392.22C106.17 392.12 106.96 391.93 107.74 391.75L117.05 389.68L152.38 381.82L259 358.13L288 351.71L295.54 350.05L298.11 349.49L295.55 350.09L288.01 351.79L259.01 358.28L152.41 382.11L117.12 390L107.81 392.08C107.03 392.25 106.25 392.45 105.43 392.56C104.61 392.644 103.783 392.617 102.97 392.48C101.316 392.193 99.7777 391.439 98.5376 390.307C97.2974 389.174 96.4066 387.711 95.9701 386.09C95.5701 384.48 95.2401 382.86 94.8701 381.24C94.1434 377.993 93.4101 374.713 92.6701 371.4C86.7701 344.93 80.4601 316.65 73.8201 286.89C67.1801 257.13 60.2201 225.89 52.9901 193.5L41.9901 144.1C40.1301 135.74 38.2534 127.317 36.3601 118.83C35.4201 114.59 34.4501 110.35 33.5301 106.06C33.1451 103.82 33.6379 101.517 34.906 99.631C36.1742 97.7446 38.1203 96.4191 40.3401 95.93L140.59 73.58L188.26 63L211.37 57.85L222.73 55.32L228.37 54L231.17 53.38C232.095 53.1403 233.045 53.0127 234 53C235.952 53.0045 237.847 53.6586 239.386 54.859C240.925 56.0595 242.02 57.738 242.5 59.63C243.32 63.31 244.14 66.95 244.95 70.58C246.583 77.8333 248.19 84.9733 249.77 92C252.897 106.1 255.94 119.767 258.9 133C264.79 159.47 270.27 184.12 275.28 206.63C285.28 251.63 293.38 288.08 298.98 313.26C300.37 319.55 301.61 325.15 302.69 329.99C303.22 332.42 303.69 334.65 304.17 336.7C304.39 337.7 304.64 338.7 304.79 339.63C304.94 340.524 304.94 341.436 304.79 342.33C304.562 343.819 303.948 345.222 303.01 346.4C302.327 347.245 301.497 347.96 300.56 348.51C299.984 348.834 299.374 349.092 298.74 349.28L298.11 349.49Z" fill="#263238"/>
<g opacity="0.3">
<path d="M116.07 382.34L290.79 342.4L285.27 308.16L275.36 288.97L108.22 354.62L116.07 382.34Z" fill="black"/>
</g>
<g opacity="0.3">
<path d="M189.021 63.6299L195.631 74.5399L196.911 80.3299L192.43 81.3299L189.021 63.6299Z" fill="black"/>
</g>
<path d="M43.7598 108.05L104.38 380.05L294.39 337.71L283.55 289.07L233.77 65.7002L43.7598 108.05Z" fill="white"/>
<path d="M43.76 108.05L233.76 65.54H233.92V65.71C250.78 141.3 271.81 235.63 294.57 337.71V337.92H294.37L104.37 380.25H104.19V380.06C68.5 219.44 44.12 109.68 43.75 108.06C44.12 109.72 68.66 219.45 104.56 380.06L104.33 379.92L294.33 337.55L294.17 337.8C271.44 235.74 250.43 141.41 233.6 65.8L233.8 65.93L43.76 108.05Z" fill="#263238"/>
<path d="M97.2655 75.6855L181.061 57.0164C182.7 56.6514 184.416 56.9522 185.833 57.8527C187.25 58.7533 188.251 60.1798 188.616 61.8184L193.457 83.5457L97.2847 104.972L92.4483 83.2645C92.2642 82.4504 92.243 81.6079 92.3857 80.7856C92.5285 79.9633 92.8325 79.1773 93.2802 78.4729C93.7279 77.7685 94.3105 77.1596 94.9945 76.6812C95.6784 76.2028 96.4502 75.8645 97.2655 75.6855Z" fill="#263238"/>
<path d="M149.07 53.1499L124.6 58.5999L132.13 78.9399L150.56 74.8299L149.07 53.1499Z" fill="#263238"/>
<path d="M181.061 57.0002C181.061 57.1102 162.351 61.3802 139.221 66.5402C116.091 71.7002 97.3005 75.8102 97.2705 75.7002C97.2405 75.5902 115.981 71.3202 139.131 66.1602C162.281 61.0002 181.001 56.9202 181.061 57.0002Z" fill="#455A64"/>
<path d="M98.4602 100C98.3502 100 97.3802 96.1001 96.3002 91.2401C95.2202 86.3801 94.4202 82.4101 94.5402 82.3801C94.6602 82.3501 95.6202 86.2801 96.7002 91.1501C97.7802 96.0201 98.5702 100 98.4602 100Z" fill="#455A64"/>
<path d="M188.87 77.6401C188.067 75.0095 187.399 72.3393 186.87 69.6401C186.208 67.0019 185.681 64.3318 185.29 61.6401C186.092 64.2543 186.759 66.9078 187.29 69.5901C187.953 72.2448 188.481 74.9316 188.87 77.6401Z" fill="#455A64"/>
<path d="M185.06 82.3898C185.06 82.4998 165.85 86.8798 142.11 92.1698C118.37 97.4598 99.1097 101.67 99.0597 101.55C99.0097 101.43 118.26 97.0598 142.06 91.7698C165.86 86.4798 185 82.2798 185.06 82.3898Z" fill="#455A64"/>
<path d="M134.45 161.51C134.45 161.63 121.5 164.61 105.45 168.19C89.4002 171.77 76.4502 174.56 76.3802 174.45C76.3102 174.34 89.3802 171.35 105.38 167.78C121.38 164.21 134.42 161.4 134.45 161.51Z" fill="#263238"/>
<path d="M231.16 150.62C231.16 150.74 197.29 158.39 155.46 167.71C113.63 177.03 79.6802 184.5 79.6602 184.39C79.6402 184.28 113.52 176.62 155.37 167.3C197.22 157.98 231.14 150.51 231.16 150.62Z" fill="#263238"/>
<path d="M233.25 160C233.25 160.11 199.37 167.76 157.54 177.09C115.71 186.42 81.7703 193.88 81.7403 193.76C81.7103 193.64 115.61 186 157.45 176.68C199.29 167.36 233.22 159.86 233.25 160Z" fill="#263238"/>
<path d="M235.33 169.32C235.33 169.43 201.46 177.08 159.63 186.4C117.8 195.72 83.8503 203.2 83.8203 203.08C83.7903 202.96 117.69 195.32 159.54 185.99C201.39 176.66 235.3 169.21 235.33 169.32Z" fill="#263238"/>
<path d="M237.41 178.67C237.41 178.78 203.54 186.43 161.71 195.75C119.88 205.07 85.9302 212.54 85.9102 212.43C85.8902 212.32 119.77 204.67 161.62 195.34C203.47 186.01 237.39 178.55 237.41 178.67Z" fill="#263238"/>
<path d="M239.5 188C239.5 188.12 205.62 195.77 163.79 205.09C121.96 214.41 88 221.89 88 221.78C88 221.67 121.87 214.02 163.71 204.69C205.55 195.36 239.47 187.9 239.5 188Z" fill="#263238"/>
<path d="M117.37 253.81C117.329 253.71 117.299 253.606 117.28 253.5L117.06 252.61C116.87 251.8 116.6 250.67 116.27 249.26C115.6 246.37 114.66 242.31 113.54 237.45L113.76 237.59L97.36 241.27C97.36 241.27 97.66 240.8 97.52 241.02V241.09V241.23L97.58 241.51L97.71 242.07L97.95 243.18C98.12 243.92 98.28 244.65 98.44 245.38C98.76 246.82 99.08 248.24 99.38 249.62C99.99 252.37 100.56 254.97 101.09 257.36L100.87 257.22L112.72 254.67L116.09 253.97L116.99 253.8L117.31 253.74C117.31 253.74 117.23 253.74 117.03 253.83L116.18 254.04L112.88 254.82L101 257.65H100.82V257.47L99.08 249.74C98.77 248.36 98.45 246.94 98.08 245.5C97.92 244.77 97.75 244.04 97.59 243.3C97.5 242.94 97.42 242.56 97.34 242.19L97.21 241.63L97.15 241.35V241.21V241.14V241.09C97.01 241.32 97.34 240.79 97.31 240.84L113.72 237.21H113.9V237.39L116.48 249.39C116.77 250.79 117 251.91 117.17 252.71C117.24 253.07 117.29 253.35 117.34 253.58C117.36 253.655 117.37 253.732 117.37 253.81Z" fill="#263238"/>
<path d="M239.271 213.38L124.856 238.871L126.983 248.417L241.398 222.926L239.271 213.38Z" fill="#E0E0E0"/>
<path d="M123.71 282.27C123.673 282.166 123.643 282.059 123.62 281.95C123.56 281.72 123.49 281.42 123.4 281.06C123.21 280.25 122.94 279.13 122.61 277.72C121.94 274.82 121 270.72 119.88 265.9L120.1 266.04L103.7 269.72C103.7 269.78 104 269.25 103.86 269.48V269.53V269.6V269.74L103.92 270.02L104.05 270.58C104.13 270.96 104.21 271.33 104.3 271.7L104.78 273.89C105.1 275.34 105.42 276.75 105.72 278.13C106.33 280.88 106.9 283.48 107.43 285.87L107.21 285.73L119.07 283.19L122.43 282.49L123.33 282.31C123.435 282.281 123.542 282.264 123.65 282.26L123.38 282.34L122.52 282.55L119.22 283.34L107.29 286.09H107.11V285.91L105.37 278.18C105.06 276.8 104.74 275.38 104.37 273.94C104.21 273.22 104.04 272.48 103.88 271.75C103.8 271.38 103.71 271.01 103.63 270.63L103.5 270.07L103.44 269.79V269.65V269.53L103.6 269.27L120 265.69H120.18V265.86C121.24 270.79 122.18 274.86 122.76 277.86C123.05 279.26 123.28 280.38 123.45 281.18C123.52 281.54 123.57 281.82 123.62 282.05C123.66 282.119 123.69 282.193 123.71 282.27Z" fill="#263238"/>
<path d="M245.606 241.841L131.191 267.332L133.318 276.878L247.733 251.387L245.606 241.841Z" fill="#E0E0E0"/>
<path d="M130.05 310.72C130.05 310.72 130.05 310.6 129.96 310.4C129.87 310.2 129.83 309.87 129.74 309.51C129.55 308.7 129.28 307.58 128.95 306.17C128.28 303.28 127.34 299.17 126.22 294.35L126.44 294.49L110 298.17C110 298.23 110.3 297.7 110.16 297.93V298V298.07V298.21L110.22 298.49L110.35 299.05C110.43 299.43 110.51 299.8 110.6 300.17L111.08 302.36C111.4 303.81 111.72 305.22 112.02 306.6L113.73 314.34L113.51 314.21L125.37 311.66L128.73 310.96L129.63 310.78C129.736 310.768 129.843 310.768 129.95 310.78L129.68 310.86L128.82 311.07L125.52 311.86L113.59 314.61H113.41V314.43C112.88 312.05 112.29 309.43 111.67 306.7C111.36 305.32 111.04 303.91 110.67 302.46C110.51 301.74 110.34 301.01 110.18 300.27C110.1 299.9 110.01 299.53 109.93 299.16L109.81 298.6L109.74 298.32V298.17V298C109.6 298.22 109.93 297.69 109.9 297.75L126.31 294.12H126.49V294.3L129.07 306.3C129.36 307.7 129.59 308.82 129.76 309.63C129.83 309.98 129.89 310.26 129.93 310.49C129.98 310.561 130.021 310.638 130.05 310.72Z" fill="#263238"/>
<path d="M251.954 270.301L137.539 295.792L139.666 305.337L254.081 279.847L251.954 270.301Z" fill="#E0E0E0"/>
<path d="M101.61 247.94L103.33 245.23L108.44 248.07L115.02 238.15L117.56 239.91L109.08 252.41L101.61 247.94Z" fill="#1A43BF"/>
<path d="M107.74 275.44L109.46 272.73L114.57 275.57L121.14 265.65L123.69 267.41L115.2 279.9L107.74 275.44Z" fill="#1A43BF"/>
<path d="M114.03 303.63L115.75 300.93L120.85 303.77L127.43 293.85L129.97 295.6L121.49 308.1L114.03 303.63Z" fill="#1A43BF"/>
<path d="M166.4 339C166.4 339.12 156.76 341.37 144.82 344C132.88 346.63 123.18 348.72 123.16 348.61C123.14 348.5 132.79 346.25 144.73 343.61C156.67 340.97 166.37 338.9 166.4 339Z" fill="#263238"/>
<path d="M187.94 333.86C185.33 334.664 182.68 335.332 180 335.86C177.361 336.516 174.691 337.04 172 337.43C174.607 336.628 177.254 335.96 179.93 335.43C184.32 334.46 187.92 333.75 187.94 333.86Z" fill="#263238"/>
<path d="M259.28 311.41C259.28 311.52 250.61 313.56 239.87 315.95C229.13 318.34 220.39 320.19 220.37 320.08C220.35 319.97 229.03 317.94 239.78 315.54C250.53 313.14 259.26 311.3 259.28 311.41Z" fill="#263238"/>
<path d="M250 337.73C250 337.73 250.09 337.46 250.19 336.94C250.323 336.17 250.282 335.381 250.07 334.63C249.715 333.441 249.253 332.286 248.69 331.18C247.893 329.712 247.425 328.087 247.32 326.42C247.344 325.394 247.582 324.384 248.02 323.456C248.457 322.528 249.084 321.701 249.86 321.03C250.77 320.275 251.858 319.765 253.02 319.55C254.182 319.335 255.381 319.421 256.5 319.8C257.73 320.174 258.826 320.892 259.66 321.87C260.104 322.396 260.367 323.052 260.41 323.74C260.422 324.11 260.314 324.473 260.103 324.777C259.893 325.082 259.59 325.31 259.24 325.43C258.586 325.641 257.918 325.805 257.24 325.92L255.24 326.33C253.9 326.6 252.54 326.84 251.14 327.02C248.429 327.411 245.676 327.428 242.96 327.07C241.733 326.806 240.452 327.013 239.37 327.65C238.511 328.516 237.783 329.503 237.21 330.58C236.862 331.11 236.379 331.538 235.81 331.82C235.232 332.075 234.579 332.104 233.98 331.9C232.952 331.442 231.973 330.879 231.06 330.22C230.637 329.938 230.154 329.757 229.65 329.69C229.179 329.637 228.704 329.754 228.31 330.02C227.619 330.653 227.046 331.405 226.62 332.24C226.165 332.956 225.544 333.552 224.809 333.977C224.075 334.402 223.248 334.643 222.4 334.68C221.118 334.731 219.865 334.287 218.9 333.44C218.294 332.916 217.819 332.259 217.51 331.52C217.402 331.267 217.325 331.001 217.28 330.73C217.28 330.73 217.37 331 217.59 331.49C217.914 332.197 218.397 332.819 219 333.31C219.941 334.106 221.15 334.514 222.38 334.45C223.189 334.408 223.976 334.171 224.673 333.758C225.369 333.345 225.955 332.769 226.38 332.08C226.82 331.205 227.417 330.419 228.14 329.76C228.596 329.443 229.148 329.298 229.7 329.35C230.248 329.431 230.772 329.625 231.24 329.92C232.138 330.555 233.096 331.101 234.1 331.55C234.614 331.722 235.174 331.698 235.67 331.48C236.179 331.227 236.606 330.835 236.9 330.35C237.495 329.245 238.249 328.234 239.14 327.35C239.694 326.954 240.343 326.713 241.02 326.65C241.685 326.579 242.355 326.579 243.02 326.65C245.707 326.998 248.428 326.981 251.11 326.6C252.49 326.42 253.84 326.17 255.18 325.91L257.18 325.51C257.822 325.391 258.457 325.234 259.08 325.04C259.354 324.953 259.592 324.779 259.758 324.544C259.924 324.31 260.009 324.027 260 323.74C259.955 323.141 259.724 322.571 259.34 322.11C258.551 321.171 257.51 320.477 256.34 320.11C255.28 319.75 254.145 319.665 253.043 319.865C251.941 320.064 250.907 320.541 250.04 321.25C249.295 321.884 248.691 322.667 248.268 323.549C247.844 324.431 247.61 325.392 247.58 326.37C247.67 328 248.107 329.592 248.86 331.04C249.414 332.162 249.859 333.334 250.19 334.54C250.386 335.312 250.403 336.12 250.24 336.9C250.193 337.185 250.113 337.464 250 337.73Z" fill="#263238"/>
<path d="M270.67 324.93C270.501 324.998 270.327 325.051 270.15 325.09L268.63 325.45L263.05 326.74C258.35 327.84 251.85 329.38 244.7 331.19C237.55 333 231.1 334.75 226.45 336.03L220.93 337.55L219.42 337.95C219.247 338.004 219.069 338.045 218.89 338.07C219.051 337.982 219.222 337.915 219.4 337.87L220.88 337.4C222.17 336.99 224.04 336.4 226.36 335.75C231.01 334.39 237.44 332.6 244.6 330.75C251.76 328.9 258.26 327.44 262.99 326.43C265.35 325.92 267.27 325.52 268.6 325.26L270.13 324.97C270.308 324.941 270.489 324.927 270.67 324.93Z" fill="#263238"/>
<path d="M188.648 105.507L110.982 122.811L114.233 137.403L191.899 120.099L188.648 105.507Z" fill="#4F5E73"/>
<path d="M262.119 342.31L287.209 474.87L310.139 432.5L353.599 458.01L307.469 328.93L262.119 342.31Z" fill="#1A43BF"/>
<g opacity="0.3">
<path d="M270.559 386.89C272.948 387.34 275.41 387.203 277.734 386.491C280.058 385.778 282.174 384.512 283.899 382.8C286.189 380.44 287.709 377.22 290.589 375.64C293.179 374.22 296.369 374.42 299.219 375.21C302.069 376 304.749 377.31 307.599 378.05C310.412 378.767 313.338 378.916 316.209 378.491C319.079 378.065 321.836 377.072 324.319 375.57L317.079 355.47L283.479 351.27L267.479 370.52L270.559 386.89Z" fill="black"/>
</g>
<path d="M308.51 427.24C308.37 427.24 304.63 413.5 300.16 396.49C295.69 379.48 292.16 365.64 292.32 365.61C292.48 365.58 296.19 379.33 300.66 396.36C305.13 413.39 308.65 427.2 308.51 427.24Z" fill="#263238"/>
<path d="M265.79 349.2L240.7 481.76L217.77 439.4L174.31 464.9L220.44 335.82L265.79 349.2Z" fill="#1A43BF"/>
<g opacity="0.3">
<path d="M206.64 374.43C206.64 374.43 213.78 380.3 222.29 377.6C230.8 374.9 236.09 374.32 240.7 377.6C245.31 380.88 257.78 391.55 257.78 391.55L260.67 376.26L243.92 353.26L226.44 356.79L214 358L209.37 366.77L206.64 374.43Z" fill="black"/>
</g>
<path d="M412.899 229.54C412.899 239.05 400.749 247.24 398.969 256.23C397.139 265.49 405.199 277.7 401.669 286.23C398.139 294.76 383.669 297.82 378.539 305.53C373.409 313.24 376.109 327.68 369.539 334.26C362.969 340.84 348.539 338.07 340.809 343.26C333.079 348.45 330.179 362.79 321.509 366.39C312.989 369.92 300.779 361.86 291.509 363.69C282.509 365.47 274.329 377.62 264.819 377.62C255.309 377.62 247.109 365.47 238.119 363.69C228.859 361.86 216.649 369.92 208.119 366.39C199.589 362.86 196.539 348.39 188.829 343.26C181.119 338.13 166.679 340.83 160.089 334.26C153.499 327.69 156.279 313.26 151.089 305.53C145.899 297.8 131.559 294.9 127.969 286.23C124.379 277.56 132.499 265.5 130.669 256.23C128.889 247.23 116.729 239.05 116.729 229.54C116.729 220.03 128.889 211.83 130.669 202.84C132.499 193.58 124.429 181.37 127.969 172.84C131.509 164.31 145.969 161.25 151.089 153.55C156.209 145.85 153.519 131.4 160.089 124.81C166.659 118.22 181.089 121 188.829 115.81C196.569 110.62 199.449 96.2802 208.119 92.6902C216.789 89.1002 228.849 97.2202 238.119 95.3902C247.119 93.6102 255.309 81.4502 264.819 81.4502C274.329 81.4502 282.519 93.6102 291.509 95.3902C300.769 97.2202 312.979 89.1502 321.509 92.6902C330.179 96.2802 333.099 110.69 340.809 115.81C348.519 120.93 362.959 118.24 369.539 124.81C376.119 131.38 373.349 145.81 378.539 153.55C383.729 161.29 398.069 164.17 401.669 172.84C405.27 181.51 397.139 193.57 398.969 202.84C400.749 211.83 412.899 220 412.899 229.54Z" fill="#1A43BF"/>
<path d="M230.17 146.53C230.17 146.53 230.06 146.4 229.9 146.12C229.74 145.84 229.49 145.39 229.22 144.9C228.63 143.84 227.82 142.28 226.86 140.34C224.93 136.46 222.43 131 220.02 124.84C217.61 118.68 215.76 112.96 214.55 108.84C213.95 106.75 213.49 105.06 213.2 103.84C213.07 103.3 212.96 102.84 212.88 102.48C212.828 102.325 212.801 102.163 212.8 102C212.877 102.146 212.938 102.3 212.98 102.46L213.39 103.79C213.78 105.02 214.29 106.68 214.9 108.69C216.2 112.82 218.11 118.49 220.5 124.69C222.89 130.89 225.35 136.3 227.19 140.22L229.4 144.85L229.99 146.11C230.062 146.244 230.123 146.385 230.17 146.53Z" fill="#263238"/>
<path d="M243.349 141.52C243.174 141.171 243.043 140.802 242.959 140.42C242.749 139.7 242.469 138.65 242.139 137.35C241.479 134.76 240.659 131.14 239.919 127.12C239.179 123.1 238.659 119.43 238.359 116.77C238.199 115.44 238.099 114.36 238.039 113.61C237.993 113.225 237.993 112.835 238.039 112.45C238.154 112.821 238.231 113.203 238.269 113.59L238.749 116.72C239.149 119.37 239.749 123.02 240.459 127.03C241.169 131.04 241.959 134.66 242.519 137.27C242.789 138.49 243.009 139.53 243.189 140.37C243.281 140.747 243.334 141.132 243.349 141.52Z" fill="#263238"/>
<path d="M266.6 139.21C266.45 139.21 266.08 127.99 265.77 114.16C265.46 100.33 265.32 89.0999 265.46 89.0899C265.6 89.0799 265.98 100.3 266.29 114.15C266.6 128 266.74 139.21 266.6 139.21Z" fill="#263238"/>
<path d="M290 116.16C290.14 116.16 288.52 121.81 286.39 128.69C284.26 135.57 282.39 141.1 282.29 141.06C282.19 141.02 283.77 135.41 285.9 128.53C288.03 121.65 289.85 116.12 290 116.16Z" fill="#263238"/>
<path d="M299.539 145.15C299.559 144.985 299.602 144.823 299.669 144.67L300.119 143.35C300.519 142.21 301.119 140.57 301.919 138.55C303.489 134.55 305.729 128.96 308.289 122.86C310.849 116.76 313.229 111.27 314.979 107.31C315.839 105.39 316.549 103.81 317.089 102.63L317.679 101.37C317.829 101.09 317.909 100.94 317.929 100.95C317.893 101.108 317.842 101.262 317.779 101.41L317.269 102.71L315.319 107.46C313.609 111.52 311.319 117 308.769 123.07C306.219 129.14 303.959 134.62 302.259 138.69L300.309 143.43L299.759 144.71C299.704 144.865 299.63 145.013 299.539 145.15Z" fill="#263238"/>
<path d="M312 151.67C312.152 151.317 312.343 150.981 312.57 150.67C312.97 150.03 313.57 149.12 314.31 148.01C315.81 145.8 317.97 142.78 320.48 139.56C322.99 136.34 325.4 133.56 327.18 131.56C328.07 130.56 328.81 129.77 329.33 129.23C329.58 128.931 329.866 128.662 330.18 128.43C329.987 128.771 329.751 129.087 329.48 129.37C328.94 130.03 328.26 130.84 327.48 131.8C325.77 133.86 323.42 136.71 320.91 139.93C318.4 143.15 316.21 146.12 314.63 148.28L312.76 150.83C312.537 151.136 312.282 151.417 312 151.67Z" fill="#263238"/>
<path d="M330.22 166.57C330.12 166.47 338.04 158.95 347.89 149.78C357.74 140.61 365.82 133.26 365.89 133.36C365.96 133.46 358.08 140.99 348.22 150.16C338.36 159.33 330.32 166.68 330.22 166.57Z" fill="#263238"/>
<path d="M361.999 169.68C361.035 170.29 360.033 170.838 358.999 171.32C357.119 172.32 354.569 173.71 351.749 175.32C348.929 176.93 346.329 178.27 344.399 179.17C343.399 179.62 342.659 179.97 342.099 180.17C341.826 180.313 341.533 180.414 341.229 180.47C342.194 179.86 343.196 179.313 344.229 178.83C346.109 177.83 348.659 176.44 351.479 174.83C354.299 173.22 356.899 171.83 358.829 170.98C359.829 170.53 360.569 170.18 361.129 169.98C361.401 169.834 361.695 169.732 361.999 169.68Z" fill="#263238"/>
<path d="M391.39 181.87C391.44 182.01 382.02 185.45 370.39 189.56C358.76 193.67 349.23 196.88 349.19 196.75C349.15 196.62 358.55 193.17 370.19 189.06C381.83 184.95 391.34 181.74 391.39 181.87Z" fill="#263238"/>
<path d="M400.749 235.34C400.749 235.48 390.499 234.63 377.889 233.43C365.279 232.23 355.059 231.14 355.079 230.99C355.099 230.84 365.319 231.71 377.939 232.91C390.559 234.11 400.759 235.2 400.749 235.34Z" fill="#263238"/>
<path d="M393.219 283.3C393.159 283.43 383.589 279.03 371.849 273.49C360.109 267.95 350.64 263.34 350.7 263.21C350.76 263.08 360.329 267.47 372.069 273.02C383.809 278.57 393.279 283.17 393.219 283.3Z" fill="#263238"/>
<path d="M361.74 328.93C361.63 329.02 354.74 321.01 346.33 311.05C337.92 301.09 331.2 292.92 331.33 292.83C331.46 292.74 338.33 300.74 346.74 310.71C355.15 320.68 361.85 328.83 361.74 328.93Z" fill="#263238"/>
<path d="M335.46 335C335.149 334.653 334.871 334.278 334.63 333.88C334.12 333.14 333.4 332.05 332.54 330.7C330.8 327.99 328.47 324.2 326.01 319.95C323.55 315.7 321.45 311.78 320.01 308.95C319.28 307.52 318.69 306.36 318.31 305.55C318.084 305.138 317.897 304.706 317.75 304.26C318.033 304.633 318.28 305.031 318.49 305.45C318.97 306.33 319.59 307.45 320.34 308.78C321.89 311.59 324.05 315.47 326.5 319.72C328.95 323.97 331.23 327.78 332.89 330.53C333.67 331.85 334.33 332.94 334.84 333.8C335.09 334.176 335.298 334.578 335.46 335Z" fill="#263238"/>
<path d="M319.139 357.9C319.139 357.9 319.039 357.77 318.879 357.49L318.229 356.27C317.659 355.2 316.889 353.64 315.969 351.7C314.129 347.81 311.759 342.35 309.509 336.17C307.259 329.99 305.559 324.29 304.509 320.17C303.959 318.09 303.509 316.39 303.289 315.22C303.179 314.68 303.089 314.22 303.009 313.86C302.97 313.703 302.946 313.542 302.939 313.38C303.021 313.523 303.079 313.678 303.109 313.84L303.489 315.17C303.839 316.41 304.299 318.06 304.859 320.07C306.039 324.2 307.789 329.88 310.039 336.07C312.289 342.26 314.589 347.69 316.349 351.62L318.449 356.25C318.669 356.75 318.859 357.17 319.019 357.51C319.076 357.634 319.116 357.765 319.139 357.9Z" fill="#263238"/>
<path d="M286.08 341.81C285.863 340.66 285.72 339.498 285.65 338.33C285.42 336.18 285.05 333.21 284.51 329.96C283.97 326.71 283.34 323.79 282.86 321.68C282.545 320.55 282.305 319.401 282.14 318.24C282.289 318.518 282.403 318.814 282.48 319.12C282.68 319.7 282.93 320.54 283.22 321.59C283.79 323.68 284.47 326.59 285.02 329.88C285.498 332.667 285.832 335.478 286.02 338.3C286.09 339.38 286.13 340.3 286.13 340.87C286.155 341.184 286.139 341.5 286.08 341.81Z" fill="#263238"/>
<path d="M264.45 370.6C264.427 370.431 264.427 370.259 264.45 370.09C264.45 369.69 264.45 369.2 264.45 368.62C264.45 367.34 264.45 365.49 264.45 363.21C264.53 358.64 264.74 352.34 265.1 345.39C265.46 338.44 265.91 332.14 266.28 327.59C266.46 325.31 266.63 323.47 266.76 322.2C266.83 321.62 266.88 321.13 266.92 320.74C266.932 320.566 266.965 320.395 267.02 320.23C267.043 320.403 267.043 320.577 267.02 320.75C267.02 321.14 267.02 321.63 266.95 322.22C266.87 323.57 266.77 325.39 266.64 327.61C266.37 332.24 266.01 338.5 265.64 345.41C265.27 352.32 265.01 358.66 264.84 363.22C264.76 365.44 264.69 367.22 264.64 368.62C264.64 369.21 264.58 369.69 264.56 370.09C264.549 370.264 264.512 370.436 264.45 370.6Z" fill="#263238"/>
<path d="M246.87 320.23C246.863 321.092 246.762 321.95 246.57 322.79C246.31 324.35 245.89 326.5 245.34 328.85C244.79 331.2 244.21 333.32 243.75 334.85C243.55 335.686 243.259 336.498 242.88 337.27C242.969 336.416 243.14 335.572 243.39 334.75L244.83 328.75C245.35 326.5 245.83 324.46 246.21 322.75C246.349 321.891 246.57 321.047 246.87 320.23Z" fill="#263238"/>
<path d="M215.08 305C213.77 307.166 212.31 309.238 210.71 311.2C209.242 313.265 207.642 315.232 205.92 317.09C207.227 314.922 208.688 312.85 210.29 310.89C211.751 308.82 213.351 306.852 215.08 305Z" fill="#263238"/>
<path d="M198.41 293.76C198.51 293.85 192.31 301.14 184.55 310.03C176.79 318.92 170.4 326.03 170.29 325.96C170.18 325.89 176.39 318.58 184.15 309.69C191.91 300.8 198.3 293.66 198.41 293.76Z" fill="#263238"/>
<path d="M190.06 281.35C187.607 283.715 185.034 285.952 182.35 288.05C178 291.63 174.4 294.45 174.35 294.34C176.804 291.98 179.377 289.747 182.06 287.65C184.619 285.417 187.289 283.315 190.06 281.35Z" fill="#263238"/>
<path d="M180.299 262.64C180.359 262.77 171.719 267.07 160.989 272.23C150.259 277.39 141.529 281.48 141.459 281.35C141.389 281.22 150.039 276.93 160.769 271.76C171.499 266.59 180.239 262.51 180.299 262.64Z" fill="#263238"/>
<path d="M176.379 253.31C176.092 253.436 175.789 253.524 175.479 253.57C174.889 253.71 174.039 253.89 172.989 254.08C170.879 254.48 167.939 254.92 164.679 255.25C161.419 255.58 158.449 255.72 156.299 255.75C155.229 255.75 154.359 255.75 153.759 255.75C153.446 255.77 153.132 255.74 152.829 255.66C153.976 255.503 155.131 255.412 156.289 255.39C158.429 255.26 161.379 255.06 164.629 254.73C167.879 254.4 170.809 254.02 172.929 253.73C174.068 253.509 175.221 253.368 176.379 253.31Z" fill="#263238"/>
<path d="M173.21 231.76C172.627 231.808 172.042 231.808 171.46 231.76L166.7 231.52C162.7 231.32 157.14 231.14 151.01 231.17C144.88 231.2 139.32 231.45 135.31 231.69L130.56 231.98C129.979 232.046 129.394 232.066 128.81 232.04C129.378 231.903 129.956 231.816 130.54 231.78C131.66 231.65 133.28 231.49 135.28 231.32C139.28 230.99 144.86 230.69 151 230.65C157.14 230.61 162.71 230.86 166.73 231.15C168.73 231.3 170.36 231.44 171.48 231.56C172.06 231.586 172.638 231.653 173.21 231.76Z" fill="#263238"/>
<path d="M175.17 212.84C175.17 212.98 168.66 211.29 160.71 209.07C152.76 206.85 146.35 204.95 146.39 204.81C146.43 204.67 152.9 206.35 160.85 208.57C168.8 210.79 175.21 212.7 175.17 212.84Z" fill="#263238"/>
<path d="M179.359 197C179.198 196.99 179.04 196.957 178.889 196.9L177.559 196.5C176.419 196.14 174.769 195.58 172.759 194.85C167.507 192.921 162.36 190.718 157.339 188.25C152.32 185.779 147.436 183.041 142.709 180.05C140.899 178.9 139.449 177.94 138.469 177.25L137.349 176.44C137.099 176.25 136.969 176.15 136.979 176.13C137.13 176.191 137.274 176.268 137.409 176.36L138.589 177.08C139.589 177.72 141.069 178.63 142.899 179.74C146.569 181.96 151.709 184.89 157.569 187.74C163.429 190.59 168.889 192.91 172.889 194.47C174.889 195.24 176.499 195.85 177.629 196.27L178.919 196.76C179.072 196.827 179.219 196.908 179.359 197Z" fill="#263238"/>
<path d="M188.77 181C188.69 181.11 183.63 177.69 177.47 173.35C171.31 169.01 166.38 165.4 166.47 165.28C166.56 165.16 171.61 168.59 177.78 172.93C183.95 177.27 188.85 180.91 188.77 181Z" fill="#263238"/>
<path d="M168.88 132.42C168.88 132.42 169.02 132.5 169.26 132.69L170.26 133.57L173.95 136.83L186.06 147.64L198.22 158.39L201.9 161.66L202.9 162.57C203.021 162.669 203.128 162.783 203.22 162.91C203.22 162.91 203.08 162.84 202.83 162.65L201.83 161.82C200.92 161.09 199.63 160.01 198.04 158.67C194.86 155.99 190.52 152.24 185.77 148.03C181.02 143.82 176.77 139.94 173.77 137.1C172.25 135.68 171.03 134.53 170.19 133.71L169.24 132.77C169 132.55 168.86 132.43 168.88 132.42Z" fill="#263238"/>
<path d="M200.069 133.33C200.069 133.33 200.339 133.55 200.749 134.02C201.159 134.49 201.749 135.18 202.439 136.02C203.829 137.76 205.679 140.22 207.599 143.02C209.519 145.82 211.129 148.44 212.239 150.37C212.799 151.37 213.239 152.12 213.519 152.67C213.692 152.944 213.827 153.24 213.919 153.55C213.186 152.596 212.518 151.594 211.919 150.55C210.729 148.67 209.069 146.1 207.159 143.3C205.249 140.5 203.449 138.03 202.159 136.24C201.405 135.312 200.708 134.341 200.069 133.33Z" fill="#263238"/>
<g opacity="0.2">
<path d="M160.1 124.82L203.61 162.91L214.42 154.26L189.18 115.58C189.18 115.58 187.24 117 182.18 118.44C177.35 119.83 163 120.2 160.1 124.82Z" fill="black"/>
</g>
<g opacity="0.2">
<path d="M208.529 92.6L229.769 145.77L243.349 141.52L238.819 95.4C238.819 95.4 236.489 95.95 231.299 95.29C226.269 94.65 214.079 89.88 208.529 92.6Z" fill="black"/>
</g>
<g opacity="0.3">
<path d="M265.17 81.4697L266.6 139.21L279.32 139.82L292.2 95.4997C289.524 94.9684 286.979 93.915 284.71 92.3997C280.31 89.5797 271.33 80.9997 265.17 81.4697Z" fill="black"/>
</g>
<g opacity="0.2">
<path d="M320.649 92.3799L299.539 145.61L310.999 151.1L340.049 115.24C337.866 113.397 336.004 111.203 334.539 108.75C331.799 104.32 327.079 94.1499 320.649 92.3799Z" fill="black"/>
</g>
<g opacity="0.2">
<path d="M370.229 125.59L330.909 166.59L339.669 178.4L378.089 152.76C376.824 150.43 375.968 147.9 375.559 145.28C374.639 140.28 374.509 131.2 370.229 125.59Z" fill="black"/>
</g>
<g opacity="0.2">
<path d="M401.269 171.85L348.319 193.64L352.709 207.17L398.779 202.17C398.779 202.17 398.489 200.75 399.099 195.56C399.679 190.53 404.999 179.29 401.269 171.85Z" fill="black"/>
</g>
<g opacity="0.2">
<path d="M412.999 229.54L355.269 231.54L354.789 244.27L398.789 257.15C399.081 255.317 399.669 253.544 400.529 251.9C403.809 245.78 412.999 237.14 412.999 229.54Z" fill="black"/>
</g>
<g opacity="0.2">
<path d="M402.349 284.12L349.199 263.41L343.829 275L379.999 303.63C381.901 301.809 384.004 300.212 386.269 298.87C390.669 296.06 401.129 291.51 402.349 284.12Z" fill="black"/>
</g>
<g opacity="0.2">
<path d="M324.18 283.3L311.02 294.3C312.02 295.3 329.55 325.14 340.36 343.56C340.5 343.439 340.647 343.325 340.8 343.22C347.91 338.46 360.57 340.37 367.71 335.66L324.18 283.3Z" fill="black"/>
<path d="M299.999 304.18L280.359 310.88L289.659 364.2C290.263 363.987 290.882 363.817 291.509 363.69C300.769 361.86 312.979 369.92 321.509 366.39C322.677 365.889 323.763 365.215 324.729 364.39L299.999 304.18Z" fill="black"/>
<path d="M264.14 377.6L267.27 307.94L250.27 303.63L237.64 363.63L238.1 363.71C246.9 365.42 254.91 377 264.14 377.6Z" fill="black"/>
<path d="M221.44 296.11C221.44 296.11 199 326.17 187.26 342.35C187.803 342.623 188.331 342.927 188.84 343.26C196.55 348.42 199.46 362.79 208.13 366.39C208.53 366.55 208.94 366.68 209.35 366.8L240.7 307.46L221.44 296.11Z" fill="black"/>
<path d="M198.41 271.91L150.55 304.8C150.73 305.04 150.93 305.27 151.09 305.52C156.29 313.28 153.52 327.67 160.09 334.25C160.696 334.846 161.367 335.373 162.09 335.82C179 316.76 209.36 282.54 210.46 281.35L198.41 271.91Z" fill="black"/>
<path d="M187.44 248.42L130.85 257.56C131.76 266.64 124.6 278.1 127.97 286.22C128.173 286.716 128.417 287.194 128.7 287.65C148.5 277.79 189.87 257.28 191.59 257.17L187.44 248.42Z" fill="black"/>
<path d="M184.349 216.9L130.859 201.47C130.809 201.93 130.749 202.39 130.669 202.84C128.889 211.84 116.729 220.03 116.729 229.54C116.732 230.173 116.786 230.805 116.889 231.43H182.179L184.349 216.9Z" fill="black"/>
<path d="M128.189 172.43C148.189 183.14 187.259 204.81 187.259 204.81L196.879 186.54L151.699 152.54C151.499 152.89 151.309 153.25 151.089 153.54C145.999 161.13 132.069 164.09 128.189 172.43Z" fill="black"/>
</g>
<path d="M412.9 229.54L412.84 228.9C412.816 228.273 412.729 227.65 412.58 227.04C411.998 224.642 410.981 222.371 409.58 220.34C407.86 217.58 405.26 214.49 402.58 210.58C401.066 208.5 399.904 206.186 399.14 203.73C398.489 200.863 398.489 197.887 399.14 195.02C399.7 191.97 400.61 188.83 401.4 185.5C402.19 182.17 402.93 178.57 402.19 174.89C401.771 173.027 400.918 171.29 399.7 169.82C398.393 168.323 396.901 166.999 395.26 165.88C391.94 163.52 388.12 161.64 384.47 159.18C382.581 157.963 380.866 156.496 379.37 154.82C377.901 153.001 376.834 150.891 376.24 148.63C374.96 144.08 374.67 139.22 373.7 134.36C373.276 131.885 372.441 129.499 371.23 127.3C369.914 125.086 367.918 123.357 365.54 122.37C363.084 121.383 360.514 120.711 357.89 120.37C355.24 119.93 352.52 119.62 349.8 119.14C347.013 118.738 344.311 117.884 341.8 116.61C339.31 115.113 337.201 113.06 335.64 110.61C333.98 108.23 332.55 105.67 331.03 103.14C329.574 100.551 327.829 98.136 325.83 95.9401C323.769 93.7186 320.958 92.3398 317.94 92.0701C314.856 91.956 311.773 92.3169 308.8 93.1401C305.8 93.8701 302.72 94.7601 299.57 95.3501C296.385 96.1005 293.064 96.0386 289.91 95.1701C286.835 93.9639 283.959 92.302 281.38 90.2401C278.71 88.2401 276.11 86.2401 273.26 84.4601C270.41 82.6801 267.18 81.3901 263.82 81.7701H263.19C262.98 81.7701 262.78 81.8601 262.58 81.9001C262.17 82.0001 261.75 82.0701 261.35 82.1901C260.544 82.4463 259.756 82.7536 258.99 83.1101C257.443 83.8457 255.958 84.7052 254.55 85.6801C251.71 87.6801 249.02 89.8601 246.1 91.8401C244.646 92.8578 243.107 93.7478 241.5 94.5001C239.852 95.2369 238.089 95.6802 236.29 95.8101C232.681 95.8332 229.089 95.3244 225.63 94.3001C222.146 93.3055 218.593 92.5734 215 92.1101C213.205 91.9335 211.394 92.0552 209.64 92.4701C207.892 92.956 206.28 93.8389 204.93 95.0501C202.17 97.4601 200.25 100.7 198.33 103.88C196.517 107.21 194.398 110.364 192 113.3C190.73 114.755 189.205 115.965 187.5 116.87C185.759 117.693 183.93 118.317 182.05 118.73C178.29 119.56 174.45 119.91 170.66 120.59C166.87 121.27 163 122.34 160.26 125C158.937 126.409 157.916 128.073 157.26 129.89C156.597 131.723 156.112 133.615 155.81 135.54C155.11 139.4 154.81 143.36 153.81 147.25C153.38 149.224 152.662 151.125 151.68 152.89C150.644 154.639 149.287 156.176 147.68 157.42C144.52 159.96 140.93 161.84 137.49 163.94C135.766 164.977 134.113 166.126 132.54 167.38C130.975 168.631 129.659 170.164 128.66 171.9C127.707 173.668 127.225 175.652 127.26 177.66C127.295 179.679 127.533 181.689 127.97 183.66C128.81 187.66 130.08 191.59 130.76 195.66C131.163 197.749 131.244 199.887 131 202C130.716 204.108 130.037 206.143 129 208C126.91 211.65 124.19 214.86 121.78 218.26C120.542 219.936 119.464 221.723 118.56 223.6C117.569 225.43 117.05 227.479 117.05 229.56C117.05 231.641 117.569 233.69 118.56 235.52C119.462 237.397 120.54 239.185 121.78 240.86C124.19 244.26 126.91 247.47 129 251.12C130.018 252.942 130.696 254.935 131 257C131.254 259.085 131.186 261.196 130.8 263.26C130.13 267.37 128.86 271.31 128.01 275.31C127.576 277.282 127.339 279.292 127.3 281.31C127.26 283.321 127.739 285.308 128.69 287.08C129.681 288.822 130.994 290.359 132.56 291.61C134.133 292.864 135.786 294.013 137.51 295.05C140.95 297.15 144.51 299.05 147.71 301.57C149.314 302.817 150.671 304.353 151.71 306.1C152.7 307.859 153.418 309.757 153.84 311.73C154.78 315.63 155.1 319.59 155.84 323.45C156.15 325.375 156.639 327.266 157.3 329.1C157.941 330.916 158.944 332.584 160.25 334C163.02 336.69 166.92 337.76 170.66 338.44C174.4 339.12 178.29 339.44 182.05 340.3C183.933 340.715 185.765 341.339 187.51 342.16C189.213 343.069 190.737 344.278 192.01 345.73C194.384 348.671 196.483 351.825 198.28 355.15C200.2 358.33 202.12 361.57 204.88 363.98C206.228 365.189 207.836 366.072 209.58 366.56C211.349 367.007 213.181 367.156 215 367C218.586 366.518 222.132 365.772 225.61 364.77C229.071 363.738 232.667 363.225 236.28 363.25C238.079 363.386 239.842 363.832 241.49 364.57C243.096 365.325 244.634 366.215 246.09 367.23C249.01 369.23 251.69 371.44 254.54 373.38C255.942 374.362 257.424 375.225 258.97 375.96C259.737 376.315 260.525 376.622 261.33 376.88C261.74 376.99 262.15 377.07 262.56 377.17L263.18 377.3H263.8C267.17 377.68 270.41 376.3 273.25 374.61C276.09 372.92 278.7 370.79 281.36 368.83C283.943 366.768 286.822 365.106 289.9 363.9C293.054 363.037 296.375 362.975 299.56 363.72C302.71 364.32 305.75 365.21 308.79 365.94C311.769 366.754 314.853 367.115 317.94 367.01C320.954 366.73 323.759 365.348 325.82 363.13C327.813 360.926 329.557 358.508 331.02 355.92C332.53 353.4 333.96 350.84 335.62 348.45C337.19 346.004 339.301 343.952 341.79 342.45C344.299 341.175 347.002 340.324 349.79 339.93C352.52 339.44 355.23 339.13 357.88 338.7C360.506 338.342 363.076 337.654 365.53 336.65C367.906 335.66 369.901 333.931 371.22 331.72C372.423 329.519 373.255 327.133 373.68 324.66C374.68 319.8 374.94 314.93 376.23 310.38C376.818 308.119 377.885 306.012 379.36 304.2C380.851 302.519 382.567 301.052 384.46 299.84C388.11 297.38 391.93 295.5 395.24 293.14C396.889 292.023 398.385 290.695 399.69 289.19C400.906 287.724 401.756 285.99 402.17 284.13C402.518 282.334 402.569 280.493 402.32 278.68C402.113 276.942 401.799 275.219 401.38 273.52C400.58 270.19 399.68 267.05 399.12 264C398.469 261.133 398.469 258.157 399.12 255.29C399.888 252.836 401.05 250.522 402.56 248.44C405.27 244.53 407.88 241.44 409.56 238.68C410.962 236.65 411.979 234.379 412.56 231.98C412.709 231.371 412.796 230.747 412.82 230.12L412.88 229.49C412.88 229.49 412.88 229.7 412.88 230.12C412.86 230.75 412.78 231.376 412.64 231.99C412.07 234.408 411.053 236.697 409.64 238.74C407.93 241.52 405.34 244.62 402.64 248.53C401.139 250.596 399.994 252.898 399.25 255.34C398.599 258.177 398.599 261.124 399.25 263.96C399.81 266.96 400.72 270.13 401.53 273.46C401.965 275.172 402.299 276.909 402.53 278.66C402.779 280.496 402.728 282.36 402.38 284.18C401.962 286.082 401.098 287.858 399.86 289.36C398.542 290.882 397.033 292.226 395.37 293.36C392.03 295.74 388.22 297.63 384.59 300.08C382.736 301.285 381.054 302.734 379.59 304.39C378.145 306.174 377.102 308.247 376.53 310.47C375.26 314.97 374.98 319.83 374 324.72C373.577 327.233 372.735 329.656 371.51 331.89C370.159 334.166 368.111 335.947 365.67 336.97C363.191 337.988 360.594 338.687 357.94 339.05C355.28 339.49 352.56 339.8 349.85 340.29C347.098 340.683 344.429 341.524 341.95 342.78C339.53 344.248 337.478 346.249 335.95 348.63C334.31 351 332.88 353.55 331.36 356.09C329.889 358.704 328.131 361.145 326.12 363.37C323.993 365.663 321.094 367.088 317.98 367.37C314.85 367.493 311.719 367.132 308.7 366.3C305.65 365.57 302.61 364.69 299.49 364.1C296.374 363.371 293.127 363.429 290.04 364.27C287.009 365.465 284.174 367.106 281.63 369.14C278.98 371.09 276.37 373.19 273.49 374.95C272.74 375.35 272.03 375.82 271.25 376.15C270.86 376.33 270.48 376.52 270.09 376.68L268.88 377.11C267.239 377.673 265.496 377.878 263.77 377.71L263.12 377.66C262.91 377.66 262.7 377.57 262.48 377.53C262.06 377.43 261.63 377.35 261.22 377.23C260.389 376.973 259.577 376.659 258.79 376.29C257.22 375.546 255.715 374.673 254.29 373.68C251.42 371.68 248.73 369.5 245.84 367.53C244.404 366.534 242.889 365.658 241.31 364.91C239.712 364.199 238.003 363.77 236.26 363.64C232.694 363.624 229.146 364.133 225.73 365.15C222.216 366.184 218.629 366.949 215 367.44C213.145 367.621 211.273 367.496 209.46 367.07C207.643 366.564 205.966 365.647 204.56 364.39C201.72 361.9 199.78 358.63 197.86 355.44C196.08 352.141 193.998 349.014 191.64 346.1C190.411 344.692 188.933 343.522 187.28 342.65C185.575 341.84 183.784 341.23 181.94 340.83C178.22 340.01 174.39 339.66 170.57 338.97C168.645 338.65 166.754 338.155 164.92 337.49C163.059 336.808 161.358 335.753 159.92 334.39C158.555 332.932 157.509 331.205 156.85 329.32C156.174 327.458 155.676 325.536 155.36 323.58C154.66 319.69 154.36 315.73 153.36 311.89C152.944 309.966 152.243 308.116 151.28 306.4C150.267 304.704 148.944 303.215 147.38 302.01C144.28 299.52 140.7 297.64 137.25 295.53C135.509 294.48 133.839 293.318 132.25 292.05C130.632 290.753 129.275 289.162 128.25 287.36C127.262 285.517 126.766 283.451 126.81 281.36C126.833 279.29 127.075 277.229 127.53 275.21C128.38 271.21 129.65 267.21 130.31 263.21C130.687 261.195 130.751 259.134 130.5 257.1C130.197 255.079 129.518 253.132 128.5 251.36C126.5 247.76 123.74 244.57 121.31 241.14C120.043 239.431 118.935 237.61 118 235.7C116.982 233.799 116.45 231.676 116.45 229.52C116.45 227.364 116.982 225.241 118 223.34C118.922 221.436 120.021 219.621 121.28 217.92C123.71 214.49 126.42 211.3 128.46 207.71C129.477 205.934 130.156 203.984 130.46 201.96C130.693 199.925 130.625 197.866 130.26 195.85C129.59 191.85 128.32 187.85 127.47 183.85C127.023 181.833 126.785 179.776 126.76 177.71C126.72 175.619 127.219 173.552 128.21 171.71C129.241 169.916 130.598 168.329 132.21 167.03C133.796 165.759 135.467 164.597 137.21 163.55C140.66 161.44 144.21 159.55 147.34 157.07C148.901 155.865 150.221 154.375 151.23 152.68C152.188 150.96 152.886 149.106 153.3 147.18C154.23 143.34 154.55 139.39 155.3 135.5C155.612 133.545 156.108 131.623 156.78 129.76C157.383 127.853 158.432 126.118 159.841 124.699C161.25 123.28 162.977 122.217 164.88 121.6C166.714 120.936 168.605 120.44 170.53 120.12C174.35 119.43 178.18 119.12 181.9 118.27C183.74 117.858 185.531 117.248 187.24 116.45C188.888 115.571 190.362 114.398 191.59 112.99C193.948 110.076 196.03 106.95 197.81 103.65C199.73 100.46 201.67 97.1901 204.52 94.7101C205.933 93.4349 207.625 92.507 209.46 92.0001C211.274 91.5782 213.145 91.4533 215 91.6301C218.607 92.1124 222.173 92.8611 225.67 93.8701C229.085 94.8955 232.634 95.4077 236.2 95.3901C237.927 95.2523 239.618 94.8194 241.2 94.1101C242.784 93.3721 244.3 92.4953 245.73 91.4901C248.63 89.4901 251.32 87.3001 254.19 85.3501C255.613 84.354 257.118 83.4808 258.69 82.7401C259.476 82.3736 260.284 82.0563 261.11 81.7901C261.53 81.6701 261.96 81.6001 262.38 81.5001L263.01 81.3601H263.66C265.386 81.197 267.128 81.4015 268.77 81.9601L269.98 82.3901C270.37 82.5501 270.75 82.7401 271.14 82.9201C271.93 83.2601 272.64 83.7201 273.38 84.1201C276.27 85.8801 278.87 87.9801 281.53 89.9301C284.072 91.962 286.903 93.6034 289.93 94.8001C293.016 95.6458 296.265 95.7043 299.38 94.9701C302.5 94.3901 305.54 93.5101 308.59 92.7801C311.61 91.9495 314.739 91.5853 317.87 91.7001C320.983 91.9861 323.881 93.4103 326.01 95.7001C328.023 97.9287 329.784 100.374 331.26 102.99C332.78 105.52 334.2 108.08 335.84 110.44C337.365 112.826 339.418 114.831 341.84 116.3C344.317 117.56 346.987 118.402 349.74 118.79C352.45 119.28 355.17 119.59 357.83 120.03C360.483 120.398 363.08 121.097 365.56 122.11C368.001 123.132 370.051 124.909 371.41 127.18C372.631 129.416 373.472 131.839 373.9 134.35C374.9 139.24 375.16 144.1 376.42 148.6C376.998 150.82 378.041 152.892 379.48 154.68C380.941 156.342 382.624 157.795 384.48 159C388.11 161.45 391.93 163.34 395.26 165.72C396.923 166.854 398.432 168.198 399.75 169.72C400.989 171.219 401.856 172.991 402.28 174.89C402.628 176.713 402.679 178.581 402.43 180.42C402.2 182.168 401.866 183.902 401.43 185.61C400.63 188.95 399.71 192.08 399.15 195.12C398.499 197.957 398.499 200.904 399.15 203.74C399.894 206.183 401.039 208.484 402.54 210.55C405.23 214.47 407.82 217.55 409.54 220.34C410.95 222.384 411.967 224.673 412.54 227.09C412.68 227.704 412.76 228.33 412.78 228.96C412.9 229.32 412.9 229.54 412.9 229.54Z" fill="#263238"/>
<path d="M237 367C237.14 367 233.45 382 228.76 400.42C224.07 418.84 220.15 433.75 220.01 433.72C219.87 433.69 223.56 418.72 228.25 400.29C232.94 381.86 236.9 366.92 237 367Z" fill="#263238"/>
<path d="M264.819 320.32C314.955 320.32 355.599 279.676 355.599 229.54C355.599 179.403 314.955 138.76 264.819 138.76C214.683 138.76 174.039 179.403 174.039 229.54C174.039 279.676 214.683 320.32 264.819 320.32Z" fill="#F4F7FF"/>
<path d="M208.919 198.08C207.669 199.33 200.789 211.85 200.159 222.18C199.529 232.51 201.019 290.49 201.019 290.49L201.289 294.34C217.629 313.45 277.029 341.89 330.529 294.24L333.529 258.57L324.699 183.06L293.999 175.55L286.809 163.9L238.889 175.12L234.609 185.22L208.919 198.08Z" fill="#455A64"/>
<path d="M283.52 133.54C285.63 125.69 287.7 117.79 288.43 109.7C289.16 101.61 288.49 93.2499 285.27 85.7899C284.78 84.6599 280.73 77.1099 279.51 77.2999C278.64 77.4299 281.26 84.5299 280.86 85.2999C277.01 92.7699 276.31 101.54 277.42 109.87C278.565 117.959 280.611 125.895 283.52 133.53" fill="#263238"/>
<path d="M282.72 102.54C282.34 82.1701 270.16 65.4201 249.81 66.3701L247.93 66.5701C238.828 67.5296 230.421 71.8801 224.38 78.7562C218.34 85.6324 215.109 94.5302 215.33 103.68C215.77 121.33 216.47 140.83 217.58 150.21C219.87 169.62 239.58 170.6 239.58 170.6L240.49 183.37L248.84 192.44L287.55 168.44L282.72 102.54Z" fill="#FFBF9D"/>
<path d="M239.63 170.75C239.63 170.75 251.96 170.18 264.15 160.6C264.15 160.6 260.07 178.21 240.49 178.5L239.63 170.75Z" fill="#FF9A6C"/>
<path d="M226.519 119.51C226.588 120.24 226.941 120.913 227.503 121.385C228.064 121.857 228.788 122.088 229.519 122.03C229.875 122.021 230.226 121.941 230.55 121.795C230.875 121.648 231.167 121.438 231.409 121.177C231.651 120.917 231.839 120.61 231.961 120.275C232.083 119.941 232.137 119.585 232.119 119.23C232.048 118.501 231.694 117.829 231.134 117.358C230.573 116.887 229.85 116.654 229.119 116.71C228.763 116.717 228.412 116.796 228.087 116.942C227.761 117.088 227.469 117.298 227.226 117.559C226.984 117.82 226.796 118.128 226.675 118.463C226.553 118.798 226.501 119.154 226.519 119.51Z" fill="#263238"/>
<path d="M220.339 111.31C220.719 111.63 222.659 109.86 225.649 109.55C228.639 109.24 230.979 110.55 231.269 110.1C231.409 109.93 230.989 109.31 229.959 108.71C228.573 107.954 226.988 107.644 225.419 107.82C223.866 107.98 222.403 108.628 221.239 109.67C220.389 110.48 220.149 111.16 220.339 111.31Z" fill="#263238"/>
<path d="M252.909 117.27C252.978 118 253.331 118.673 253.893 119.145C254.454 119.616 255.179 119.848 255.909 119.79C256.265 119.781 256.616 119.701 256.94 119.554C257.265 119.408 257.557 119.198 257.799 118.937C258.041 118.676 258.229 118.37 258.351 118.035C258.473 117.701 258.527 117.345 258.509 116.99C258.441 116.259 258.088 115.584 257.527 115.111C256.966 114.638 256.241 114.404 255.509 114.46C255.153 114.47 254.802 114.551 254.478 114.699C254.153 114.846 253.861 115.057 253.619 115.319C253.377 115.58 253.19 115.888 253.068 116.223C252.946 116.558 252.892 116.914 252.909 117.27Z" fill="#263238"/>
<path d="M249.73 109.43C250.11 109.76 252.06 107.98 255.04 107.67C258.02 107.36 260.38 108.67 260.66 108.23C260.8 108.05 260.39 107.43 259.36 106.84C257.972 106.08 256.382 105.769 254.81 105.95C253.255 106.103 251.789 106.752 250.63 107.8C249.79 108.6 249.55 109.29 249.73 109.43Z" fill="#263238"/>
<path d="M241.429 133.52C241.429 133.35 239.539 133.22 236.489 133.15C235.719 133.15 234.979 133.08 234.799 132.57C234.648 131.791 234.742 130.984 235.069 130.26L236.709 124.26C238.969 115.66 240.519 108.62 240.179 108.53C239.839 108.44 237.709 115.34 235.449 123.95L233.909 130C233.533 130.96 233.504 132.022 233.829 133C233.966 133.261 234.16 133.486 234.398 133.66C234.635 133.833 234.909 133.95 235.199 134C235.634 134.054 236.074 134.054 236.509 134C239.559 133.87 241.439 133.69 241.429 133.52Z" fill="#263238"/>
<path d="M250.44 134.66C249.95 134.66 250.29 137.92 247.76 140.52C245.23 143.12 241.76 143.12 241.76 143.58C241.76 143.78 242.59 144.13 244.06 144.01C245.953 143.832 247.723 142.993 249.06 141.64C250.335 140.331 251.052 138.578 251.06 136.75C251.11 135.38 250.66 134.62 250.44 134.66Z" fill="#263238"/>
<path d="M248.62 97.2898C249 98.0698 251.94 97.3698 255.49 97.4298C259.04 97.4898 261.98 98.1398 262.36 97.3598C262.53 96.9898 261.96 96.2798 260.73 95.6098C259.098 94.8187 257.308 94.4077 255.495 94.4077C253.682 94.4077 251.892 94.8187 250.26 95.6098C249 96.2098 248.45 96.9198 248.62 97.2898Z" fill="#263238"/>
<path d="M220.53 101.25C221.12 101.87 223.11 100.95 225.58 100.65C228.05 100.35 230.2 100.65 230.58 99.8699C230.76 99.4999 230.36 98.8699 229.38 98.3099C228.067 97.6696 226.594 97.4332 225.146 97.6308C223.699 97.8284 222.343 98.4511 221.25 99.4199C220.47 100.21 220.26 100.94 220.53 101.25Z" fill="#263238"/>
<path d="M282.649 117.11C282.969 116.93 295.589 111.75 296.569 125.11C297.549 138.47 283.999 136.65 283.909 136.27C283.819 135.89 282.649 117.11 282.649 117.11Z" fill="#FFBF9D"/>
<path d="M287.609 130.92C287.669 130.92 287.849 131.06 288.259 131.21C288.829 131.407 289.453 131.375 289.999 131.12C291.369 130.5 292.389 128.18 292.279 125.77C292.233 124.623 291.929 123.502 291.389 122.49C291.233 122.083 290.98 121.72 290.653 121.433C290.325 121.146 289.933 120.942 289.509 120.84C289.238 120.786 288.957 120.83 288.716 120.964C288.474 121.097 288.288 121.312 288.189 121.57C288.029 121.96 288.139 122.22 288.069 122.25C287.999 122.28 287.769 122.04 287.829 121.49C287.882 121.152 288.047 120.841 288.299 120.61C288.647 120.307 289.099 120.153 289.559 120.18C290.115 120.245 290.643 120.454 291.094 120.785C291.544 121.117 291.901 121.559 292.129 122.07C292.786 123.182 293.157 124.439 293.209 125.73C293.319 128.42 292.129 131.04 290.209 131.73C289.86 131.861 289.485 131.913 289.113 131.88C288.74 131.847 288.38 131.731 288.059 131.54C287.659 131.24 287.569 130.94 287.609 130.92Z" fill="#FF9A6C"/>
<path d="M222.539 81C220.309 79.94 226.339 72.53 231.539 69.78C239.329 65.63 251.429 62.6 258.959 64.22C268.029 66.22 275.709 70.12 280.699 77.94C285.689 85.76 287.979 95.09 288.319 104.36C288.419 107.19 288.319 110.15 286.959 112.63C285.289 115.7 281.829 117.79 282.249 121.85C282.349 122.583 282.302 123.329 282.109 124.043C281.917 124.757 281.584 125.426 281.129 126.01C278.849 128.77 275.709 126.52 274.179 124.16C270.909 119.16 270.179 112.91 269.539 106.93C269.079 102.69 268.629 98.35 269.539 94.19C270.039 91.92 270.959 89.75 271.339 87.46C271.719 85.17 271.489 82.62 269.969 80.86C269.615 80.4908 269.227 80.156 268.809 79.86C266.842 78.3499 264.507 77.3925 262.046 77.0866C259.585 76.7807 257.087 77.1375 254.809 78.12C247.459 81.26 234.889 86.06 231.369 83.72C226.319 80.36 224.999 78 224.999 78L222.539 81Z" fill="#263238"/>
<path d="M208.92 198.08C208.15 199.15 197.22 202.78 193.07 209.69C188.92 216.6 184.82 247.62 184.82 247.62L182.18 268C187.38 276.22 194.36 287.11 201.76 294.79L208.92 198.08Z" fill="#455A64"/>
<g opacity="0.3">
<path d="M291.05 228C291.345 232.183 292.137 236.315 293.41 240.31C294.84 244.24 297.35 247.94 301.02 249.97C302.55 250.81 304.28 251.37 305.57 252.57C306.86 253.77 307.64 255.71 308.89 257.12C310.454 258.671 312.383 259.802 314.5 260.41C320.457 262.594 326.778 263.613 333.12 263.41C333.32 261.27 333.33 253.41 333.53 251.26L291.05 228Z" fill="black"/>
</g>
<path d="M324.699 183.06C324.699 183.06 338.479 187.14 342.519 193.01C346.559 198.88 353.709 221.64 355.179 225.86C356.649 230.08 355.359 239.86 352.609 246.86C349.859 253.86 345.079 259.95 336.829 260.86C328.579 261.77 315.539 257.01 312.599 253.86C309.659 250.71 308.449 243.74 308.449 243.74C312.113 243.098 315.726 242.192 319.259 241.03" fill="#455A64"/>
<path d="M319.259 241.1L319.089 241.17L318.569 241.36C318.109 241.52 317.419 241.75 316.509 242.02C313.88 242.806 311.209 243.447 308.509 243.94L308.619 243.79C308.954 245.508 309.426 247.197 310.029 248.84C310.358 249.771 310.756 250.677 311.219 251.55C311.694 252.483 312.319 253.331 313.069 254.06C313.916 254.787 314.85 255.405 315.849 255.9C316.905 256.454 317.99 256.952 319.099 257.39C321.479 258.342 323.926 259.117 326.419 259.71C329.11 260.37 331.868 260.723 334.639 260.76C335.36 260.766 336.081 260.733 336.799 260.66C337.523 260.577 338.241 260.45 338.949 260.28C340.402 259.953 341.797 259.411 343.089 258.67C345.779 257.114 348.038 254.911 349.659 252.26C351.374 249.507 352.687 246.524 353.559 243.4C354.271 241 354.802 238.55 355.149 236.07C355.521 233.669 355.642 231.236 355.509 228.81C355.43 227.643 355.191 226.492 354.799 225.39C354.419 224.27 354.049 223.16 353.689 222.06L351.539 215.63C350.119 211.45 348.719 207.5 347.319 203.83C346.09 200.415 344.609 197.096 342.889 193.9C342.094 192.542 341.033 191.358 339.769 190.42C338.668 189.544 337.497 188.758 336.269 188.07C334.296 186.945 332.256 185.943 330.159 185.07C328.439 184.36 327.079 183.86 326.159 183.53L325.109 183.16C324.984 183.127 324.864 183.08 324.749 183.02C324.875 183.036 324.999 183.067 325.119 183.11L326.189 183.43C327.129 183.73 328.509 184.2 330.249 184.88C332.364 185.715 334.424 186.68 336.419 187.77C337.669 188.458 338.863 189.244 339.989 190.12C341.29 191.075 342.385 192.282 343.209 193.67C344.968 196.883 346.479 200.226 347.729 203.67C349.159 207.33 350.569 211.29 351.999 215.47C352.709 217.56 353.429 219.71 354.169 221.9C354.539 222.99 354.909 224.1 355.279 225.22C355.69 226.36 355.943 227.551 356.029 228.76C356.171 231.222 356.054 233.692 355.679 236.13C355.326 238.636 354.788 241.113 354.069 243.54C353.176 246.717 351.829 249.748 350.069 252.54C348.402 255.262 346.077 257.521 343.309 259.11C341.975 259.869 340.536 260.425 339.039 260.76C338.311 260.933 337.573 261.064 336.829 261.15C336.089 261.15 335.349 261.28 334.629 261.25C331.82 261.199 329.025 260.83 326.299 260.15C323.783 259.547 321.316 258.754 318.919 257.78C317.803 257.328 316.711 256.818 315.649 256.25C314.62 255.735 313.659 255.093 312.789 254.34C312.015 253.574 311.373 252.685 310.889 251.71C310.425 250.824 310.027 249.905 309.699 248.96C309.113 247.287 308.655 245.572 308.329 243.83V243.7H308.459C311.979 243.09 314.679 242.4 316.509 241.9L318.589 241.31L319.119 241.16C319.199 241.1 319.259 241.09 319.259 241.1Z" fill="#263238"/>
<path d="M344.549 233.73C344.449 233.73 344.129 232.03 342.979 229.49C341.469 226.188 339.36 223.194 336.759 220.66C335.318 219.288 333.688 218.13 331.919 217.22L330.709 216.68C330.309 216.5 329.889 216.42 329.509 216.29C328.79 216.063 328.049 215.909 327.299 215.83L326.799 215.76H325.439C324.97 215.753 324.501 215.793 324.039 215.88C323.638 215.96 323.229 216.004 322.819 216.01C323.198 215.853 323.594 215.742 323.999 215.68C324.465 215.548 324.946 215.477 325.429 215.47H326.329H326.819L327.339 215.53C328.114 215.584 328.882 215.718 329.629 215.93C330.049 216.035 330.463 216.162 330.869 216.31L332.129 216.85C333.964 217.756 335.65 218.936 337.129 220.35C339.787 222.918 341.893 226.001 343.319 229.41C343.574 229.99 343.794 230.584 343.979 231.19C344.134 231.645 344.26 232.109 344.359 232.58C344.459 232.956 344.523 233.341 344.549 233.73Z" fill="#263238"/>
<path d="M352.07 221.36C351.502 219.905 350.805 218.503 349.99 217.17C347.918 214.007 344.816 211.658 341.21 210.52C336.98 209.23 332.87 209.63 330 209.9L326.57 210.31C326.154 210.385 325.732 210.422 325.31 210.42C325.705 210.266 326.118 210.162 326.54 210.11C327.34 209.95 328.54 209.74 329.96 209.54C333.75 208.878 337.638 209.042 341.36 210.02C343.397 210.633 345.289 211.653 346.92 213.02C348.255 214.155 349.396 215.499 350.3 217C350.918 217.985 351.412 219.043 351.77 220.15C351.916 220.541 352.017 220.947 352.07 221.36Z" fill="#263238"/>
<path d="M341.68 206.57C336.289 205.299 330.654 205.52 325.38 207.21C326.072 206.759 326.831 206.421 327.63 206.21C329.522 205.628 331.482 205.292 333.46 205.21C335.438 205.14 337.417 205.321 339.35 205.75C340.163 205.905 340.949 206.182 341.68 206.57Z" fill="#263238"/>
<path d="M319.38 186.5C319.46 186.5 319.26 187.91 319.1 190.17C318.68 195.959 319.18 201.777 320.58 207.41L320.22 207.53C319.81 206.38 319.49 205.44 319.28 204.78C319.149 204.458 319.055 204.123 319 203.78C319.203 204.091 319.365 204.427 319.48 204.78C319.75 205.41 320.12 206.33 320.58 207.47L320.22 207.58C319.428 204.813 318.902 201.977 318.65 199.11C318.388 196.144 318.415 193.16 318.73 190.2C318.86 189.07 319.01 188.2 319.13 187.53C319.163 187.176 319.248 186.83 319.38 186.5Z" fill="#263238"/>
<path d="M299.89 160.85C299.89 160.85 292.74 160.85 291.84 169.44C291.15 176.04 291.84 182.44 291.84 185.34C291.84 188.24 290.57 198.51 290.57 198.51C290.57 198.51 285.69 202.84 285.77 208.04C285.85 213.24 289.57 214.86 289.57 214.86C288.946 216.471 288.808 218.23 289.175 219.919C289.541 221.608 290.394 223.152 291.63 224.36C291.63 224.36 289.56 229.15 291.26 232.36C292.239 233.957 293.768 235.141 295.56 235.69C295.266 236.322 295.112 237.01 295.107 237.706C295.102 238.403 295.246 239.093 295.531 239.729C295.815 240.365 296.233 240.932 296.755 241.393C297.278 241.854 297.893 242.197 298.56 242.4C300.962 243.144 303.478 243.452 305.99 243.31L311.33 243.21L316.03 245.81C316.03 245.81 324.09 242.3 324.29 237.55L324.5 232.8C324.5 232.8 322.19 225 322 222.5C321.81 220 323.86 214.03 322.62 211.35C321.38 208.67 317.05 207.09 317.46 203.35C317.87 199.61 317.05 197.53 315.19 195.46C313.33 193.39 305.12 189.27 305.12 189.27C305.12 189.27 303.01 183.27 303.01 179.16C303.01 175.05 307.12 162.42 299.89 160.85Z" fill="#FFBF9D"/>
<path d="M304.71 190.83C304.095 191.333 303.424 191.763 302.71 192.11C301.45 192.85 299.71 193.83 297.71 194.89C295.71 195.95 293.97 196.89 292.71 197.54C292.029 197.952 291.304 198.287 290.55 198.54C291.162 198.031 291.834 197.598 292.55 197.25C293.81 196.51 295.55 195.53 297.55 194.47C299.55 193.41 301.29 192.47 302.55 191.82C303.229 191.408 303.954 191.076 304.71 190.83Z" fill="#FF9A6C"/>
<path d="M309.409 207C309.409 207 309.209 207.23 308.779 207.56C308.182 208.029 307.561 208.466 306.919 208.87C304.808 210.223 302.562 211.356 300.219 212.25C297.876 213.159 295.447 213.829 292.969 214.25C291.969 214.4 291.239 214.49 290.709 214.52C290.432 214.572 290.147 214.572 289.869 214.52C289.869 214.44 291.029 214.28 292.869 213.89C295.296 213.38 297.679 212.685 299.999 211.81C302.314 210.915 304.554 209.838 306.699 208.59C307.575 208.014 308.479 207.484 309.409 207Z" fill="#FF9A6C"/>
<path d="M315.549 201.85C315.679 201.9 315.409 202.85 314.549 203.58C313.689 204.31 312.769 204.53 312.739 204.4C312.709 204.27 313.449 203.89 314.199 203.19C314.949 202.49 315.409 201.79 315.549 201.85Z" fill="#FF9A6C"/>
<path d="M312.6 221.15C311.64 221.616 310.634 221.985 309.6 222.25C307.14 222.982 304.634 223.553 302.1 223.96C299.566 224.373 297.007 224.613 294.44 224.68C293.376 224.762 292.307 224.728 291.25 224.58C292.301 224.43 293.359 224.344 294.42 224.32C296.42 224.18 299.07 223.92 302.02 223.45C304.97 222.98 307.6 222.37 309.5 221.89C310.518 221.583 311.553 221.336 312.6 221.15Z" fill="#FF9A6C"/>
<path d="M319.139 220C319.291 219.479 319.475 218.968 319.689 218.47C320.086 217.249 320.219 215.957 320.079 214.68C319.92 213.404 319.483 212.179 318.799 211.09C318.475 210.655 318.178 210.201 317.909 209.73C317.909 209.68 318.479 210.05 319.109 210.88C319.918 211.977 320.428 213.265 320.589 214.619C320.75 215.972 320.557 217.344 320.029 218.6C319.619 219.51 319.189 220 319.139 220Z" fill="#FF9A6C"/>
<path d="M313 235.63C312.18 235.932 311.327 236.133 310.46 236.23C308.382 236.558 306.283 236.722 304.18 236.72C302.072 236.716 299.968 236.539 297.89 236.19C297.021 236.092 296.168 235.887 295.35 235.58C296.218 235.595 297.084 235.679 297.94 235.83C300.012 236.064 302.094 236.188 304.18 236.2C306.261 236.196 308.34 236.082 310.41 235.86C311.265 235.715 312.132 235.638 313 235.63Z" fill="#FF9A6C"/>
<path d="M300.279 179.26C300.279 179.32 299.949 179.59 299.279 179.83C298.397 180.125 297.461 180.22 296.538 180.11C295.614 179.999 294.727 179.685 293.939 179.19C293.339 178.8 293.059 178.46 293.099 178.41C294.205 178.965 295.383 179.363 296.599 179.59C297.836 179.656 299.075 179.545 300.279 179.26Z" fill="#FF9A6C"/>
<path d="M320.62 220.57C320.71 220.816 320.75 221.078 320.74 221.34C320.74 222.051 320.656 222.759 320.49 223.45C320.3 224.32 319.97 225.33 319.65 226.45C319.262 227.622 319.136 228.864 319.28 230.09C319.45 231.36 320.4 232.38 320.55 233.67C320.652 234.76 320.373 235.852 319.76 236.76C319.387 237.362 318.955 237.924 318.47 238.44C318.13 238.81 317.92 238.99 317.89 238.97C317.86 238.95 318.58 238.09 319.44 236.58C319.957 235.728 320.178 234.73 320.07 233.74C319.95 232.65 318.99 231.63 318.76 230.18C318.607 228.877 318.754 227.557 319.19 226.32C319.54 225.19 319.9 224.2 320.13 223.32C320.36 222.416 320.524 221.497 320.62 220.57Z" fill="#FF9A6C"/>
<path d="M323.309 226.85C323.472 227.143 323.587 227.461 323.649 227.79C323.829 228.4 324.069 229.3 324.289 230.42C324.561 231.738 324.721 233.076 324.769 234.42C324.855 236.101 324.547 237.779 323.869 239.32C323.082 240.796 322.04 242.119 320.789 243.23C319.795 244.136 318.735 244.968 317.619 245.72C316.669 246.37 315.869 246.85 315.309 247.16C315.034 247.346 314.735 247.494 314.419 247.6C314.369 247.53 315.569 246.77 317.419 245.42C318.492 244.639 319.515 243.791 320.479 242.88C321.668 241.793 322.662 240.512 323.419 239.09C324.06 237.619 324.364 236.024 324.309 234.42C324.286 233.096 324.166 231.776 323.949 230.47C323.559 228.24 323.229 226.87 323.309 226.85Z" fill="#263238"/>
<path d="M247.86 193.56C247.444 193.315 247.055 193.027 246.7 192.7L243.7 190.19L241.62 188.44C241.265 188.107 240.868 187.821 240.44 187.59C240.233 187.484 240.003 187.428 239.77 187.428C239.537 187.428 239.307 187.484 239.1 187.59C238.24 188.04 237.66 189.14 236.93 190.06C236.2 190.98 235.48 192.06 234.72 193.06C233.52 194.68 232.35 196.23 231.28 197.67L230.63 198.53L230.84 197.47C231.413 194.496 232.246 191.578 233.33 188.75C233.73 187.75 234.09 186.89 234.33 186.34C234.442 186.044 234.594 185.765 234.78 185.51C234.711 185.815 234.614 186.113 234.49 186.4C234.28 186.97 233.97 187.8 233.61 188.86C232.632 191.702 231.867 194.614 231.32 197.57L230.87 197.37L234.3 192.75L236.51 189.75L237.57 188.34C237.906 187.839 238.359 187.427 238.89 187.14C239.168 187.018 239.47 186.961 239.773 186.973C240.076 186.985 240.373 187.066 240.64 187.21C241.094 187.466 241.514 187.778 241.89 188.14L243.89 189.94L246.81 192.57C247.185 192.872 247.537 193.203 247.86 193.56Z" fill="#263238"/>
<path d="M290.08 185.11C289.964 185.242 289.833 185.359 289.69 185.46L288.51 186.38L284.1 189.69L269.39 200.52L269.17 200.68L269.02 200.45C268.9 200.27 268.78 200.07 268.65 199.88L261.27 188.22L261.54 188.31C258.696 189.44 255.953 190.808 253.34 192.4C252.4 192.97 251.67 193.4 251.17 193.77C250.927 193.953 250.665 194.111 250.39 194.24C250.602 194.02 250.836 193.822 251.09 193.65C251.57 193.3 252.28 192.79 253.21 192.18C255.79 190.501 258.522 189.068 261.37 187.9L261.54 187.83L261.64 187.98C263.81 191.35 266.36 195.34 269.09 199.6C269.22 199.79 269.34 199.99 269.46 200.17L269.08 200.1L283.89 189.4L288.39 186.21L289.63 185.37C289.92 185.18 290.07 185.09 290.08 185.11Z" fill="#263238"/>
<path d="M200.329 224.88C200.375 225.11 200.395 225.345 200.389 225.58C200.389 226.1 200.389 226.77 200.439 227.58C200.439 229.39 200.529 231.92 200.579 235.02C200.699 241.3 200.949 250.02 201.279 259.57C201.609 269.12 201.799 277.84 201.819 284.13C201.819 287.28 201.819 289.82 201.819 291.58C201.819 292.41 201.819 293.09 201.769 293.58C201.78 293.818 201.763 294.056 201.719 294.29C201.705 294.053 201.705 293.816 201.719 293.58C201.719 293.07 201.719 292.39 201.659 291.58C201.659 289.76 201.579 287.23 201.519 284.14C201.409 277.85 201.149 269.14 200.829 259.58C200.509 250.02 200.309 241.31 200.289 235.02C200.289 231.88 200.289 229.33 200.289 227.58C200.289 226.74 200.289 226.07 200.289 225.58C200.288 225.346 200.301 225.112 200.329 224.88Z" fill="#263238"/>
<path d="M248.189 315.2C248.156 315.11 248.136 315.016 248.129 314.92C248.129 314.7 248.129 314.42 248.039 314.07C247.959 313.28 247.849 312.19 247.719 310.8C247.439 307.96 247.119 303.8 246.799 298.75C246.479 293.7 246.209 287.58 246.039 280.84C245.869 274.1 245.849 266.67 246.039 258.84C246.229 251.01 246.579 243.64 247.039 236.91C247.499 230.18 248.039 224.12 248.579 219.05C249.119 213.98 249.579 209.87 250.019 207.05C250.219 205.66 250.369 204.58 250.479 203.8C250.539 203.45 250.579 203.17 250.619 202.95C250.624 202.854 250.645 202.759 250.679 202.67C250.695 202.766 250.695 202.864 250.679 202.96C250.679 203.18 250.629 203.46 250.599 203.81C250.509 204.59 250.389 205.68 250.229 207.07C249.889 209.91 249.449 214.01 248.959 219.07C248.469 224.13 247.959 230.2 247.529 236.93C247.099 243.66 246.769 251.07 246.589 258.85C246.409 266.63 246.459 274.04 246.589 280.78C246.719 287.52 246.969 293.58 247.249 298.67C247.529 303.76 247.779 307.89 247.999 310.73C248.089 312.12 248.169 313.22 248.219 314.01C248.219 314.36 248.219 314.64 248.269 314.86C248.252 314.975 248.225 315.089 248.189 315.2Z" fill="#263238"/>
<path d="M218.389 151.52L217.329 152.22L214.209 154.22C212.829 155.11 211.209 156.38 209.309 157.78C208.309 158.5 207.389 159.37 206.309 160.25L204.679 161.62C204.119 162.1 203.589 162.62 203.019 163.17C197.489 168.329 192.63 174.165 188.559 180.54L186.779 183.4C186.149 184.35 185.669 185.4 185.089 186.4C184.509 187.4 183.939 188.48 183.419 189.58C182.899 190.68 182.419 191.81 181.879 192.95C181.629 193.52 181.349 194.08 181.109 194.67C180.869 195.26 180.659 195.86 180.429 196.47C179.979 197.67 179.499 198.88 179.059 200.13C178.319 202.66 177.379 205.22 176.819 207.95C173.969 219.762 173.493 232.022 175.419 244.02C177.926 259.469 184.396 274.005 194.196 286.208C203.996 298.412 216.793 307.866 231.336 313.65C245.88 319.433 261.675 321.347 277.179 319.205C292.684 317.063 307.368 310.939 319.799 301.43C322.938 299.017 325.924 296.412 328.739 293.63L330.739 291.51C331.419 290.81 332.079 290.1 332.739 289.35L334.639 287.16C335.239 286.4 335.829 285.64 336.429 284.89C345.475 273.239 351.51 259.538 353.999 245C354.585 241.624 354.982 238.219 355.189 234.8C355.289 233.11 355.289 231.44 355.349 229.8C355.409 228.16 355.229 226.49 355.169 224.86C355.169 224.05 355.099 223.23 355.069 222.42C355.039 221.61 354.889 220.82 354.809 220.02C354.609 218.43 354.419 216.85 354.229 215.29C354.039 213.73 353.629 212.21 353.329 210.69C353.079 209.182 352.745 207.69 352.329 206.22L351.089 201.89C350.895 201.179 350.658 200.482 350.379 199.8C350.119 199.11 349.859 198.42 349.609 197.74C349.079 196.39 348.609 195.01 348.039 193.74C347.469 192.47 346.849 191.18 346.259 189.93C341.91 180.889 336.076 172.641 328.999 165.53C323.638 160.202 317.655 155.539 311.179 151.64L307.359 149.45C306.783 149.112 306.189 148.805 305.579 148.53L303.899 147.73L300.899 146.31C299.999 145.85 299.109 145.59 298.359 145.31L294.879 143.97L293.699 143.49L294.899 143.92L298.389 145.22C299.149 145.52 300.039 145.78 300.949 146.22L303.949 147.62L305.639 148.42C306.252 148.688 306.849 148.988 307.429 149.32L311.259 151.5C317.777 155.374 323.798 160.028 329.189 165.36C336.309 172.466 342.184 180.717 346.569 189.77C347.159 191.04 347.759 192.31 348.369 193.61C348.979 194.91 349.369 196.28 349.949 197.61L350.729 199.67C351.008 200.355 351.245 201.056 351.439 201.77C351.859 203.21 352.279 204.65 352.699 206.12C353.133 207.596 353.483 209.095 353.749 210.61C354.049 212.13 354.409 213.61 354.669 215.22C354.929 216.83 355.049 218.38 355.249 219.98C355.339 220.78 355.469 221.58 355.519 222.39C355.569 223.2 355.589 224.02 355.619 224.84C355.679 226.48 355.769 228.13 355.809 229.84C355.849 231.55 355.759 233.19 355.649 234.84C354.628 253.145 348.06 270.706 336.819 285.19L334.999 287.47L333.079 289.68C332.459 290.43 331.789 291.15 331.079 291.85L329.079 293.99C326.246 296.789 323.24 299.407 320.079 301.83C307.588 311.379 292.835 317.528 277.259 319.678C261.684 321.828 245.817 319.906 231.205 314.099C216.593 308.292 203.736 298.798 193.885 286.542C184.035 274.287 177.528 259.688 174.999 244.17C173.985 237.914 173.649 231.567 173.999 225.24C174.252 219.403 175.092 213.607 176.509 207.94C177.069 205.2 178.019 202.64 178.759 200.09C179.209 198.85 179.699 197.63 180.159 196.42C180.389 195.82 180.619 195.22 180.839 194.62C181.059 194.02 181.369 193.47 181.619 192.89C182.149 191.75 182.619 190.63 183.169 189.52C183.719 188.41 184.309 187.38 184.859 186.33C185.409 185.28 185.929 184.24 186.559 183.28L188.359 180.42C192.452 174.035 197.349 168.204 202.929 163.07C203.499 162.54 204.029 162 204.589 161.52L206.229 160.15C207.309 159.28 208.229 158.42 209.229 157.7C211.179 156.3 212.779 155.05 214.169 154.17L217.319 152.17C217.999 151.73 218.389 151.52 218.389 151.52Z" fill="#263238"/>
</svg>
