<svg width="650" height="434" viewBox="0 0 650 434" fill="none" xmlns="http://www.w3.org/2000/svg">
<path d="M489.796 30.3767L488.366 31.3387C476.302 39.442 469.438 53.404 471.033 67.7387C471.229 69.5845 471.565 71.4126 472.038 73.2074C473.831 79.7022 477.201 85.6531 481.849 90.5309C486.497 95.4087 492.279 99.0621 498.68 101.166C506.237 103.601 514.834 103.983 520.979 108.966C528.97 115.449 529.741 127.053 529.897 137.271C530.053 147.489 530.842 159.103 538.867 165.559C543.894 169.598 550.818 170.638 557.275 169.997C574.357 168.263 589.125 155.671 596.041 140.149C602.957 124.627 602.818 106.73 598.71 90.272C592.956 67.2274 579.063 45.6907 558.566 33.2974C538.07 20.904 510.778 18.7547 489.796 30.3767Z" fill="#F4F7FF"/>
<path d="M137.401 59.8521L138.831 60.8141C150.904 68.9087 157.759 82.8707 156.164 97.2141C155.959 99.0556 155.623 100.88 155.159 102.674C153.363 109.168 149.992 115.119 145.344 119.998C140.697 124.877 134.917 128.533 128.518 130.641C120.952 133.068 112.354 133.449 106.21 138.441C98.2188 144.933 97.4475 156.529 97.3002 166.755C97.1528 176.982 96.3815 188.552 88.3995 195C83.3729 199.047 76.4482 200.087 69.9915 199.446C52.8662 197.747 38.1329 185.12 31.1995 169.598C24.2662 154.076 24.4135 136.179 28.5215 119.721C34.2762 96.6681 48.1689 75.1314 68.6655 62.7467C89.1622 50.3621 116.419 48.2301 137.401 59.8521Z" fill="#F4F7FF"/>
<path d="M612.796 219.266C615.42 208.939 609.176 198.44 598.85 195.816C588.524 193.191 578.025 199.435 575.4 209.761C572.776 220.088 579.02 230.587 589.346 233.211C599.672 235.836 610.171 229.592 612.796 219.266Z" fill="#F4F7FF"/>
<path d="M40.5773 256.195C48.8196 256.195 55.5013 249.513 55.5013 241.271C55.5013 233.029 48.8196 226.347 40.5773 226.347C32.335 226.347 25.6533 233.029 25.6533 241.271C25.6533 249.513 32.335 256.195 40.5773 256.195Z" fill="#F4F7FF"/>
<path d="M630.37 404.594C630.37 404.724 493.636 404.82 325.017 404.82C156.399 404.82 19.6299 404.733 19.6299 404.594C19.6299 404.456 156.329 404.369 325.017 404.369C493.705 404.369 630.37 404.473 630.37 404.594Z" fill="#263238"/>
<path d="M401.969 75.313H230.126V132.842H401.969V75.313Z" fill="#263238"/>
<path d="M310.614 105.456C310.614 105.456 156.13 83.8672 152.438 83.1999C148.746 82.5325 320.953 48.1519 320.953 48.1519L489.563 85.9645L310.614 105.456Z" fill="#263238"/>
<path d="M401.977 94.3799L401.57 94.1633C401.301 94.0246 400.911 93.7993 400.383 93.5306C399.343 92.9846 397.783 92.1873 395.746 91.2686C389.962 88.6952 384.015 86.5036 377.945 84.7079C368.939 82.0431 359.763 79.9902 350.48 78.5633C339.119 76.7983 327.654 75.7792 316.16 75.5126C304.664 75.2451 293.166 75.9467 281.788 77.6099C272.493 78.9669 263.308 80.9944 254.306 83.6766C248.237 85.4757 242.277 87.6199 236.453 90.0986L233.723 91.3033L231.747 92.2393L230.542 92.8286C230.273 92.9673 230.126 93.0279 230.126 93.0279L230.533 92.7333L231.721 92.1006L233.679 91.1299L236.392 89.8819C242.198 87.334 248.155 85.143 254.228 83.3213C263.233 80.5932 272.428 78.5336 281.736 77.1593C293.135 75.4706 304.657 74.7574 316.177 75.0273C327.693 75.2957 339.178 76.3264 350.558 78.1126C359.852 79.5594 369.035 81.6502 378.04 84.3699C384.116 86.1905 390.059 88.4319 395.824 91.0779C397.869 92.0139 399.403 92.8113 400.435 93.4093C400.955 93.6953 401.301 93.9379 401.605 94.0853L401.977 94.3799Z" fill="#455A64"/>
<path d="M421.443 79.655C420.767 75.1743 420.221 72.3056 418.409 69.489C417.272 67.9014 415.556 66.8245 413.631 66.4905C411.707 66.1566 409.728 66.5922 408.122 67.7036L412.455 68.7349C415.766 70.5376 416.624 74.8016 416.936 78.6063C417.603 86.8519 417.37 95.1456 416.243 103.341C417.707 103.48 419.813 103.055 421.269 103.194C422.067 95.3329 422.639 87.611 421.443 79.655Z" fill="#1A43BF"/>
<path d="M419.137 106.73C422.019 106.73 424.355 104.394 424.355 101.513C424.355 98.6313 422.019 96.2954 419.137 96.2954C416.256 96.2954 413.92 98.6313 413.92 101.513C413.92 104.394 416.256 106.73 419.137 106.73Z" fill="#1A43BF"/>
<path d="M430.387 125.329C430.292 121.082 430.188 116.783 429.087 112.675C427.987 108.567 425.759 104.607 422.223 102.275L417.231 102.449C414.302 103.125 412.317 105.967 411.581 108.879C410.844 111.791 411.078 114.842 410.991 117.849C410.905 120.857 410.411 124.02 408.504 126.334C410.159 126.776 411.676 127.625 413.297 128.18C414.091 128.51 414.943 128.674 415.803 128.664C416.663 128.654 417.511 128.468 418.297 128.119C420.152 127.114 420.897 124.878 421.513 122.85C422.25 124.748 422.422 126.819 422.007 128.813C423.393 128.639 424.78 129.107 426.175 129.263C427.571 129.419 429.209 129.151 429.945 127.955C430.341 127.14 430.495 126.228 430.387 125.329Z" fill="#1A43BF"/>
<path d="M448.725 132.253H193.215V155.471H448.725V132.253Z" fill="#F5F5F5"/>
<path opacity="0.3" d="M448.725 132.253H377.425V155.471H448.725V132.253Z" fill="black"/>
<path d="M448.725 136.292C448.725 136.422 391.525 136.517 320.979 136.517C250.432 136.517 193.215 136.422 193.215 136.292C193.215 136.162 250.415 136.066 320.979 136.066C391.543 136.066 448.725 136.17 448.725 136.292Z" fill="#263238"/>
<path d="M448.725 140.244C448.725 140.374 391.525 140.469 320.979 140.469C250.432 140.469 193.215 140.374 193.215 140.244C193.215 140.114 250.415 140.019 320.979 140.019C391.543 140.019 448.725 140.123 448.725 140.244Z" fill="#263238"/>
<path d="M448.725 144.204C448.725 144.326 391.525 144.43 320.979 144.43C250.432 144.43 193.215 144.326 193.215 144.204C193.215 144.083 250.415 143.979 320.979 143.979C391.543 143.979 448.725 144.074 448.725 144.204Z" fill="#263238"/>
<path d="M448.725 148.2C448.725 148.321 391.525 148.425 320.979 148.425C250.432 148.425 193.215 148.321 193.215 148.2C193.215 148.079 250.415 147.975 320.979 147.975C391.543 147.975 448.725 148.027 448.725 148.2Z" fill="#263238"/>
<path d="M448.725 152.022C448.725 152.143 391.525 152.247 320.979 152.247C250.432 152.247 193.215 152.143 193.215 152.022C193.215 151.9 250.415 151.796 320.979 151.796C391.543 151.796 448.725 151.892 448.725 152.022Z" fill="#263238"/>
<path d="M481.494 192.278H150.254V233.644H481.494V192.278Z" fill="#455A64"/>
<path d="M408.356 225.489C408.343 225.33 408.343 225.171 408.356 225.012C408.356 224.657 408.356 224.224 408.356 223.686C408.356 222.482 408.313 220.835 408.287 218.79C408.287 214.569 408.2 208.71 408.148 201.829L408.426 202.106H392.739C392.67 202.167 393.311 201.534 393.042 201.812V205.114C393.042 206.206 393.042 207.28 393.042 208.346C393.042 210.478 393.042 212.541 393.042 214.534C393.042 218.512 393.042 222.196 392.999 225.463L392.756 225.22L404.11 225.35L407.29 225.411C407.675 225.408 408.06 225.425 408.443 225.463C408.092 225.505 407.739 225.522 407.386 225.515L404.266 225.576L392.756 225.697H392.522V225.454C392.522 222.187 392.522 218.521 392.47 214.526C392.47 212.532 392.47 210.47 392.47 208.338V205.14C392.47 204.594 392.47 204.048 392.47 203.493V201.838C392.21 202.098 392.843 201.465 392.774 201.526H408.46H408.738V201.803C408.677 208.736 408.634 214.682 408.599 218.946C408.599 220.965 408.547 222.594 408.521 223.782C408.521 224.293 408.521 224.709 408.521 225.047C408.479 225.199 408.424 225.347 408.356 225.489Z" fill="#263238"/>
<path d="M481.486 198.752H430.396V226.728H481.486V198.752Z" fill="white"/>
<path opacity="0.3" d="M481.485 192.278H423.67V233.644H481.485V192.278Z" fill="black"/>
<path d="M423.419 233.402C423.254 233.402 423.115 224.267 423.115 213.009C423.115 201.751 423.254 192.617 423.419 192.617C423.583 192.617 423.722 201.743 423.722 213.009C423.722 224.276 423.583 233.402 423.419 233.402Z" fill="#263238"/>
<path d="M481.867 205.4C481.867 205.565 470.254 205.695 455.937 205.695C441.619 205.695 430.006 205.565 430.006 205.4C430.006 205.235 441.611 205.097 455.937 205.097C470.263 205.097 481.867 205.209 481.867 205.4Z" fill="#263238"/>
<path d="M481.867 212.74C481.867 212.905 470.254 213.035 455.937 213.035C441.619 213.035 430.006 212.905 430.006 212.74C430.006 212.576 441.611 212.437 455.937 212.437C470.263 212.437 481.867 212.567 481.867 212.74Z" fill="#263238"/>
<path d="M481.867 220.202C481.867 220.367 470.254 220.506 455.937 220.506C441.619 220.506 430.006 220.367 430.006 220.202C430.006 220.038 441.611 219.908 455.937 219.908C470.263 219.908 481.867 220.038 481.867 220.202Z" fill="#263238"/>
<path d="M485.143 233.974H153.903V254.384H485.143V233.974Z" fill="#FF9A6C"/>
<path d="M485.143 236.531H411.095V251.983H485.143V236.531Z" fill="#E0E0E0"/>
<path opacity="0.3" d="M485.143 233.974H406.909V254.384H485.143V233.974Z" fill="black"/>
<path d="M406.909 254.384C406.736 254.384 406.614 249.99 406.632 244.564C406.649 239.139 406.796 234.736 406.961 234.736C407.126 234.736 407.247 239.139 407.23 244.564C407.212 249.99 407.074 254.384 406.909 254.384Z" fill="#263238"/>
<path d="M377.208 241.843H177.719V246.723H377.208V241.843Z" fill="#E0E0E0"/>
<path d="M398.849 254.228C398.849 254.392 343.954 254.522 276.259 254.522C208.563 254.522 153.66 254.392 153.66 254.228C153.66 254.063 208.537 253.924 276.259 253.924C343.98 253.924 398.849 254.054 398.849 254.228Z" fill="#263238"/>
<path d="M407.724 254.323C407.724 254.488 352.829 254.618 285.134 254.618C217.438 254.618 162.535 254.488 162.535 254.323C162.535 254.159 217.412 254.02 285.134 254.02C352.855 254.02 407.724 254.159 407.724 254.323Z" fill="#263238"/>
<path d="M485.143 233.827C485.143 233.991 412.915 234.121 323.848 234.121C234.781 234.121 162.535 233.991 162.535 233.827C162.535 233.662 234.737 233.523 323.848 233.523C412.958 233.523 485.143 233.653 485.143 233.827Z" fill="#263238"/>
<path d="M459.455 363.506H128.215V383.916H459.455V363.506Z" fill="#E0E0E0"/>
<path d="M459.446 366.062H385.398V381.515H459.446V366.062Z" fill="#E0E0E0"/>
<path opacity="0.3" d="M459.446 363.506H381.212V383.916H459.446V363.506Z" fill="black"/>
<path d="M381.212 383.933C381.047 383.933 380.926 379.53 380.943 374.114C380.96 368.697 381.099 364.286 381.272 364.286C381.446 364.286 381.558 368.688 381.541 374.114C381.524 379.539 381.385 383.933 381.212 383.933Z" fill="#263238"/>
<path d="M351.521 371.367H152.031V376.246H351.521V371.367Z" fill="white"/>
<path d="M373.161 383.751C373.161 383.925 318.267 384.055 250.571 384.055C182.876 384.055 127.973 383.925 127.973 383.751C127.973 383.578 182.85 383.457 250.571 383.457C318.293 383.457 373.161 383.587 373.161 383.751Z" fill="#263238"/>
<path d="M382.035 383.846C382.035 384.02 327.141 384.15 259.445 384.15C191.75 384.15 136.838 384.02 136.838 383.846C136.838 383.673 191.724 383.552 259.445 383.552C327.167 383.552 382.035 383.682 382.035 383.846Z" fill="#263238"/>
<path d="M459.446 363.35C459.446 363.523 387.227 363.653 298.151 363.653C209.075 363.653 136.838 363.523 136.838 363.35C136.838 363.177 209.049 363.055 298.151 363.055C387.253 363.055 459.446 363.185 459.446 363.35Z" fill="#263238"/>
<path d="M564.373 384.002H95.2988V404.412H564.373V384.002Z" fill="#455A64"/>
<path d="M564.374 386.559H464.17V402.012H564.374V386.559Z" fill="#E0E0E0"/>
<path opacity="0.3" d="M564.374 384.002H458.502V404.412H564.374V384.002Z" fill="black"/>
<path d="M458.467 404.412C458.242 404.412 458.077 400.01 458.103 394.593C458.129 389.176 458.32 384.765 458.545 384.765C458.771 384.765 458.935 389.168 458.909 394.593C458.883 400.018 458.727 404.412 458.467 404.412Z" fill="#263238"/>
<path d="M418.323 391.863H148.365V396.743H418.323V391.863Z" fill="#E0E0E0"/>
<path d="M459.611 404.343C459.611 404.516 385.329 404.646 293.722 404.646C202.116 404.646 127.808 404.516 127.808 404.343C127.808 404.17 202.072 404.048 293.722 404.048C385.372 404.048 459.611 404.178 459.611 404.343Z" fill="#263238"/>
<path d="M564.374 383.846C564.374 384.02 466.64 384.15 346.104 384.15C225.568 384.15 127.808 384.02 127.808 383.846C127.808 383.673 225.524 383.552 346.104 383.552C466.683 383.552 564.374 383.682 564.374 383.846Z" fill="#263238"/>
<path d="M364.382 300.3H473.772V260.182H364.382V300.3Z" fill="#EBEBEB"/>
<path d="M125.095 261.69L473.781 261.69V253.283L125.095 253.283V261.69Z" fill="#455A64"/>
<path d="M125.095 306.904L473.781 306.904V298.497L125.095 298.497V306.904Z" fill="#455A64"/>
<path d="M367.883 255.285L367.337 305.309H125.086V255.285H367.883Z" fill="#455A64"/>
<path d="M307.658 294.961C314.024 294.961 319.185 289.389 319.185 282.516C319.185 275.642 314.024 270.07 307.658 270.07C301.292 270.07 296.132 275.642 296.132 282.516C296.132 289.389 301.292 294.961 307.658 294.961Z" fill="#263238"/>
<path d="M294.338 282.533C294.338 274.681 300.318 268.303 307.659 268.303C314.999 268.303 320.971 274.681 320.971 282.533C320.971 290.385 314.999 296.747 307.667 296.747C300.335 296.747 294.338 290.333 294.338 282.533ZM297.917 282.533C297.917 288.409 302.251 293.193 307.659 293.193C313.067 293.193 317.391 288.409 317.391 282.533C317.391 276.657 313.058 271.873 307.659 271.873C302.259 271.873 297.917 276.64 297.917 282.533Z" fill="#E0E0E0"/>
<path d="M162.439 294.927H258.535V268.155H162.439V294.927Z" fill="white"/>
<path d="M243.534 292.205C244.054 292.205 244.47 287.43 244.47 281.536C244.47 275.643 244.054 270.876 243.534 270.876C243.014 270.876 242.606 275.652 242.606 281.536C242.606 287.421 243.048 292.205 243.534 292.205Z" fill="#E0E0E0"/>
<path d="M230.854 292.205C231.374 292.205 231.79 287.43 231.79 281.536C231.79 275.643 231.374 270.876 230.854 270.876C230.334 270.876 229.927 275.652 229.927 281.536C229.927 287.421 230.343 292.205 230.854 292.205Z" fill="#E0E0E0"/>
<path d="M218.149 292.205C218.66 292.205 219.085 287.43 219.085 281.536C219.085 275.643 218.66 270.876 218.149 270.876C217.638 270.876 217.222 275.652 217.222 281.536C217.222 287.421 217.638 292.205 218.149 292.205Z" fill="#E0E0E0"/>
<path d="M205.444 292.205C205.955 292.205 206.371 287.43 206.371 281.536C206.371 275.643 205.955 270.876 205.444 270.876C204.932 270.876 204.508 275.652 204.508 281.536C204.508 287.421 204.932 292.205 205.444 292.205Z" fill="#E0E0E0"/>
<path d="M192.738 292.205C193.249 292.205 193.665 287.43 193.665 281.536C193.665 275.643 193.249 270.876 192.738 270.876C192.226 270.876 191.802 275.652 191.802 281.536C191.802 287.421 192.218 292.205 192.738 292.205Z" fill="#E0E0E0"/>
<path d="M180.033 292.205C180.544 292.205 180.96 287.43 180.96 281.536C180.96 275.643 180.544 270.876 180.033 270.876C179.521 270.876 179.097 275.652 179.097 281.536C179.097 287.421 179.513 292.205 180.033 292.205Z" fill="#E0E0E0"/>
<path d="M367.294 299.329C367.164 299.329 367.068 290.905 367.068 280.514C367.068 270.123 367.164 261.69 367.294 261.69C367.424 261.69 367.519 270.114 367.519 280.514C367.519 290.914 367.415 299.329 367.294 299.329Z" fill="#263238"/>
<path d="M471.718 268.025C471.718 268.155 448.466 268.25 419.77 268.25C391.075 268.25 367.822 268.155 367.822 268.025C367.822 267.895 391.075 267.8 419.77 267.8C448.466 267.8 471.718 267.904 471.718 268.025Z" fill="#263238"/>
<path d="M471.718 274.109C471.718 274.23 448.466 274.334 419.77 274.334C391.075 274.334 367.822 274.23 367.822 274.109C367.822 273.988 391.075 273.884 419.77 273.884C448.466 273.884 471.718 273.979 471.718 274.109Z" fill="#263238"/>
<path d="M471.718 280.184C471.718 280.306 448.466 280.41 419.77 280.41C391.075 280.41 367.822 280.306 367.822 280.184C367.822 280.063 391.075 279.959 419.77 279.959C448.466 279.959 471.718 280.063 471.718 280.184Z" fill="#263238"/>
<path d="M471.718 286.26C471.718 286.39 448.466 286.485 419.77 286.485C391.075 286.485 367.822 286.39 367.822 286.26C367.822 286.13 391.075 286.035 419.77 286.035C448.466 286.035 471.718 286.139 471.718 286.26Z" fill="#263238"/>
<path d="M471.718 292.335C471.718 292.465 448.466 292.561 419.77 292.561C391.075 292.561 367.822 292.465 367.822 292.335C367.822 292.205 391.075 292.11 419.77 292.11C448.466 292.11 471.718 292.214 471.718 292.335Z" fill="#263238"/>
<path opacity="0.3" d="M473.772 253.145H360.889V306.904H473.772V253.145Z" fill="black"/>
<path d="M466.214 155.428H183.915V192.408H466.214V155.428Z" fill="#1A43BF"/>
<path d="M466.206 160.645H403.85V186.905H466.206V160.645Z" fill="#F5F5F5"/>
<path opacity="0.3" d="M466.215 155.428H397.003V192.408H466.215V155.428Z" fill="black"/>
<path d="M378.014 184.297C378.014 184.297 378.014 183.941 378.014 183.274C378.014 182.607 378.014 181.601 378.014 180.301C378.014 177.701 378.014 173.827 377.953 168.827L378.057 168.913L200.027 169.043L200.269 168.827V184.297L200.027 184.08L326.439 184.175L364.243 184.236H374.478H377.147H378.066H377.199H374.599H364.407L326.664 184.297L200.079 184.392H199.845V168.619H200.087L378.118 168.74H378.213V168.827C378.213 173.853 378.213 177.727 378.153 180.353C378.153 181.645 378.153 182.633 378.153 183.3C378.153 183.967 378.014 184.297 378.014 184.297Z" fill="#263238"/>
<path d="M397.246 192.166C397.107 192.166 397.003 183.872 397.003 173.654C397.003 163.436 397.107 155.15 397.246 155.15C397.384 155.15 397.48 163.436 397.48 173.654C397.48 183.872 397.376 192.166 397.246 192.166Z" fill="#263238"/>
<path d="M524.134 306.055H114.66V363.185H524.134V306.055Z" fill="#1A43BF"/>
<path d="M517.452 313.196H114.66V355.827H517.452V313.196Z" fill="#F5F5F5"/>
<path d="M517.461 322.512C517.461 322.512 517.105 322.512 516.421 322.512H513.361L501.609 322.573L458.406 322.668L315.857 322.755L173.281 322.668L130.078 322.573L118.326 322.512H115.275C114.582 322.512 114.235 322.512 114.235 322.512H115.275H118.326L130.078 322.46L173.281 322.365L315.857 322.278L458.406 322.365L501.609 322.46L513.361 322.512H516.421H517.461Z" fill="#263238"/>
<path d="M517.461 333.909C517.461 333.909 517.105 333.909 516.421 333.909H513.361L501.609 333.97L458.406 334.065L315.857 334.152L173.281 334.065L130.078 333.97L118.326 333.909H115.275C114.582 333.909 114.235 333.909 114.235 333.909H115.275H118.326L130.078 333.848L173.281 333.753L315.857 333.667L458.406 333.753L501.609 333.848L513.361 333.909H516.421H517.461Z" fill="#263238"/>
<path d="M517.461 345.314H516.421H513.361L501.609 345.366L458.406 345.462L315.857 345.548L173.281 345.462L130.078 345.366L118.326 345.314H115.275H114.235C114.235 345.314 114.582 345.314 115.275 345.314H118.326L130.078 345.254L173.281 345.158L315.857 345.072L458.406 345.158L501.609 345.254L513.361 345.314H516.421C517.105 345.288 517.461 345.314 517.461 345.314Z" fill="#263238"/>
<path opacity="0.3" d="M524.134 306.055H411.173V363.185H524.134V306.055Z" fill="black"/>
<path d="M481.373 206.553C481.373 206.553 481.997 206.735 482.569 207.61C482.946 208.219 483.141 208.922 483.131 209.637C483.122 210.352 482.909 211.05 482.517 211.649L482.422 211.337C482.949 211.591 483.385 212.001 483.672 212.511C483.958 213.02 484.082 213.606 484.025 214.188C483.986 214.799 483.797 215.392 483.475 215.913C483.153 216.434 482.708 216.869 482.179 217.178C481.343 217.683 480.383 217.944 479.406 217.932C478.764 217.939 478.123 217.887 477.491 217.776C477.049 217.707 476.806 217.646 476.815 217.611C476.823 217.577 477.82 217.681 479.415 217.611C480.337 217.581 481.234 217.306 482.015 216.814C482.477 216.534 482.866 216.147 483.148 215.685C483.43 215.224 483.597 214.702 483.635 214.162C483.684 213.672 483.587 213.178 483.355 212.743C483.124 212.308 482.769 211.952 482.335 211.718L482.084 211.623L482.231 211.406C482.588 210.866 482.793 210.24 482.825 209.594C482.857 208.947 482.715 208.304 482.413 207.731C482.124 207.291 481.774 206.894 481.373 206.553Z" fill="#455A64"/>
<path d="M523.155 227.067L528.511 226.703C532.616 229.761 537.716 231.174 542.81 230.663C547.903 230.151 552.622 227.753 556.037 223.94C559.452 220.127 561.318 215.174 561.267 210.055C561.215 204.936 559.252 200.022 555.761 196.277C552.27 192.533 547.505 190.23 542.402 189.82C537.3 189.411 532.228 190.925 528.185 194.065C524.142 197.204 521.42 201.743 520.553 206.788C519.686 211.833 520.738 217.02 523.502 221.329L523.155 227.067Z" fill="white"/>
<path d="M523.155 227.067C523.143 226.949 523.143 226.83 523.155 226.712C523.155 226.443 523.155 226.079 523.198 225.619C523.198 224.614 523.311 223.176 523.397 221.286C523.399 221.274 523.402 221.261 523.408 221.25C523.414 221.239 523.422 221.229 523.431 221.221C523.441 221.213 523.452 221.207 523.464 221.203C523.476 221.2 523.489 221.198 523.501 221.2C523.521 221.193 523.542 221.193 523.562 221.2L523.415 221.321C521.577 218.516 520.461 215.301 520.165 211.961C519.98 209.772 520.138 207.567 520.633 205.426C521.21 202.988 522.23 200.676 523.64 198.606C525.209 196.319 527.215 194.366 529.542 192.86C532.053 191.208 534.902 190.139 537.879 189.731C541.05 189.3 544.278 189.597 547.317 190.598C550.512 191.685 553.395 193.534 555.715 195.985C558.036 198.436 559.726 201.414 560.638 204.664C561.483 207.772 561.605 211.034 560.993 214.197C560.408 217.175 559.155 219.981 557.327 222.404C554.149 226.728 549.412 229.644 544.119 230.534L542.386 230.733C541.814 230.785 541.251 230.733 540.705 230.785C539.645 230.799 538.587 230.717 537.541 230.542C534.24 230.019 531.118 228.691 528.45 226.677H528.511L524.498 226.893L523.467 227.067H523.137L523.501 227.024L524.541 226.937L528.485 226.608C528.507 226.599 528.532 226.599 528.554 226.608C531.217 228.557 534.313 229.832 537.576 230.326C538.608 230.483 539.652 230.556 540.696 230.542C541.233 230.542 541.788 230.542 542.351 230.473L544.085 230.265C549.269 229.358 553.9 226.478 557.007 222.231C558.783 219.855 560.001 217.109 560.569 214.197C561.161 211.093 561.037 207.894 560.205 204.846C559.318 201.672 557.67 198.762 555.405 196.368C553.14 193.975 550.325 192.169 547.205 191.109C544.236 190.125 541.083 189.829 537.983 190.242C535.071 190.635 532.282 191.671 529.819 193.276C527.537 194.749 525.565 196.654 524.013 198.883C522.621 200.908 521.607 203.169 521.023 205.556C520.526 207.661 520.356 209.83 520.52 211.987C520.783 215.287 521.848 218.474 523.623 221.269C523.64 221.288 523.649 221.313 523.649 221.338C523.649 221.364 523.64 221.388 523.623 221.408C523.605 221.42 523.584 221.427 523.562 221.427C523.54 221.427 523.519 221.42 523.501 221.408L523.666 221.338C523.527 223.17 523.423 224.582 523.354 225.576C523.354 226.044 523.285 226.443 523.259 226.686C523.233 226.928 523.155 227.067 523.155 227.067Z" fill="#263238"/>
<path d="M536.172 211.129C536.174 211.574 536.043 212.009 535.797 212.379C535.551 212.75 535.201 213.039 534.79 213.21C534.38 213.381 533.928 213.426 533.492 213.34C533.055 213.253 532.654 213.039 532.34 212.725C532.026 212.411 531.812 212.01 531.725 211.574C531.639 211.137 531.684 210.685 531.855 210.275C532.026 209.864 532.315 209.514 532.686 209.268C533.056 209.022 533.491 208.891 533.936 208.893C534.23 208.893 534.52 208.951 534.792 209.063C535.063 209.176 535.309 209.34 535.517 209.548C535.725 209.756 535.889 210.002 536.002 210.273C536.114 210.545 536.172 210.835 536.172 211.129Z" fill="#263238"/>
<path d="M543.712 211.129C543.714 211.574 543.583 212.009 543.337 212.379C543.091 212.75 542.741 213.039 542.33 213.21C541.92 213.381 541.468 213.426 541.032 213.34C540.595 213.253 540.195 213.039 539.88 212.725C539.566 212.411 539.352 212.01 539.265 211.574C539.179 211.137 539.224 210.685 539.395 210.275C539.566 209.864 539.855 209.514 540.226 209.268C540.596 209.022 541.031 208.891 541.476 208.893C541.77 208.893 542.06 208.951 542.332 209.063C542.603 209.176 542.849 209.34 543.057 209.548C543.265 209.756 543.429 210.002 543.542 210.273C543.654 210.545 543.712 210.835 543.712 211.129Z" fill="#263238"/>
<path d="M551.053 211.129C551.055 211.574 550.924 212.009 550.678 212.379C550.432 212.75 550.082 213.039 549.671 213.21C549.261 213.381 548.809 213.426 548.372 213.34C547.936 213.253 547.535 213.039 547.221 212.725C546.907 212.411 546.693 212.01 546.606 211.574C546.52 211.137 546.565 210.685 546.736 210.275C546.907 209.864 547.196 209.514 547.566 209.268C547.937 209.022 548.372 208.891 548.817 208.893C549.11 208.893 549.401 208.951 549.672 209.063C549.944 209.176 550.19 209.34 550.398 209.548C550.606 209.756 550.77 210.002 550.883 210.273C550.995 210.545 551.053 210.835 551.053 211.129Z" fill="#263238"/>
<path d="M124.939 164.251L119.574 163.878C115.469 166.937 110.369 168.349 105.275 167.838C100.181 167.327 95.4633 164.929 92.048 161.115C88.6327 157.302 86.7673 152.349 86.8184 147.23C86.8695 142.112 88.8334 137.197 92.3241 133.453C95.8149 129.708 100.58 127.405 105.683 126.995C110.785 126.586 115.857 128.1 119.9 131.24C123.943 134.38 126.665 138.918 127.532 143.964C128.399 149.009 127.347 154.196 124.583 158.505L124.939 164.251Z" fill="white"/>
<path d="M124.939 164.251C124.939 164.251 124.939 164.138 124.939 163.896C124.939 163.653 124.939 163.263 124.895 162.804C124.895 161.79 124.783 160.351 124.696 158.47C124.696 158.458 124.693 158.445 124.689 158.434C124.684 158.422 124.677 158.412 124.668 158.403C124.659 158.394 124.649 158.387 124.637 158.382C124.625 158.377 124.613 158.375 124.601 158.375C124.578 158.366 124.554 158.366 124.531 158.375L124.687 158.505C126.522 155.696 127.635 152.478 127.929 149.136C128.348 144.418 127.124 139.699 124.462 135.781C122.888 133.496 120.879 131.544 118.551 130.035C116.039 128.386 113.191 127.317 110.214 126.906C107.043 126.48 103.816 126.777 100.776 127.773C97.578 128.856 94.693 130.703 92.3715 133.154C90.05 135.606 88.3624 138.587 87.4552 141.839C86.6088 144.948 86.4873 148.209 87.0999 151.372C87.6889 154.349 88.942 157.154 90.7659 159.58C92.4311 161.824 94.5256 163.715 96.9279 165.144C99.0994 166.431 101.487 167.312 103.974 167.744L105.707 167.952C106.279 168.004 106.843 167.952 107.389 168.004C108.451 168.01 109.512 167.926 110.561 167.752C113.838 167.241 116.941 165.938 119.6 163.956H119.531L123.543 164.182H124.566H124.904C124.781 164.156 124.657 164.141 124.531 164.138L123.491 164.043L119.6 163.8H119.531C116.867 165.749 113.772 167.025 110.509 167.518C109.476 167.676 108.433 167.748 107.389 167.735C106.851 167.735 106.297 167.735 105.742 167.674L104.009 167.458C101.56 167.039 99.2093 166.173 97.0752 164.901C94.7107 163.494 92.6486 161.633 91.0086 159.424C89.234 157.046 88.0166 154.301 87.4466 151.39C86.856 148.285 86.9805 145.087 87.8106 142.038C88.6976 138.864 90.3452 135.955 92.6104 133.561C94.8756 131.167 97.6903 129.362 100.811 128.302C103.779 127.318 106.932 127.022 110.032 127.435C112.945 127.83 115.734 128.869 118.196 130.477C120.481 131.942 122.455 133.845 124.003 136.076C125.395 138.104 126.408 140.368 126.993 142.758C127.494 144.859 127.664 147.026 127.495 149.18C127.232 152.48 126.167 155.666 124.393 158.462C124.377 158.481 124.369 158.506 124.369 158.531C124.369 158.556 124.377 158.58 124.393 158.6C124.41 158.613 124.431 158.62 124.453 158.62C124.475 158.62 124.496 158.613 124.514 158.6L124.349 158.531C124.479 160.36 124.583 161.781 124.661 162.769C124.661 163.237 124.722 163.636 124.748 163.887C124.8 164.014 124.864 164.136 124.939 164.251Z" fill="#263238"/>
<path d="M111.912 148.296C111.91 148.74 112.041 149.175 112.286 149.545C112.532 149.915 112.882 150.204 113.292 150.376C113.702 150.547 114.153 150.592 114.589 150.507C115.025 150.421 115.426 150.208 115.741 149.895C116.056 149.581 116.27 149.181 116.358 148.745C116.445 148.31 116.401 147.858 116.231 147.447C116.062 147.037 115.774 146.686 115.405 146.438C115.035 146.191 114.601 146.06 114.157 146.06C113.563 146.06 112.993 146.295 112.573 146.714C112.152 147.133 111.914 147.702 111.912 148.296Z" fill="#263238"/>
<path d="M104.373 148.296C104.371 148.74 104.502 149.175 104.747 149.545C104.993 149.915 105.343 150.204 105.753 150.376C106.163 150.547 106.614 150.592 107.05 150.507C107.486 150.421 107.887 150.208 108.202 149.895C108.517 149.581 108.731 149.181 108.819 148.745C108.906 148.31 108.862 147.858 108.692 147.447C108.523 147.037 108.235 146.686 107.866 146.438C107.496 146.191 107.062 146.06 106.618 146.06C106.024 146.06 105.454 146.295 105.034 146.714C104.613 147.133 104.375 147.702 104.373 148.296Z" fill="#263238"/>
<path d="M97.0664 148.296C97.0647 148.74 97.1949 149.175 97.4405 149.545C97.6861 149.915 98.0361 150.204 98.4461 150.376C98.8561 150.547 99.3077 150.592 99.7437 150.507C100.18 150.421 100.58 150.208 100.895 149.895C101.21 149.581 101.425 149.181 101.512 148.745C101.599 148.31 101.555 147.858 101.386 147.447C101.216 147.037 100.928 146.686 100.559 146.438C100.19 146.191 99.7554 146.06 99.3111 146.06C98.7173 146.06 98.1476 146.295 97.7269 146.714C97.3062 147.133 97.0687 147.702 97.0664 148.296Z" fill="#263238"/>
<path d="M505.5 223.34C506.247 222.478 506.659 221.377 506.662 220.237C506.549 218.695 505.795 218.071 504.59 217.109C505.162 215.817 506.012 213.841 505.31 212.611C504.901 211.914 504.323 211.331 503.629 210.918C502.935 210.504 502.148 210.272 501.34 210.245C501.765 207.697 498.628 205.443 496.002 205.331C493.982 205.244 492.015 204.646 489.935 207.393C489.935 207.393 489.328 205.227 485.48 205.747C483.617 206.007 481.485 207.775 481.312 209.621C480.289 207.688 477.845 207.411 475.774 208.182C473.702 208.953 472.307 210.661 472.81 212.775C471.966 212.753 471.131 212.952 470.388 213.352C469.644 213.751 469.018 214.338 468.572 215.055C468.146 215.775 467.922 216.597 467.922 217.434C467.922 218.27 468.146 219.092 468.572 219.813C467.918 220.048 467.354 220.482 466.959 221.055C466.565 221.627 466.359 222.308 466.372 223.003C466.384 223.698 466.614 224.372 467.029 224.93C467.443 225.487 468.022 225.901 468.684 226.113L500.612 228.219L502.146 229.311C502.958 229.559 503.834 229.479 504.586 229.086C505.339 228.694 505.907 228.021 506.168 227.214C507 225.385 505.994 224.259 505.5 223.34Z" fill="#263238"/>
<path d="M502.736 229.918C502.693 225.617 501.031 221.49 498.08 218.36C495.129 215.231 491.106 213.329 486.815 213.035L485.948 212.966C476.294 212.775 470.738 220.766 470.816 230.23L469.698 263.657L470.695 265.858L485.151 287.802L491.157 269.888L492.102 261.395C492.102 261.395 501.453 260.693 502.285 251.619C502.666 247.242 502.753 238.151 502.736 229.918Z" fill="#AE7461"/>
<path d="M492.058 261.404C487.808 261.059 483.741 259.525 480.323 256.975C480.323 256.975 482.629 263.744 491.824 263.657L492.058 261.404Z" fill="#6F4439"/>
<path d="M499.199 238.428C499.173 238.77 499.013 239.087 498.756 239.312C498.498 239.537 498.163 239.652 497.821 239.633C497.654 239.635 497.487 239.604 497.332 239.541C497.177 239.477 497.036 239.384 496.918 239.265C496.8 239.146 496.707 239.004 496.645 238.849C496.583 238.693 496.552 238.527 496.556 238.359C496.585 238.019 496.744 237.703 497.002 237.478C497.259 237.254 497.593 237.138 497.934 237.154C498.101 237.152 498.268 237.183 498.423 237.247C498.578 237.31 498.719 237.404 498.837 237.523C498.955 237.642 499.048 237.783 499.11 237.939C499.173 238.094 499.203 238.261 499.199 238.428Z" fill="#263238"/>
<path d="M500.465 234.676C500.283 234.841 499.347 234.035 497.925 233.931C496.504 233.827 495.403 234.442 495.265 234.26C495.126 234.078 495.386 233.879 495.863 233.593C496.515 233.222 497.264 233.056 498.012 233.116C498.748 233.171 499.449 233.456 500.014 233.931C500.421 234.295 500.551 234.607 500.465 234.676Z" fill="#263238"/>
<path d="M487.17 237.787C487.143 238.128 486.984 238.445 486.727 238.671C486.469 238.896 486.134 239.011 485.792 238.992C485.624 238.994 485.458 238.963 485.303 238.9C485.148 238.836 485.007 238.742 484.889 238.624C484.771 238.505 484.678 238.363 484.616 238.208C484.553 238.052 484.523 237.886 484.527 237.718C484.555 237.378 484.715 237.062 484.972 236.837C485.229 236.613 485.564 236.496 485.905 236.513C486.072 236.511 486.238 236.542 486.394 236.606C486.549 236.669 486.69 236.763 486.808 236.882C486.926 237.001 487.019 237.142 487.081 237.298C487.143 237.453 487.173 237.62 487.17 237.787Z" fill="#263238"/>
<path d="M486.893 233.437C486.719 233.593 485.775 232.795 484.353 232.683C482.932 232.57 481.84 233.203 481.701 233.012C481.563 232.821 481.823 232.639 482.299 232.353C482.947 231.979 483.694 231.813 484.44 231.877C485.178 231.933 485.881 232.218 486.451 232.691C486.858 233.055 486.979 233.367 486.893 233.437Z" fill="#263238"/>
<path d="M490.75 244.14C491.515 243.972 492.298 243.897 493.081 243.914C493.454 243.914 493.801 243.862 493.879 243.62C493.937 243.254 493.882 242.879 493.723 242.545C493.454 241.678 493.168 240.725 492.856 239.746C491.677 235.768 490.854 232.509 491.019 232.466C491.183 232.422 492.267 235.603 493.445 239.59L494.26 242.398C494.452 242.845 494.48 243.345 494.338 243.81C494.277 243.936 494.187 244.044 494.076 244.127C493.964 244.21 493.834 244.265 493.697 244.287C493.489 244.312 493.28 244.312 493.073 244.287C492.295 244.341 491.514 244.291 490.75 244.14Z" fill="#263238"/>
<path d="M487.231 229.45C487.031 229.805 485.835 229.38 484.345 229.294C482.854 229.207 481.597 229.415 481.476 229.042C481.424 228.86 481.693 228.548 482.239 228.28C482.944 227.958 483.719 227.821 484.492 227.881C485.254 227.929 485.989 228.177 486.624 228.6C487.109 228.938 487.317 229.285 487.231 229.45Z" fill="#263238"/>
<path d="M500.448 230.828C500.197 231.149 499.217 230.828 498.03 230.828C496.843 230.828 495.855 231.045 495.621 230.715C495.525 230.559 495.681 230.239 496.115 229.935C496.701 229.572 497.382 229.388 498.072 229.407C498.762 229.425 499.431 229.645 499.997 230.039C500.413 230.343 500.552 230.672 500.448 230.828Z" fill="#263238"/>
<path d="M471.57 239.2C471.584 238.861 471.529 238.523 471.408 238.206C471.288 237.89 471.104 237.601 470.868 237.358C470.632 237.114 470.349 236.922 470.036 236.791C469.723 236.661 469.387 236.596 469.048 236.6C467.315 236.6 465.321 237.466 465.148 240.933C464.862 247.156 471.275 246.133 471.293 245.986C471.31 245.838 471.466 241.8 471.57 239.2Z" fill="#AE7461"/>
<path d="M470.028 243.603C470.028 243.603 469.915 243.672 469.725 243.741C469.588 243.801 469.44 243.832 469.291 243.832C469.142 243.832 468.995 243.801 468.858 243.741C468.464 243.471 468.149 243.101 467.946 242.668C467.744 242.235 467.66 241.756 467.705 241.28C467.713 240.743 467.844 240.216 468.087 239.737C468.157 239.545 468.272 239.372 468.423 239.233C468.574 239.095 468.756 238.994 468.953 238.94C469.082 238.911 469.216 238.928 469.334 238.989C469.451 239.049 469.543 239.148 469.595 239.269C469.673 239.451 469.595 239.573 469.655 239.581C469.716 239.59 469.803 239.486 469.759 239.226C469.733 239.069 469.65 238.927 469.525 238.827C469.444 238.757 469.348 238.704 469.246 238.671C469.143 238.639 469.035 238.627 468.927 238.637C468.667 238.673 468.42 238.776 468.21 238.935C468.001 239.095 467.836 239.305 467.731 239.547C467.435 240.077 467.275 240.673 467.263 241.28C467.209 241.835 467.321 242.393 467.585 242.884C467.849 243.374 468.253 243.775 468.745 244.036C468.913 244.094 469.093 244.115 469.269 244.095C469.446 244.076 469.617 244.017 469.768 243.923C470.011 243.75 470.054 243.611 470.028 243.603Z" fill="#6F4439"/>
<path d="M487.066 246.133C487.009 246.086 486.942 246.052 486.87 246.033C486.799 246.013 486.724 246.009 486.65 246.021C486.53 246.072 486.433 246.168 486.382 246.289C486.132 246.756 486.005 247.279 486.014 247.808C486.023 248.338 486.168 248.856 486.434 249.314C486.636 249.613 486.91 249.856 487.231 250.02C487.552 250.185 487.909 250.266 488.269 250.256C488.63 250.245 488.982 250.144 489.293 249.961C489.604 249.778 489.863 249.52 490.048 249.21L490.646 248.213L487.066 246.133Z" fill="#6F4439"/>
<path d="M489.667 249.678C489.719 249.678 489.181 250.276 488.029 250.302C487.709 250.304 487.395 250.22 487.119 250.059C486.789 249.903 486.507 249.661 486.304 249.357C485.918 248.645 485.775 247.827 485.897 247.026C485.921 246.818 485.962 246.612 486.018 246.411C486.043 246.287 486.095 246.17 486.17 246.068C486.244 245.966 486.341 245.882 486.451 245.821C486.572 245.778 486.701 245.765 486.828 245.783C486.955 245.801 487.076 245.85 487.179 245.925L487.639 246.22L489.216 247.234C489.722 247.515 490.191 247.858 490.611 248.257C490.067 248.055 489.547 247.794 489.06 247.477L487.439 246.541C487.145 246.376 486.763 246.081 486.625 246.185C486.486 246.289 486.356 246.705 486.313 247.052C486.197 247.762 486.31 248.49 486.633 249.132C486.792 249.389 487.016 249.598 487.283 249.739C487.51 249.884 487.769 249.97 488.037 249.99C488.597 250.011 489.154 249.905 489.667 249.678Z" fill="#263238"/>
<path d="M489.944 235.733C489.892 235.733 489.892 235.213 489.615 234.347C489.215 233.117 488.412 232.057 487.335 231.339C486.548 230.816 485.646 230.491 484.705 230.392C483.765 230.294 482.814 230.426 481.936 230.776C480.887 231.183 479.983 231.892 479.336 232.813C478.65 233.791 478.303 234.967 478.348 236.161C478.393 237.356 478.829 238.502 479.587 239.425C480.286 240.295 481.227 240.937 482.291 241.271C483.047 241.514 483.845 241.599 484.635 241.521C485.425 241.442 486.191 241.202 486.884 240.815C487.578 240.428 488.184 239.903 488.666 239.272C489.147 238.641 489.494 237.917 489.684 237.146C489.892 236.279 489.849 235.733 489.901 235.733C489.919 235.857 489.919 235.983 489.901 236.106C489.912 236.469 489.883 236.833 489.814 237.189C489.553 238.516 488.835 239.709 487.786 240.561C486.532 241.583 484.923 242.066 483.313 241.904C481.702 241.741 480.222 240.947 479.197 239.694C478.604 238.964 478.192 238.103 477.995 237.182C477.799 236.262 477.824 235.308 478.067 234.399C478.311 233.489 478.766 232.651 479.397 231.952C480.027 231.253 480.814 230.713 481.693 230.377C482.632 230.012 483.647 229.883 484.648 230.002C485.648 230.122 486.604 230.486 487.431 231.062C488.54 231.836 489.343 232.973 489.701 234.277C489.801 234.624 489.857 234.983 489.866 235.343C489.915 235.468 489.941 235.6 489.944 235.733Z" fill="#263238"/>
<path d="M504.747 237.007C504.747 237.007 504.747 236.487 504.426 235.612C504.175 234.86 503.772 234.166 503.243 233.575C502.714 232.984 502.07 232.507 501.35 232.173C500.631 231.84 499.85 231.657 499.057 231.635C498.264 231.614 497.475 231.755 496.739 232.05C495.706 232.465 494.817 233.173 494.182 234.087C493.501 235.067 493.157 236.242 493.203 237.435C493.248 238.628 493.68 239.774 494.433 240.699C495.134 241.566 496.075 242.208 497.137 242.545C497.893 242.787 498.691 242.871 499.48 242.792C500.27 242.713 501.035 242.473 501.728 242.086C502.421 241.699 503.027 241.174 503.509 240.544C503.991 239.913 504.339 239.19 504.53 238.42C504.738 237.553 504.703 237.007 504.747 237.007C504.784 237.128 504.799 237.254 504.79 237.38C504.806 237.741 504.777 238.102 504.703 238.455C504.44 239.775 503.719 240.96 502.667 241.8C501.412 242.823 499.803 243.306 498.193 243.143C496.583 242.981 495.103 242.186 494.078 240.933C493.494 240.202 493.091 239.344 492.901 238.428C492.711 237.511 492.74 236.563 492.986 235.661C493.232 234.758 493.687 233.926 494.315 233.232C494.943 232.538 495.726 232.003 496.6 231.669C497.537 231.298 498.551 231.167 499.551 231.287C500.551 231.406 501.506 231.773 502.329 232.353C503.44 233.124 504.244 234.263 504.599 235.569C504.697 235.916 504.755 236.274 504.773 236.635C504.788 236.759 504.78 236.886 504.747 237.007Z" fill="#263238"/>
<path d="M493.133 236.73C493.038 236.799 492.561 236.054 491.616 235.863C490.672 235.673 489.952 236.158 489.883 236.054C489.814 235.95 489.978 235.811 490.299 235.629C490.731 235.397 491.231 235.323 491.712 235.421C492.193 235.521 492.623 235.788 492.925 236.175C493.133 236.47 493.133 236.704 493.133 236.73Z" fill="#263238"/>
<path d="M478.139 235.404C476.794 235.882 475.403 236.222 473.988 236.418C472.599 236.757 471.179 236.952 469.75 236.998C472.481 236.168 475.294 235.633 478.139 235.404Z" fill="#263238"/>
<path d="M499.105 217.221C499.278 217.085 499.407 216.901 499.477 216.692C499.581 216.235 499.51 215.756 499.278 215.349C498.844 214.45 498.101 213.736 497.184 213.339C496.268 212.941 495.24 212.886 494.286 213.182C494.073 211.996 493.517 210.899 492.687 210.025C491.857 209.152 490.789 208.541 489.615 208.268C488.434 208.088 487.226 208.263 486.145 208.773C485.064 209.282 484.16 210.102 483.548 211.128C482.912 210.399 482.102 209.841 481.193 209.506C480.284 209.171 479.306 209.07 478.348 209.213C477.364 209.404 476.439 209.827 475.651 210.446C474.863 211.066 474.234 211.864 473.816 212.775C472.994 212.503 472.111 212.484 471.278 212.718C470.446 212.953 469.702 213.432 469.144 214.092C468.575 214.805 468.203 215.655 468.066 216.558C467.929 217.46 468.032 218.382 468.364 219.232C467.793 219.453 467.301 219.841 466.952 220.344C466.603 220.848 466.412 221.444 466.405 222.057C466.258 223.556 466.899 225.714 468.269 225.42C467.697 226.425 468.407 228.236 469.135 229.042C469.135 230.966 469.265 232.162 469.3 233.904C469.369 237.492 471.103 237.224 471.103 237.224C471.337 244.443 474.145 243.29 476.303 229.744C476.694 229.493 476.976 229.103 477.091 228.652C477.213 228.158 477.143 227.56 477.481 227.188C477.622 227.042 477.809 226.95 478.01 226.928C479.112 227.403 480.357 227.428 481.477 226.997C482.07 226.754 482.604 226.387 483.044 225.921C483.483 225.455 483.818 224.899 484.025 224.293C484.318 224.577 484.701 224.752 485.108 224.788C485.514 224.824 485.922 224.72 486.261 224.492C486.347 224.44 486.425 224.371 486.512 224.31C487.741 223.84 488.737 222.907 489.285 221.71C489.428 221.625 489.579 221.556 489.736 221.502C490.202 221.873 490.769 222.092 491.363 222.129C491.957 222.166 492.548 222.02 493.055 221.71C493.596 221.337 494.047 220.849 494.376 220.281C494.706 219.714 494.906 219.08 494.962 218.426C494.975 218.209 494.975 217.992 494.962 217.776C495.833 217.631 496.727 217.81 497.475 218.278C500.162 219.821 502.147 225.697 502.147 225.697C502.667 222.404 501.185 219.483 499.105 217.221Z" fill="#263238"/>
<path d="M503.385 334.178C503.385 334.178 543.555 329.706 550.116 328.605C562.674 326.517 575.249 328.519 580.562 339.127C582.997 343.954 579.921 353.271 572.554 360.187C567.068 365.387 539.803 392.461 539.803 392.461L516.403 373.273L545.332 351.173L489.259 358.913L503.385 334.178Z" fill="#263238"/>
<path d="M545.047 379.227L530.019 394.827C530.019 394.827 541.381 415.324 538.885 418.479L506.515 390.442L528.909 365.17L545.047 379.227Z" fill="#263238"/>
<path d="M521.213 384.8C520.827 384.617 520.387 384.583 519.977 384.705C519.568 384.827 519.218 385.095 518.994 385.459C518.806 385.842 518.773 386.283 518.902 386.69C519.031 387.097 519.312 387.439 519.687 387.643C520.099 387.832 520.566 387.863 520.999 387.731C521.432 387.598 521.801 387.311 522.036 386.924C522.188 386.502 522.17 386.039 521.988 385.63C521.805 385.221 521.472 384.899 521.057 384.731" fill="#E0E0E0"/>
<path d="M506.515 390.442L508.777 387.894L539.153 415.896C539.414 416.761 539.327 417.694 538.911 418.496L506.515 390.442Z" fill="#E0E0E0"/>
<path d="M530.686 395.122C530.538 395.269 529.689 394.654 528.467 394.472C527.245 394.29 526.257 394.576 526.17 394.385C526.083 394.195 527.106 393.519 528.58 393.77C530.053 394.021 530.842 395.009 530.686 395.122Z" fill="white"/>
<path d="M532.861 399.42C532.765 399.602 531.847 399.264 530.737 399.42C529.628 399.576 528.848 400.157 528.701 400.01C528.553 399.862 529.221 398.918 530.616 398.718C532.011 398.519 532.999 399.273 532.861 399.42Z" fill="white"/>
<path d="M531.266 405.019C531.093 404.933 531.561 403.979 532.714 403.494C533.866 403.009 534.906 403.312 534.863 403.494C534.82 403.676 533.996 403.728 533.008 404.144C532.02 404.56 531.448 405.141 531.266 405.019Z" fill="white"/>
<path d="M533.702 391.187C533.511 391.265 532.974 390.433 532.029 389.714C531.085 388.995 530.14 388.665 530.175 388.466C530.209 388.267 531.371 388.301 532.471 389.159C533.572 390.017 533.867 391.135 533.702 391.187Z" fill="white"/>
<path d="M555.888 376.506C555.807 376.633 555.711 376.749 555.602 376.853L554.735 377.789L551.39 381.195L539.933 392.6L539.794 392.739L539.647 392.609L536.735 390.225L522.305 378.3L517.971 374.651L516.81 373.646C516.666 373.534 516.535 373.406 516.42 373.265C516.578 373.353 516.726 373.458 516.862 373.577L518.084 374.521L522.513 378.075L537.012 389.896L539.924 392.288H539.638L551.199 381.004L554.666 377.676L555.602 376.809C555.69 376.701 555.785 376.6 555.888 376.506Z" fill="#455A64"/>
<path d="M590.078 375.267L609.804 392.375L629.373 401.483C629.709 401.63 630.01 401.847 630.257 402.118C630.503 402.39 630.69 402.71 630.803 403.059C630.917 403.408 630.956 403.777 630.917 404.141C630.878 404.506 630.762 404.858 630.578 405.175C630.365 405.547 630.067 405.863 629.709 406.096C629.35 406.33 628.941 406.475 628.515 406.519C622.986 407.099 602.628 409.119 601.258 407.793C599.672 406.25 579.236 391.109 579.236 391.109L590.078 375.267Z" fill="#263238"/>
<path d="M630.577 405.158L599.897 406.657L601.258 407.775C601.557 408.004 601.899 408.17 602.265 408.261C602.63 408.352 603.01 408.366 603.381 408.304C605.981 408.304 613.079 408.104 628.471 406.57C628.91 406.524 629.33 406.372 629.697 406.127C630.064 405.883 630.366 405.553 630.577 405.166V405.158Z" fill="#E0E0E0"/>
<g opacity="0.6">
<path d="M599.889 399.273C600.277 399.18 600.685 399.232 601.038 399.418C601.391 399.605 601.663 399.914 601.804 400.287C601.911 400.67 601.866 401.079 601.679 401.429C601.491 401.78 601.176 402.044 600.799 402.168C600.388 402.264 599.956 402.207 599.584 402.008C599.213 401.808 598.926 401.48 598.779 401.085C598.708 400.674 598.801 400.251 599.037 399.908C599.274 399.565 599.635 399.327 600.045 399.247" fill="white"/>
</g>
<path d="M617.933 402.402C618.08 402.332 617.413 401.015 617.846 399.368C618.279 397.722 619.458 396.855 619.354 396.725C619.25 396.595 618.955 396.786 618.487 397.193C617.899 397.741 617.483 398.449 617.291 399.23C617.088 400.007 617.122 400.828 617.387 401.587C617.586 402.133 617.855 402.436 617.933 402.402Z" fill="white"/>
<path d="M621.815 403.225C621.98 403.225 621.867 402.02 622.448 400.755C623.029 399.49 623.947 398.744 623.852 398.614C623.757 398.484 622.552 399.065 621.919 400.53C621.287 401.994 621.668 403.277 621.815 403.225Z" fill="white"/>
<path d="M612.213 402.133C612.387 402.133 612.213 400.313 612.933 398.259C613.652 396.205 614.883 394.871 614.753 394.749C614.623 394.628 613.132 395.867 612.387 398.077C611.641 400.287 612.075 402.211 612.213 402.133Z" fill="white"/>
<path d="M605.8 397.453C605.964 397.453 606.432 396.023 607.602 394.559C608.772 393.094 610.081 392.253 609.994 392.106C609.908 391.959 608.382 392.626 607.143 394.212C605.904 395.798 605.626 397.436 605.8 397.453Z" fill="white"/>
<path d="M601.371 394.42C601.545 394.42 601.813 392.799 603.174 391.352C604.535 389.905 606.138 389.445 606.086 389.289C606.034 389.133 605.635 389.229 604.977 389.463C604.126 389.78 603.362 390.294 602.747 390.963C602.133 391.632 601.685 392.436 601.441 393.311C601.267 393.978 601.302 394.411 601.371 394.42Z" fill="white"/>
<path d="M439.305 351.728C439.703 352.716 437.927 384.462 468.563 384.661C496.063 384.835 533.061 360.057 537.273 361.643C540.037 362.683 587.539 403.243 587.539 403.243L604.665 383.465C604.665 383.465 560.733 342.238 556.4 339.265C547.153 332.913 540.644 332.956 525.425 335.669C511.81 338.087 478.452 348.981 478.452 348.981L475.245 346.303L439.305 351.728Z" fill="#263238"/>
<path d="M515.545 338.867L516.065 338.659C516.403 338.529 516.932 338.329 517.591 338.087C518.951 337.61 520.962 336.925 523.597 336.197C526.807 335.31 530.073 334.635 533.373 334.178C535.435 333.872 537.519 333.727 539.604 333.745C541.939 333.785 544.264 334.075 546.537 334.611C551.777 335.853 556.644 338.328 560.733 341.831C564.98 345.722 569.4 349.96 574.106 354.38L604.76 383.301L604.899 383.439L604.769 383.587L602.403 386.317C599.872 389.255 597.203 392.236 594.603 394.983C592.003 397.731 589.637 400.504 587.245 403.234L587.314 403.381L560.447 380.51L548.921 370.699L543.721 366.288L541.294 364.217C540.895 363.879 540.505 363.532 540.107 363.237C539.706 362.948 539.273 362.706 538.815 362.518C537.955 362.157 537.03 361.979 536.098 361.994C535.166 362.009 534.247 362.217 533.399 362.605L528.866 364.797L521.629 368.264L517.088 370.431L515.909 370.985L515.502 371.167L515.892 370.951L517.053 370.37L521.569 368.134L528.771 364.589L533.295 362.371C534.174 361.96 535.129 361.737 536.099 361.716C537.068 361.695 538.032 361.877 538.928 362.249C539.4 362.454 539.85 362.707 540.271 363.003C540.696 363.307 541.077 363.653 541.476 363.983L543.92 366.045L549.12 370.439L560.733 380.233L587.678 403.069L587.747 403.208C590.122 400.435 592.583 397.592 594.949 394.654C597.315 391.716 599.647 388.917 602.177 385.987L604.509 383.301V383.587L573.889 354.64C569.192 350.22 564.763 345.973 560.56 342.073C556.516 338.594 551.699 336.131 546.511 334.889C544.238 334.349 541.914 334.058 539.578 334.022C537.505 333.992 535.434 334.123 533.381 334.412C530.09 334.852 526.83 335.504 523.623 336.362C521.023 337.064 518.969 337.723 517.608 338.173L516.057 338.702L515.545 338.867Z" fill="#455A64"/>
<path d="M498.749 268.424C498.749 268.424 508.906 272.384 510.111 280.826C511.116 287.872 508.889 306.618 508.923 307.892C508.879 309.003 509.264 310.089 509.998 310.925C511.236 312.223 511.922 313.95 511.913 315.744C511.992 316.947 511.778 318.152 511.289 319.254C510.128 321.178 498.887 333.987 498.887 333.987L488.895 313.568C488.895 313.568 495.447 294.432 495.499 293.938C495.551 293.444 498.749 268.424 498.749 268.424Z" fill="#1A43BF"/>
<path d="M510.25 318.422C510.683 318.482 525.338 328.718 525.338 328.718C525.338 328.718 528.918 321.923 530.538 321.724C532.159 321.524 537.082 323.388 537.515 323.899C537.949 324.41 538.919 324.497 539.89 324.584C540.861 324.67 542.568 327.054 542.568 327.054L545.87 329.472C545.87 329.472 544.839 331.361 544.561 331.69C544.284 332.02 542.056 331.101 542.091 330.754C542.126 330.408 542.369 332.886 540.661 332.956C539.292 332.899 537.95 332.551 536.726 331.933L536.146 329.073L532.359 327.912L531.397 329.099C531.397 329.099 535.73 329.966 535.565 331.361C535.523 331.76 535.369 332.14 535.123 332.457C534.876 332.774 534.546 333.015 534.17 333.155L530.608 333.077L522.808 334.923C522.808 334.923 502.285 330.46 501.531 328.172C500.777 325.884 504.235 317.624 510.25 318.422Z" fill="#AE7461"/>
<path d="M510.406 313.646C512.193 315.134 513.586 317.039 514.462 319.193C515.329 321.238 525.148 328.267 525.148 328.267L517.218 334.585C517.218 334.585 500.665 335.261 499.885 332.852C499.105 330.442 501.696 319.644 501.696 319.644L510.406 313.646Z" fill="#1A43BF"/>
<path d="M500.56 335.903C500.56 335.903 498.168 325.979 498.645 324.159C500.023 318.959 505.855 292.821 505.257 284.917C504.659 277.013 498.749 268.45 498.749 268.45L491.867 266.067C489.085 272.029 478.477 270.131 469.672 263.155L457.417 265.911L445.57 320.268L440.179 342.134C437.319 353.245 439.313 351.806 439.313 351.806C439.313 351.806 452.633 355.931 463.172 354.085C471.05 352.707 482.533 347.239 485.116 345.254C491.278 340.505 501.045 340.834 501.045 340.834L500.56 335.903Z" fill="#1A43BF"/>
<path d="M481.242 336.388L488.453 339.283C488.453 339.283 492.457 336.934 493.046 336.683C496.396 336.078 499.779 335.67 503.178 335.461C504.294 335.483 505.41 335.41 506.514 335.244L496.981 341.016L490.914 348.911C489.254 349.444 487.526 349.736 485.783 349.778C483.131 349.778 476.883 348.296 476.883 348.296L481.242 336.388Z" fill="#AE7461"/>
<path d="M449.982 323.561L456.646 294.32L458.466 265.911C458.466 265.911 443.308 267.895 439.157 281.597C437.06 288.531 430.074 317.382 429.164 322.712C428.254 328.042 429.164 334.542 433.498 337.905C437.831 341.267 479.093 349.821 479.093 349.821L484.466 336.267L449.982 323.561Z" fill="#1A43BF"/>
<path d="M508.403 337.133C508.348 337.44 508.185 337.717 507.943 337.914C507.702 338.111 507.398 338.215 507.086 338.208C506.306 338.208 505.933 336.752 505.933 336.752L502.363 337.229C502.363 337.229 497.258 343.59 495.429 345.401C488.34 352.508 486.494 347.377 486.494 347.377L488.695 339.031L493.219 331.569C493.219 331.569 492.942 332.02 493.046 330.85C493.15 329.68 495.247 329.481 495.247 329.481C495.395 328.874 496.617 328.302 496.617 328.302L502.311 327.271C502.888 327.164 503.482 327.187 504.05 327.337C504.618 327.486 505.146 327.76 505.595 328.137L509.062 331.058C509.062 331.058 511.099 333.294 511.09 333.953C511.078 334.233 510.964 334.5 510.77 334.703C510.575 334.906 510.313 335.03 510.033 335.053C510.033 335.053 510.293 336.847 509.851 337.038C509.375 337.159 508.882 337.191 508.395 337.133H508.403Z" fill="#AE7461"/>
<path d="M495.109 335.556C495.109 335.608 495.846 335.322 497.033 335.019C498.593 334.641 500.196 334.478 501.8 334.534C502.673 334.552 503.542 334.642 504.4 334.802C505.18 334.975 505.969 335.062 506.324 335.478C506.404 335.565 506.459 335.673 506.484 335.788C506.508 335.904 506.501 336.025 506.463 336.137C506.411 336.32 506.306 336.483 506.159 336.605C505.908 336.813 505.691 336.787 505.7 336.822C505.709 336.856 505.917 336.917 506.246 336.726C506.434 336.599 506.579 336.418 506.662 336.206C506.718 336.062 506.735 335.906 506.711 335.754C506.686 335.602 506.622 335.459 506.523 335.339C506.278 335.07 505.958 334.88 505.605 334.793C505.249 334.689 504.877 334.586 504.469 334.508C503.588 334.322 502.692 334.218 501.791 334.195C500.161 334.15 498.534 334.366 496.973 334.837C496.32 334.984 495.692 335.227 495.109 335.556Z" fill="#6F4439"/>
<path d="M495.803 339.118C495.803 339.213 498.047 338.45 500.847 337.783C503.646 337.116 505.951 336.778 505.943 336.674C505.427 336.632 504.908 336.661 504.4 336.76C503.175 336.915 501.96 337.137 500.76 337.428C499.557 337.719 498.371 338.074 497.207 338.494C496.711 338.633 496.238 338.844 495.803 339.118Z" fill="#6F4439"/>
<path d="M508.326 337.029C508.315 336.826 508.277 336.625 508.213 336.431C508.089 335.892 507.926 335.362 507.728 334.845C507.59 334.484 507.425 334.133 507.234 333.797C507.011 333.407 506.717 333.063 506.367 332.783C505.572 332.123 504.652 331.631 503.663 331.335C502.681 331.023 501.66 330.848 500.63 330.815C499.792 330.836 498.959 330.958 498.151 331.179C497.458 331.361 496.92 331.535 496.548 331.665C496.346 331.714 496.153 331.792 495.976 331.899C496.728 331.791 497.472 331.632 498.203 331.422C498.999 331.243 499.813 331.153 500.63 331.153C501.625 331.197 502.61 331.371 503.559 331.673C504.503 331.965 505.384 332.429 506.159 333.043C506.783 333.536 507.257 334.193 507.528 334.941C508.031 336.215 508.256 337.055 508.326 337.029Z" fill="#6F4439"/>
<path d="M497.336 329.619C497.336 329.671 498.203 329.446 499.546 329.195C500.889 328.943 502.917 328.493 504.607 329.853C506.119 330.798 507.495 331.944 508.698 333.259C509.141 333.84 509.525 334.465 509.842 335.123C509.842 335.123 509.842 334.906 509.703 334.542C509.507 334.027 509.239 333.543 508.906 333.103C507.738 331.71 506.354 330.513 504.807 329.559C504.374 329.256 503.905 329.009 503.411 328.822C502.934 328.662 502.432 328.591 501.929 328.614C501.108 328.64 500.292 328.754 499.494 328.952C498.749 329.082 498.024 329.306 497.336 329.619Z" fill="#6F4439"/>
<path d="M498.653 342.221C498.747 342.112 498.831 341.996 498.905 341.874L499.598 340.869C500.482 339.64 501.434 338.463 502.449 337.341H502.371L505.951 336.891L505.795 336.778C505.869 337.054 505.974 337.322 506.107 337.575C506.245 337.866 506.469 338.108 506.748 338.269C506.908 338.343 507.086 338.367 507.259 338.338C507.428 338.333 507.594 338.291 507.745 338.217C508.059 338.072 508.31 337.82 508.455 337.506C508.489 337.428 508.515 337.347 508.533 337.263V337.194V337.151L508.36 337.281H508.49H508.975C509.143 337.289 509.311 337.289 509.478 337.281L509.747 337.229C509.858 337.205 509.96 337.151 510.041 337.073C510.154 336.915 510.22 336.729 510.232 336.535C510.249 336.365 510.249 336.194 510.232 336.024C510.232 335.685 510.206 335.346 510.154 335.01L509.998 335.201C510.243 335.185 510.48 335.101 510.68 334.959C510.881 334.816 511.038 334.621 511.133 334.395C511.225 334.155 511.225 333.889 511.133 333.649C511.048 333.437 510.94 333.233 510.813 333.043C510.288 332.293 509.709 331.583 509.079 330.919L507.242 329.368C506.855 329.033 506.465 328.704 506.072 328.38C505.697 328.027 505.284 327.716 504.841 327.453C504.381 327.211 503.877 327.064 503.359 327.019C502.858 326.994 502.357 327.041 501.869 327.158L496.599 328.172C496.293 328.311 496.003 328.483 495.733 328.683C495.447 328.871 495.229 329.144 495.109 329.463L495.282 329.342C494.964 329.304 494.641 329.341 494.34 329.451C494.038 329.561 493.767 329.74 493.549 329.975C493.194 330.439 493.036 331.024 493.107 331.604V331.517C491.798 333.649 490.741 335.391 489.978 336.639L489.111 338.043C489.001 338.199 488.911 338.368 488.843 338.546C488.964 338.398 489.074 338.242 489.172 338.078L490.039 336.717C490.819 335.487 491.919 333.771 493.271 331.665V331.613C493.216 331.105 493.359 330.596 493.67 330.191C493.858 329.998 494.088 329.851 494.342 329.763C494.596 329.674 494.868 329.646 495.135 329.68H495.273V329.55C495.381 329.302 495.559 329.091 495.785 328.943C496.032 328.767 496.293 328.611 496.565 328.475L501.929 327.513C502.386 327.404 502.856 327.363 503.325 327.392C503.791 327.431 504.245 327.563 504.659 327.782C505.077 328.031 505.469 328.321 505.829 328.649L506.991 329.637L508.837 331.188C509.438 331.837 509.991 332.53 510.492 333.259C510.607 333.427 510.703 333.607 510.778 333.797C510.843 333.958 510.843 334.138 510.778 334.299C510.703 334.468 510.582 334.613 510.429 334.717C510.275 334.821 510.096 334.881 509.911 334.889H509.729V335.062C509.772 335.381 509.798 335.702 509.807 336.024C509.839 336.319 509.794 336.618 509.677 336.891C509.637 336.92 509.589 336.938 509.539 336.943C509.467 336.953 509.394 336.953 509.322 336.943C509.172 336.951 509.022 336.951 508.871 336.943C508.716 336.951 508.559 336.951 508.403 336.943H508.282C508.438 336.821 508.065 337.107 508.1 337.073V337.151C508.085 337.217 508.061 337.281 508.031 337.341C507.924 337.587 507.733 337.786 507.493 337.905C507.373 337.959 507.244 337.988 507.112 337.991C506.997 338.031 506.872 338.031 506.757 337.991C506.343 337.675 506.056 337.219 505.951 336.709V336.587H505.829L502.259 337.09H502.207C501.201 338.233 500.275 339.444 499.433 340.713C499.139 341.155 498.922 341.51 498.783 341.753C498.725 341.904 498.681 342.061 498.653 342.221Z" fill="#6F4439"/>
<path d="M505.907 283.729C505.921 283.882 505.921 284.036 505.907 284.189C505.907 284.535 505.838 284.96 505.795 285.48C505.691 286.607 505.517 288.227 505.283 290.229C504.815 294.233 504.079 299.763 503.056 305.829C502.033 311.896 500.846 317.356 499.867 321.274C499.381 323.232 499 324.809 498.645 325.893C498.489 326.395 498.367 326.803 498.272 327.141C498.234 327.288 498.179 327.431 498.107 327.565C498.115 327.413 498.141 327.261 498.185 327.115C498.263 326.777 498.359 326.361 498.471 325.85C498.74 324.688 499.113 323.111 499.555 321.204C500.421 317.269 501.574 311.818 502.605 305.76C503.637 299.702 504.417 294.181 504.963 290.16C505.231 288.219 505.457 286.615 505.621 285.437L505.812 284.145C505.827 284.003 505.859 283.864 505.907 283.729Z" fill="#263238"/>
<path d="M479.076 349.821C479.09 349.733 479.113 349.645 479.145 349.561L479.405 348.816L480.445 345.982C481.372 343.495 482.698 339.967 484.31 335.669L484.414 335.894L460.945 327.669L449.912 323.761L449.73 323.7L449.774 323.509L454.636 303.819L456.074 298.125C456.248 297.492 456.378 296.989 456.482 296.608C456.516 296.432 456.572 296.26 456.647 296.097C456.63 296.275 456.598 296.452 456.551 296.625C456.473 297.007 456.36 297.492 456.222 298.159C455.901 299.529 455.45 301.47 454.896 303.879L450.19 323.613L450.06 323.353L461.066 327.245L484.466 335.565L484.64 335.625L484.579 335.79L480.566 346.051L479.44 348.859C479.318 349.154 479.214 349.388 479.136 349.587C479.058 349.787 479.085 349.83 479.076 349.821Z" fill="#263238"/>
<path d="M473.676 349.067C473.168 349.019 472.665 348.935 472.168 348.816L468.086 347.949C464.62 347.221 459.888 346.216 454.67 344.933C449.453 343.651 444.773 342.281 441.436 341.163C439.772 340.6 438.429 340.123 437.51 339.768C437.027 339.604 436.555 339.407 436.098 339.179C436.6 339.278 437.093 339.42 437.571 339.603L441.54 340.86C444.894 341.9 449.566 343.217 454.783 344.491C460 345.765 464.732 346.831 468.156 347.637L472.212 348.608C472.712 348.718 473.202 348.872 473.676 349.067Z" fill="#263238"/>
<path d="M500.066 341.111C500.164 341.456 500.39 341.751 500.697 341.934C501.005 342.118 501.371 342.177 501.721 342.099L530.512 335.911L555.247 331.483L555.455 329.325L531.821 332.661L501.115 339.404C500.931 339.442 500.757 339.518 500.604 339.626C500.45 339.734 500.321 339.872 500.222 340.032C500.124 340.192 500.06 340.37 500.033 340.555C500.006 340.741 500.017 340.93 500.066 341.111Z" fill="#E0E0E0"/>
<path d="M545.055 299.381L531.751 332.878C531.632 333.185 531.597 333.518 531.65 333.842C531.702 334.167 531.839 334.472 532.049 334.726C532.258 334.98 532.53 335.174 532.839 335.288C533.148 335.402 533.481 335.432 533.805 335.374L563.185 330.044C563.505 329.994 563.806 329.861 564.058 329.659C564.31 329.457 564.505 329.192 564.624 328.891L577.979 295.663C578.039 295.505 578.057 295.335 578.032 295.168C578.008 295.001 577.941 294.843 577.839 294.709C577.737 294.575 577.602 294.469 577.448 294.401C577.294 294.332 577.125 294.305 576.956 294.32L546.623 298.22C546.28 298.251 545.952 298.375 545.676 298.58C545.399 298.785 545.184 299.062 545.055 299.381Z" fill="#E0E0E0"/>
<path d="M548.062 298.22C548.175 298.22 544.986 306.601 540.938 316.845C536.891 327.089 533.528 335.357 533.424 335.313C533.32 335.27 536.501 326.941 540.54 316.689C544.578 306.436 547.95 298.177 548.062 298.22Z" fill="#263238"/>
<path d="M555.42 314.054C554.553 315.674 554.64 317.338 555.533 317.78C556.425 318.222 557.821 317.278 558.653 315.657C559.485 314.036 559.433 312.381 558.54 311.93C557.647 311.48 556.243 312.442 555.42 314.054Z" fill="white"/>
<path d="M198.094 164.944C199.162 164.336 200.006 163.4 200.5 162.275C200.995 161.15 201.113 159.895 200.839 158.697C200.565 157.499 199.912 156.422 198.978 155.624C198.043 154.826 196.876 154.35 195.65 154.267C196.556 153.37 197.168 152.219 197.406 150.967C197.643 149.715 197.494 148.42 196.98 147.254C196.465 146.087 195.608 145.105 194.522 144.437C193.437 143.769 192.174 143.446 190.901 143.511C191.662 142.74 192.18 141.763 192.393 140.7C192.605 139.638 192.502 138.536 192.097 137.531C191.235 135.523 189.625 133.928 187.608 133.085C184.878 131.962 181.827 131.9 179.053 132.91C176.279 133.92 173.983 135.93 172.614 138.545L175.422 187.772C176.461 188.757 177.733 189.462 179.118 189.821C180.504 190.179 181.958 190.18 183.344 189.823C184.73 189.467 186.002 188.763 187.042 187.78C188.082 186.797 188.855 185.565 189.289 184.201C191.054 184.076 192.789 183.673 194.428 183.005C195.245 182.664 195.969 182.135 196.544 181.462C197.119 180.789 197.528 179.991 197.739 179.131C198.051 177.398 196.959 175.396 195.217 175.11C197.115 173.897 199.108 172.579 200.044 170.534C200.98 168.489 200.261 165.533 198.094 164.944Z" fill="#263238"/>
<path d="M185.259 139.889C184.678 137.367 182.78 135.339 180.691 133.822C179.849 133.126 178.849 132.647 177.779 132.427C177.243 132.327 176.689 132.387 176.187 132.6C175.685 132.813 175.256 133.168 174.954 133.623L175.136 135.434C174.945 138.32 177.207 140.703 178.308 143.381C178.785 144.543 179.175 145.981 180.345 146.423C180.973 146.645 181.662 146.626 182.277 146.371C184.713 145.461 185.848 142.419 185.259 139.889Z" fill="#455A64"/>
<path d="M185.718 153.209C186.483 152.087 186.829 150.732 186.696 149.381C186.563 148.029 185.959 146.768 184.99 145.817C186.004 144.447 185.562 142.411 184.453 141.128C183.228 139.926 181.746 139.016 180.12 138.467C179.564 136.55 178.294 134.92 176.573 133.91C174.851 132.901 172.808 132.59 170.864 133.042C168.758 130.139 164.442 129.801 161.036 130.901C160.221 131.236 159.363 131.452 158.488 131.543C157.846 131.508 157.207 131.438 156.572 131.335C153.054 130.962 149.639 133.536 148.382 136.838C148.221 137.378 147.988 137.894 147.689 138.372C147.187 138.919 146.62 139.403 145.999 139.811C145.379 140.322 144.877 140.962 144.528 141.686C144.179 142.41 143.992 143.202 143.98 144.005C143.98 145.375 144.439 146.805 143.902 148.053C143.633 148.685 143.13 149.197 142.922 149.847C142.333 151.736 144.456 153.591 144.136 155.541C144.066 155.939 143.902 156.312 143.798 156.702C143.6 157.513 143.701 158.369 144.084 159.111C144.466 159.629 144.74 160.218 144.89 160.845C144.871 161.326 144.792 161.804 144.656 162.266C144.448 163.427 147.082 167.821 148.122 168.419L178.04 167.804C179.164 167.515 180.172 166.884 180.922 165.997C181.672 165.11 182.127 164.012 182.226 162.855C182.197 162.473 182.282 162.09 182.468 161.755C182.69 161.514 182.963 161.324 183.266 161.2C185.164 160.108 185.32 157.456 185.051 155.281C184.999 154.979 184.999 154.672 185.051 154.371C185.193 153.942 185.42 153.547 185.718 153.209Z" fill="#263238"/>
<path d="M177.199 153.504C177.081 150.629 176.192 147.839 174.625 145.427C173.057 143.014 170.869 141.069 168.29 139.793C165.858 138.745 163.241 138.194 160.594 138.173C158.139 138.012 155.694 138.602 153.582 139.863C151.944 140.305 146.068 146.016 145.93 151.996C145.782 158.669 145.86 166.833 146.857 171.773C148.842 181.705 156.555 182.667 156.555 182.667V190.606L155.905 196.863L176.133 191.863L177.199 153.504Z" fill="#FFBF9D"/>
<path d="M149.578 160.672C149.587 161.007 149.728 161.326 149.969 161.559C150.21 161.793 150.534 161.922 150.869 161.92C151.033 161.924 151.196 161.896 151.348 161.838C151.501 161.779 151.641 161.691 151.759 161.578C151.878 161.465 151.972 161.33 152.038 161.181C152.104 161.031 152.14 160.87 152.143 160.706C152.132 160.372 151.991 160.056 151.75 159.824C151.508 159.593 151.186 159.464 150.852 159.467C150.688 159.459 150.525 159.484 150.371 159.54C150.217 159.597 150.077 159.684 149.958 159.797C149.839 159.91 149.744 160.045 149.678 160.195C149.613 160.346 149.579 160.508 149.578 160.672Z" fill="#263238"/>
<path d="M148.339 155.766C148.504 155.93 149.448 155.176 150.826 155.124C152.204 155.072 153.244 155.714 153.383 155.54C153.522 155.367 153.279 155.168 152.828 154.864C152.216 154.475 151.499 154.284 150.774 154.318C150.056 154.35 149.365 154.605 148.798 155.046C148.391 155.393 148.261 155.696 148.339 155.766Z" fill="#263238"/>
<path d="M156.867 166.339C156.132 166.143 155.375 166.038 154.614 166.027C154.259 166.027 153.921 165.949 153.851 165.707C153.809 165.343 153.875 164.975 154.042 164.649C154.345 163.783 154.649 162.916 154.978 161.928C156.269 158.054 157.188 154.865 157.032 154.821C156.876 154.778 155.706 157.872 154.432 161.755L153.565 164.493C153.359 164.925 153.313 165.417 153.435 165.88C153.491 166.004 153.574 166.113 153.68 166.199C153.785 166.285 153.909 166.345 154.042 166.374C154.238 166.422 154.439 166.442 154.64 166.435C155.384 166.494 156.132 166.462 156.867 166.339Z" fill="#263238"/>
<path d="M156.555 182.702C161.265 182.58 165.849 181.155 169.798 178.585C169.798 178.585 166.556 185.909 156.512 185.38L156.555 182.702Z" fill="#FF9A6C"/>
<path d="M148.686 150.575C148.929 150.904 149.977 150.635 151.217 150.687C152.456 150.739 153.496 151.025 153.747 150.687C153.869 150.531 153.747 150.211 153.279 149.89C152.674 149.501 151.974 149.286 151.254 149.266C150.535 149.246 149.824 149.423 149.197 149.777C148.738 150.107 148.582 150.419 148.686 150.575Z" fill="#263238"/>
<path d="M163.739 160.619C163.744 160.953 163.618 161.275 163.388 161.516C163.158 161.758 162.842 161.899 162.509 161.911C162.345 161.926 162.18 161.908 162.024 161.858C161.867 161.808 161.723 161.726 161.599 161.618C161.475 161.51 161.374 161.379 161.302 161.231C161.231 161.083 161.19 160.922 161.183 160.758C161.178 160.424 161.304 160.102 161.534 159.861C161.764 159.619 162.08 159.478 162.413 159.466C162.577 159.452 162.741 159.471 162.897 159.522C163.053 159.573 163.197 159.654 163.321 159.762C163.445 159.869 163.545 160.001 163.617 160.148C163.689 160.295 163.731 160.455 163.739 160.619Z" fill="#263238"/>
<path d="M167.267 155.549C167.111 155.714 166.14 155.003 164.753 155.003C163.367 155.003 162.361 155.705 162.214 155.541C162.067 155.376 162.301 155.159 162.743 154.839C163.34 154.423 164.051 154.202 164.779 154.206C165.495 154.202 166.194 154.426 166.773 154.847C167.171 155.133 167.31 155.471 167.267 155.549Z" fill="#263238"/>
<path d="M167.44 150.904C167.172 151.225 166.097 150.904 164.84 150.904C163.584 150.904 162.474 151.121 162.24 150.791C162.128 150.635 162.301 150.323 162.769 150.02C163.418 149.652 164.156 149.472 164.901 149.5C165.642 149.508 166.366 149.724 166.99 150.124C167.406 150.427 167.562 150.8 167.44 150.904Z" fill="#263238"/>
<path d="M175.934 163.046C175.934 162.301 176.696 160.515 177.424 160.368C179.374 159.978 182.919 159.995 183.162 164.979C183.482 171.791 176.575 170.707 176.549 170.517C176.523 170.326 176.02 165.62 175.934 163.046Z" fill="#FFBF9D"/>
<path d="M178.299 167.934C178.299 167.934 178.429 168.012 178.629 168.099C178.907 168.209 179.217 168.209 179.495 168.099C180.197 167.804 180.752 166.634 180.726 165.404C180.719 164.817 180.579 164.239 180.319 163.714C180.243 163.505 180.118 163.318 179.956 163.167C179.793 163.016 179.596 162.906 179.383 162.847C179.244 162.818 179.1 162.839 178.975 162.905C178.85 162.972 178.752 163.08 178.698 163.211C178.611 163.402 178.698 163.54 178.629 163.549C178.559 163.558 178.473 163.445 178.516 163.159C178.548 162.988 178.637 162.832 178.767 162.717C178.857 162.642 178.96 162.585 179.072 162.551C179.184 162.517 179.301 162.505 179.417 162.518C179.699 162.559 179.965 162.672 180.19 162.847C180.415 163.021 180.591 163.251 180.7 163.514C181.021 164.089 181.194 164.736 181.203 165.395C181.203 166.764 180.579 168.082 179.608 168.42C179.428 168.48 179.236 168.5 179.047 168.477C178.859 168.455 178.677 168.391 178.516 168.29C178.325 168.134 178.282 167.952 178.299 167.934Z" fill="#FF9A6C"/>
<path d="M144.378 152.178C145.036 151.813 145.576 151.267 145.935 150.606C146.295 149.944 146.458 149.194 146.406 148.443C147.325 148.677 148.209 147.464 148.711 146.658C149.214 145.852 149.847 145.418 149.769 144.465C149.735 144.279 149.75 144.088 149.812 143.91C149.942 143.642 150.263 143.546 150.54 143.451C151.258 143.187 151.898 142.747 152.402 142.172C152.907 141.597 153.258 140.904 153.426 140.158C154.919 140.739 156.534 140.938 158.123 140.738C158.499 141.238 158.996 141.634 159.567 141.889C160.137 142.145 160.764 142.252 161.387 142.2C162.01 142.148 162.61 141.939 163.13 141.592C163.651 141.246 164.075 140.773 164.363 140.218C164.608 140.626 164.939 140.975 165.333 141.241C165.726 141.508 166.173 141.685 166.643 141.761C167.58 141.914 168.535 141.929 169.477 141.804C169.333 142.737 169.532 143.69 170.037 144.486C170.542 145.283 171.319 145.87 172.224 146.138C172.467 146.207 172.753 146.268 172.874 146.493C172.912 146.619 172.925 146.751 172.911 146.882C172.898 147.013 172.859 147.14 172.796 147.256C172.683 147.653 172.65 148.069 172.701 148.479C172.752 148.889 172.885 149.284 173.092 149.642C173.299 149.999 173.576 150.312 173.906 150.56C174.237 150.808 174.614 150.987 175.015 151.086C174.764 151.326 174.572 151.62 174.451 151.945C174.331 152.271 174.285 152.619 174.319 152.964C174.352 153.309 174.463 153.643 174.644 153.939C174.824 154.235 175.07 154.486 175.361 154.674C175.613 154.813 175.951 154.978 175.916 155.272C175.897 155.379 175.852 155.48 175.786 155.567C175.242 156.221 174.898 157.019 174.798 157.864C174.772 158.279 174.904 158.688 175.168 159.009C175.432 159.331 175.807 159.541 176.219 159.597C175.988 159.783 175.797 160.014 175.659 160.276C175.52 160.539 175.436 160.826 175.413 161.122C175.413 161.712 176.046 162.292 176.592 162.058C177.858 161.752 179.108 161.382 180.336 160.949C182.156 158.254 179.617 155.454 179.296 152.222C178.909 148.976 177.776 145.865 175.985 143.13C175.279 141.96 174.423 140.888 173.437 139.941C172.251 138.936 170.957 138.064 169.581 137.341C167.864 136.248 165.982 135.44 164.008 134.949C160.29 134.23 156.529 135.72 153.157 137.436C151.854 138.048 150.638 138.832 149.543 139.768C148.316 140.982 147.315 142.405 146.588 143.971C145.371 146.149 144.624 148.558 144.395 151.043" fill="#263238"/>
<path d="M142.948 149.847C143.025 149.583 143.138 149.332 143.286 149.101C143.425 148.876 143.616 148.599 143.798 148.235C143.998 147.836 144.111 147.398 144.127 146.952C144.147 146.373 144.115 145.792 144.032 145.219C143.94 144.549 143.94 143.869 144.032 143.199C144.151 142.423 144.429 141.68 144.846 141.015C145.075 140.653 145.346 140.318 145.652 140.019C145.972 139.699 146.32 139.409 146.692 139.152C147.075 138.895 147.414 138.579 147.698 138.216C147.952 137.807 148.153 137.367 148.296 136.907C148.646 135.923 149.172 135.01 149.847 134.212C150.569 133.339 151.451 132.612 152.447 132.071C152.959 131.79 153.499 131.563 154.059 131.395C154.64 131.232 155.24 131.141 155.844 131.127C156.15 131.109 156.457 131.109 156.763 131.127C157.075 131.127 157.378 131.213 157.682 131.257C158.287 131.359 158.906 131.336 159.502 131.187C160.108 131.04 160.698 130.797 161.322 130.624C161.946 130.428 162.587 130.289 163.237 130.208C163.9 130.12 164.57 130.088 165.239 130.113C165.917 130.14 166.591 130.236 167.25 130.399C168.617 130.724 169.847 131.469 170.768 132.531L171.028 132.86L170.924 132.817C172.906 132.377 174.98 132.716 176.719 133.763C178.458 134.809 179.728 136.484 180.267 138.441L180.215 138.372C181.048 138.716 181.861 139.107 182.65 139.542C183.417 139.975 184.101 140.542 184.67 141.215C185.201 141.885 185.537 142.688 185.64 143.537C185.762 144.358 185.56 145.194 185.077 145.869V145.747C186.043 146.664 186.657 147.891 186.81 149.214C186.967 150.385 186.765 151.576 186.23 152.629C186.1 152.867 185.958 153.098 185.805 153.322C185.64 153.539 185.484 153.738 185.354 153.946C185.23 154.151 185.155 154.383 185.138 154.622C185.116 154.858 185.116 155.096 185.138 155.333C185.242 156.196 185.242 157.069 185.138 157.933C185.073 158.629 184.873 159.307 184.548 159.926C184.303 160.383 183.952 160.775 183.526 161.07C183.188 161.321 182.876 161.417 182.711 161.555C182.622 161.618 182.541 161.691 182.468 161.772C182.527 161.677 182.604 161.595 182.694 161.529C182.858 161.391 183.17 161.278 183.5 161.027C183.91 160.73 184.245 160.341 184.479 159.891C184.789 159.277 184.98 158.609 185.042 157.924C185.129 157.059 185.115 156.186 184.999 155.324C184.959 155.083 184.942 154.84 184.947 154.596C184.961 154.336 185.038 154.083 185.172 153.859C185.31 153.637 185.46 153.423 185.623 153.218C185.777 153.002 185.916 152.776 186.039 152.542C186.557 151.515 186.748 150.353 186.585 149.214C186.436 147.942 185.848 146.762 184.921 145.877L184.86 145.825L184.912 145.765C185.363 145.122 185.549 144.331 185.432 143.555C185.328 142.742 185.001 141.974 184.488 141.336C183.938 140.676 183.271 140.123 182.52 139.707C181.738 139.274 180.931 138.889 180.102 138.554C179.595 136.696 178.382 135.11 176.722 134.134C175.875 133.599 174.929 133.241 173.94 133.08C172.951 132.919 171.94 132.959 170.968 133.198H170.907L170.855 133.146L170.604 132.834C169.711 131.802 168.516 131.078 167.189 130.763C166.543 130.608 165.885 130.512 165.222 130.477C164.564 130.452 163.906 130.484 163.254 130.572C162.614 130.651 161.981 130.787 161.365 130.979C160.758 131.153 160.16 131.395 159.536 131.543C159.224 131.623 158.905 131.67 158.583 131.681C158.27 131.685 157.956 131.662 157.647 131.612L156.737 131.482C155.864 131.385 154.981 131.459 154.137 131.699C153.589 131.866 153.061 132.089 152.56 132.366C151.595 132.894 150.739 133.6 150.038 134.446C149.38 135.218 148.861 136.097 148.504 137.046C148.354 137.519 148.145 137.97 147.88 138.389C147.588 138.765 147.237 139.09 146.84 139.351C146.473 139.612 146.128 139.902 145.808 140.218C145.507 140.509 145.242 140.835 145.02 141.189C144.602 141.834 144.327 142.561 144.214 143.321C144.123 143.982 144.123 144.653 144.214 145.314C144.296 145.888 144.322 146.468 144.292 147.047C144.268 147.507 144.147 147.956 143.936 148.365C143.746 148.711 143.546 148.98 143.408 149.231C143.298 149.401 143.2 149.578 143.113 149.76C143 149.786 143 149.855 142.948 149.847Z" fill="#455A64"/>
<path d="M167.631 131.664C167.631 131.664 167.449 131.569 167.111 131.421C166.636 131.212 166.13 131.083 165.612 131.04C164.846 130.979 164.077 131.122 163.385 131.456C162.541 131.871 161.85 132.541 161.409 133.371C161.278 133.622 161.176 133.887 161.105 134.16C161.065 134.278 161.05 134.403 161.062 134.527C161.073 134.652 161.112 134.772 161.175 134.879L161.357 135.105L161.079 135.035C160.361 134.862 159.604 134.981 158.973 135.365C158.472 135.667 158.085 136.127 157.873 136.673C157.723 137.03 157.646 137.413 157.647 137.8C157.655 137.942 157.655 138.083 157.647 138.225C157.647 138.225 157.647 138.225 157.647 138.121C157.624 138.018 157.609 137.914 157.604 137.809C157.572 137.405 157.631 136.999 157.777 136.621C157.987 136.039 158.387 135.545 158.913 135.217C159.579 134.802 160.382 134.665 161.149 134.836L161.045 135.001C160.965 134.873 160.913 134.729 160.894 134.58C160.874 134.43 160.887 134.278 160.932 134.134C161.002 133.833 161.11 133.542 161.253 133.267C161.709 132.394 162.435 131.691 163.324 131.265C163.928 130.983 164.588 130.842 165.255 130.852C165.922 130.863 166.577 131.025 167.172 131.326C167.302 131.391 167.427 131.467 167.545 131.551C167.597 131.629 167.64 131.655 167.631 131.664Z" fill="#455A64"/>
<path d="M178.985 139.074C178.985 139.074 178.915 139.178 178.759 139.325C178.527 139.537 178.274 139.726 178.005 139.889C177.598 140.142 177.139 140.299 176.662 140.348C176.049 140.426 175.429 140.268 174.929 139.906H175.076L174.885 140.192C174.815 140.288 174.74 140.381 174.66 140.469C174.208 140.978 173.636 141.366 172.996 141.596C172.481 141.79 171.934 141.881 171.384 141.865C171.015 141.847 170.65 141.777 170.301 141.657C170.172 141.614 170.05 141.556 169.937 141.483C170.408 141.618 170.894 141.696 171.384 141.717C171.914 141.711 172.439 141.612 172.935 141.423C173.536 141.186 174.076 140.815 174.513 140.339L174.721 140.071L174.903 139.802L174.963 139.707L175.05 139.776C175.502 140.107 176.061 140.258 176.619 140.201C177.071 140.16 177.51 140.027 177.91 139.811C178.621 139.395 178.967 139.048 178.985 139.074Z" fill="#455A64"/>
<path d="M182.867 145.262C182.867 145.262 182.867 145.262 182.867 145.383C182.84 145.503 182.794 145.618 182.728 145.721C182.479 146.103 182.095 146.379 181.653 146.493C181.004 146.634 180.327 146.586 179.703 146.354C179.348 146.241 178.984 146.129 178.611 145.973C178.193 145.808 177.847 145.501 177.632 145.106L177.589 144.993L177.753 145.037C177.163 145.564 176.497 145.999 175.777 146.328C175.18 146.596 174.519 146.689 173.871 146.597C173.434 146.542 173.019 146.375 172.666 146.111C172.572 146.039 172.487 145.954 172.415 145.86C172.363 145.799 172.337 145.765 172.345 145.765C172.354 145.765 172.467 145.877 172.718 146.042C173.069 146.273 173.47 146.416 173.888 146.458C174.508 146.519 175.133 146.414 175.699 146.155C176.4 145.827 177.048 145.398 177.623 144.881L177.727 144.794L177.779 144.924L177.823 145.019C178.022 145.352 178.327 145.608 178.689 145.747C179.045 145.903 179.417 146.016 179.755 146.129C180.347 146.362 180.993 146.425 181.619 146.311C182.034 146.215 182.403 145.976 182.659 145.635C182.737 145.515 182.806 145.391 182.867 145.262Z" fill="#455A64"/>
<path d="M161.478 169.425C161.417 169.118 161.303 168.825 161.14 168.558C161.059 168.428 160.947 168.32 160.814 168.244C160.681 168.169 160.53 168.127 160.377 168.125C160.155 168.153 159.944 168.237 159.762 168.367L157.292 169.867L157.084 170.473C157.579 171.239 158.225 171.897 158.982 172.406C159.202 172.577 159.467 172.68 159.745 172.701C160.093 172.657 160.416 172.499 160.663 172.25C161.141 171.978 161.493 171.531 161.645 171.003C161.798 170.475 161.737 169.909 161.478 169.425Z" fill="#FF9A6C"/>
<path d="M159.64 172.891C160.078 172.686 160.481 172.414 160.836 172.085C161.242 171.682 161.504 171.156 161.581 170.589C161.658 170.022 161.545 169.445 161.261 168.948C161.187 168.803 161.096 168.666 160.992 168.541C160.906 168.423 160.797 168.322 160.672 168.246C160.621 168.219 160.564 168.205 160.507 168.205C160.449 168.205 160.393 168.219 160.342 168.246C160.213 168.306 160.088 168.375 159.97 168.454L158.583 169.321C158.171 169.605 157.725 169.838 157.257 170.014C157.618 169.681 158.016 169.39 158.444 169.147C158.826 168.879 159.311 168.575 159.788 168.237C159.928 168.143 160.076 168.059 160.23 167.986C160.328 167.947 160.434 167.932 160.539 167.941C160.644 167.95 160.746 167.983 160.836 168.038C161.002 168.131 161.147 168.258 161.261 168.411C161.382 168.551 161.487 168.705 161.573 168.87C161.91 169.493 162.011 170.216 161.859 170.907C161.729 171.468 161.426 171.975 160.992 172.354C160.718 172.614 160.389 172.809 160.03 172.926C159.787 172.909 159.64 172.909 159.64 172.891Z" fill="#263238"/>
<path d="M96.2 256.637L99.606 251.489L105.066 248.751L105.274 248.603C106.155 247.961 107.169 247.524 108.242 247.324C109.314 247.125 110.417 247.168 111.471 247.451C113.689 248.04 116.671 248.777 119.271 249.184L125.147 247.572V259.047L95.498 257.175L96.2 256.637Z" fill="#FFBF9D"/>
<path d="M96.4346 256.325C96.8055 255.898 97.2242 255.514 97.6826 255.181C98.4886 254.505 99.6152 253.604 100.872 252.581L102.042 251.671C103.255 251.446 104.313 251.264 105.067 251.143C105.464 251.051 105.872 251.01 106.28 251.021C105.906 251.186 105.513 251.303 105.11 251.368C104.373 251.541 103.325 251.775 102.111 252.018H102.189L101.019 252.945C99.7626 253.925 98.6099 254.8 97.7692 255.415C97.3545 255.761 96.9076 256.065 96.4346 256.325Z" fill="#FF9A6C"/>
<path d="M98.748 257.322C100.103 256.351 101.528 255.482 103.012 254.722L104.052 254.15C105.313 254.024 106.583 254.003 107.848 254.089C106.604 254.327 105.344 254.466 104.078 254.505H104.156L103.116 255.077C101.718 255.933 100.258 256.683 98.748 257.322Z" fill="#FF9A6C"/>
<path d="M61.7156 224.18C62.1942 223.908 62.7562 223.821 63.2948 223.936C63.8333 224.051 64.3107 224.36 64.6363 224.804L88.5216 257.148L126.308 257.66C127.816 257.746 129.645 260.797 128.293 262.279L85.6183 261.733L60.9876 227.5C60.7957 227.241 60.6615 226.944 60.594 226.63C60.5265 226.315 60.5273 225.989 60.5963 225.674C60.6652 225.36 60.8008 225.064 60.9939 224.806C61.187 224.548 61.4331 224.335 61.7156 224.18Z" fill="#455A64"/>
<path d="M61.7157 224.181C61.7157 224.181 61.6464 224.181 61.525 224.285C61.3454 224.398 61.1845 224.538 61.0484 224.701C60.7705 225.02 60.5875 225.411 60.5201 225.829C60.4528 226.248 60.5036 226.676 60.667 227.067C60.9634 227.597 61.2995 228.104 61.6724 228.584L62.929 230.317L66.0577 234.702L85.445 261.76L85.497 261.838H85.5837L127.478 262.436H128.345L128.406 262.366C128.589 262.161 128.73 261.921 128.819 261.66C128.908 261.4 128.945 261.124 128.926 260.85C128.9 260.322 128.764 259.805 128.527 259.333C128.294 258.868 127.983 258.446 127.608 258.085C127.232 257.691 126.722 257.453 126.178 257.417L120.337 257.34L109.07 257.192L88.4957 256.932L88.6344 257.002L69.871 231.73L64.5844 224.658C64.3274 224.356 63.9967 224.127 63.6245 223.992C63.2524 223.856 62.8514 223.82 62.461 223.886C62.1925 223.923 61.9368 224.024 61.7157 224.181C61.9537 224.065 62.2079 223.986 62.4697 223.947C62.8475 223.892 63.2331 223.935 63.5896 224.072C63.9461 224.208 64.2617 224.434 64.5064 224.727L69.7064 231.851L88.4004 257.253L88.4524 257.322H88.539L109.114 257.617L120.38 257.782L126.213 257.86C126.663 257.892 127.084 258.093 127.392 258.423C127.731 258.749 128.01 259.134 128.215 259.558C128.467 259.947 128.596 260.403 128.587 260.866C128.578 261.329 128.43 261.779 128.163 262.158L128.31 262.098H127.539L85.6444 261.552L85.783 261.63L66.257 234.616L63.0937 230.282L61.8197 228.549C61.4474 228.077 61.1058 227.582 60.797 227.067C60.6326 226.695 60.5731 226.285 60.6251 225.882C60.677 225.478 60.8384 225.097 61.0917 224.779C61.2649 224.546 61.4758 224.344 61.7157 224.181Z" fill="#263238"/>
<path d="M179.011 186.897C180.69 187.784 182.273 188.845 183.734 190.06C186.002 192.294 187.55 195.155 188.18 198.276C188.977 202.185 188.336 216.727 188.336 221.052C188.336 225.377 187.235 241.627 186.698 244.331C186.161 247.035 187.045 251.047 188.301 253.665C190.546 258.353 187.045 260.763 187.045 260.763L140.669 260.416L140.86 258.683C141.181 255.667 140.054 252.616 141.207 249.791C142.359 246.965 144.119 240.656 143.235 235.291C143.235 235.291 137.445 228.107 142.186 216.502C144.899 209.872 151.962 201.084 158.609 191.412C158.609 191.412 169.677 187.807 168.143 188.301C167.709 188.422 176.281 186.585 179.011 186.897Z" fill="#1A43BF"/>
<path d="M121.663 246.281L161.278 238.004L162.301 203.615C162.301 203.615 163.688 189.601 170.708 188.301L187.616 209.352C186.672 219.96 187.53 240.023 182.659 247.771C177.788 255.519 173.039 261.716 161.036 261.161C149.032 260.607 122.582 260.355 122.582 260.355L121.663 246.281Z" fill="#1A43BF"/>
<path d="M161.2 238.143C161.105 238.221 162.067 239.46 162.855 241.185C163.644 242.909 164.008 244.435 164.129 244.409C164.102 243.225 163.806 242.063 163.263 241.011C162.809 239.907 162.103 238.924 161.2 238.143Z" fill="#263238"/>
<g opacity="0.3">
<path d="M162.578 202.142C158.618 214.275 159.476 233.047 151.936 239.963L161.278 238.004C161.1 235.807 161.074 233.601 161.2 231.4C161.963 221.789 162.067 212.013 162.578 202.142Z" fill="black"/>
</g>
<path d="M163.454 197.808C163.163 198.711 162.932 199.631 162.76 200.564C162.538 201.69 162.376 202.827 162.275 203.97C162.145 205.322 162.128 206.882 162.058 208.633C161.833 215.653 161.512 225.723 161.122 238.004L161.244 237.848L121.628 246.133H121.455V246.298C121.741 250.805 122.053 255.545 122.365 260.381V260.563H122.547L127.366 260.624C134.256 260.711 140.972 260.815 147.464 260.953C150.714 261.023 153.894 261.101 156.997 261.205C160.1 261.309 163.194 261.577 166.184 261.109C167.666 260.907 169.12 260.535 170.517 260C171.86 259.463 173.135 258.768 174.313 257.929C176.525 256.265 178.456 254.258 180.033 251.983C180.802 250.903 181.53 249.82 182.217 248.733L182.737 247.927C182.893 247.65 183.04 247.364 183.188 247.061L183.63 246.194L183.976 245.327C184.794 243.104 185.375 240.8 185.71 238.455C186.322 234.435 186.709 230.384 186.871 226.321C187.044 222.742 187.122 219.657 187.218 217.135C187.313 214.613 187.382 212.654 187.452 211.328C187.495 210.678 187.521 210.175 187.547 209.82C187.573 209.465 187.547 209.309 187.547 209.309C187.547 209.309 187.547 209.482 187.486 209.82C187.426 210.158 187.417 210.687 187.356 211.319C187.261 212.645 187.148 214.604 187.044 217.126C186.94 219.648 186.828 222.733 186.628 226.313C186.448 230.362 186.043 234.398 185.415 238.403C185.099 240.744 184.535 243.045 183.734 245.267C183.63 245.544 183.517 245.83 183.396 246.133C183.274 246.437 183.11 246.679 182.962 246.957C182.815 247.234 182.676 247.503 182.512 247.78L182 248.577C181.316 249.661 180.579 250.735 179.816 251.81C178.254 254.044 176.347 256.016 174.166 257.651C173.005 258.472 171.751 259.153 170.43 259.679C169.065 260.196 167.647 260.56 166.201 260.763C163.272 261.222 160.212 260.927 157.092 260.841C153.972 260.754 150.783 260.65 147.559 260.581C141.068 260.433 134.342 260.321 127.461 260.234L122.642 260.182L122.842 260.373C122.521 255.537 122.218 250.839 121.923 246.289L121.767 246.497L161.374 238.195H161.495V238.065C161.833 225.784 162.102 215.713 162.292 208.693C162.344 206.96 162.353 205.383 162.466 204.031C162.578 202.679 162.743 201.552 162.908 200.633C163.072 199.715 163.228 199.03 163.341 198.562C163.393 198.337 163.436 198.172 163.471 198.042C163.506 197.912 163.454 197.808 163.454 197.808Z" fill="#263238"/>
<path d="M96.7467 322.487L102.423 365.82L87.5774 368.342L77.0127 329.897L96.7467 322.487Z" fill="#FFBF9D"/>
<path d="M143.694 264.108C143.694 264.108 89.4143 260.416 78.1476 262.271C71.3356 263.397 65.4683 274.404 69.1776 281.051C70.9109 284.189 73.7016 293.956 73.7016 293.956L102.874 287.066L143.694 264.108Z" fill="#263238"/>
<path d="M102.874 293.956L114.626 312.537L100.794 321.819L85.792 297.995L102.874 293.956Z" fill="#FFBF9D"/>
<path d="M181.706 260.711C181.706 260.711 187.183 286.659 178.179 297.206C169.174 307.753 155.879 307.745 142.177 305.717C128.475 303.689 95.9667 302.987 95.9667 302.987C95.9667 302.987 97.4227 312.199 98.4801 322.677C99.5374 333.155 99.7627 339.794 99.7627 339.794L79.4047 341.527C79.4047 341.527 68.0687 305.76 66.3181 298.679C64.5674 291.599 65.1654 282.083 71.1974 278.547C76.3107 275.557 116.628 263.978 135.929 262.253L138.026 260.39L181.706 260.711Z" fill="#263238"/>
<path d="M86.0088 294.372C86.0088 294.441 86.7975 294.563 88.0108 295.005C88.7125 295.275 89.3908 295.602 90.0388 295.984C90.8289 296.471 91.5717 297.031 92.2575 297.657C92.937 298.3 93.5524 299.008 94.0948 299.771C94.5331 300.404 94.9158 301.074 95.2388 301.773C95.7935 302.969 95.9928 303.784 96.1055 303.758C96.1079 303.561 96.0786 303.365 96.0188 303.177C95.9033 302.655 95.7409 302.145 95.5335 301.652C95.2398 300.918 94.8678 300.218 94.4241 299.563C93.8866 298.763 93.2616 298.024 92.5608 297.362C91.861 296.702 91.0908 296.121 90.2641 295.629C89.5894 295.249 88.878 294.938 88.1408 294.701C87.6467 294.542 87.139 294.429 86.6241 294.363C86.4203 294.327 86.2115 294.33 86.0088 294.372Z" fill="#455A64"/>
<path d="M88.4008 272.775C88.2001 271.981 87.8371 271.237 87.3348 270.591C86.9505 269.883 86.4291 269.258 85.8008 268.753C86.1296 269.49 86.5488 270.183 87.0488 270.816C87.422 271.519 87.8757 272.176 88.4008 272.775Z" fill="#455A64"/>
<path d="M65.46 288.747C65.493 288.685 65.5136 288.618 65.5206 288.548C65.564 288.383 65.6073 288.193 65.6593 287.941C65.7806 287.421 65.9713 286.641 66.2746 285.662C66.6375 284.479 67.1226 283.338 67.722 282.256C68.4639 280.822 69.6046 279.633 71.0066 278.833C74.807 277.111 78.7257 275.662 82.7326 274.499C87.2393 273.104 92.1966 271.622 97.466 270.166C107.953 267.289 117.573 265.217 124.575 264.013C128.042 263.406 130.928 262.981 132.895 262.704L135.166 262.383L135.755 262.288L135.955 262.245H135.747L135.157 262.297L132.878 262.548C130.902 262.782 128.051 263.155 124.532 263.735C115.379 265.285 106.313 267.31 97.3706 269.802C92.1186 271.241 87.1526 272.723 82.6373 274.135C78.6174 275.312 74.6919 276.789 70.894 278.555C69.4514 279.389 68.2852 280.627 67.54 282.117C66.9505 283.22 66.4799 284.382 66.136 285.584C65.8586 286.572 65.694 287.361 65.5986 287.889C65.5553 288.141 65.5206 288.34 65.4946 288.505L65.46 288.747Z" fill="#455A64"/>
<path d="M86.4158 367.224L85.9218 365.343C92.0455 364.787 97.8105 362.21 102.311 358.02L107.346 369.287L73.7885 384.8C72.5232 381.429 86.4158 367.224 86.4158 367.224Z" fill="#455A64"/>
<path d="M107.346 369.296L106.115 366.54L74.3342 382.426C74.3342 382.426 73.1382 383.769 73.7882 384.757L107.346 369.296Z" fill="#E0E0E0"/>
<path d="M86.8665 367.007C86.9445 367.163 87.8025 366.86 88.8512 367.007C89.8998 367.155 90.6365 367.666 90.7578 367.527C90.8792 367.389 90.2032 366.548 88.9378 366.383C87.6725 366.219 86.7625 366.869 86.8665 367.007Z" fill="#263238"/>
<path d="M99.9275 365.794C99.9814 365.91 100.058 366.014 100.152 366.099C100.246 366.185 100.357 366.251 100.477 366.294C100.597 366.337 100.725 366.355 100.852 366.348C100.979 366.341 101.104 366.309 101.219 366.254C101.45 366.14 101.627 365.939 101.711 365.696C101.795 365.453 101.78 365.186 101.669 364.954C101.616 364.838 101.539 364.734 101.445 364.648C101.351 364.563 101.24 364.496 101.12 364.454C101 364.411 100.872 364.392 100.745 364.399C100.618 364.406 100.493 364.439 100.378 364.494C100.147 364.608 99.9704 364.808 99.8861 365.052C99.8017 365.295 99.8166 365.562 99.9275 365.794Z" fill="#E0E0E0"/>
<path d="M87.0658 366.773C87.3269 366.771 87.5854 366.721 87.8285 366.626C88.5381 366.456 89.1882 366.097 89.7092 365.586C89.8823 365.407 90.0309 365.206 90.1512 364.988C90.3067 364.748 90.4046 364.475 90.4372 364.191C90.4514 364.009 90.4079 363.827 90.313 363.672C90.2181 363.516 90.0766 363.394 89.9085 363.324C89.7495 363.251 89.5765 363.213 89.4015 363.213C89.2265 363.213 89.0535 363.251 88.8945 363.324C88.2739 363.65 87.753 364.138 87.3868 364.736C87.0207 365.334 86.8229 366.02 86.8145 366.721L87.3085 366.643C87.2263 366.372 87.116 366.111 86.9792 365.863C86.6219 365.212 86.0947 364.67 85.4537 364.294C84.8127 363.919 84.082 363.724 83.3392 363.731C83.1457 363.73 82.9539 363.768 82.7758 363.844C82.6785 363.898 82.594 363.972 82.5282 364.062C82.4624 364.152 82.4168 364.255 82.3945 364.364C82.3471 364.718 82.4337 365.076 82.6372 365.369C82.9621 365.836 83.4087 366.205 83.9285 366.435C84.6556 366.732 85.4423 366.854 86.2252 366.791C86.5159 366.81 86.808 366.787 87.0918 366.721C86.8133 366.625 86.5196 366.581 86.2252 366.591C85.4834 366.576 84.7523 366.411 84.0758 366.106C83.6281 365.891 83.2498 365.555 82.9838 365.135C82.8472 364.938 82.7913 364.696 82.8278 364.459C82.8278 364.269 83.0272 364.199 83.3392 364.208C83.9923 364.214 84.632 364.393 85.1926 364.728C85.7532 365.064 86.2143 365.542 86.5285 366.115C86.6448 366.335 86.7434 366.564 86.8232 366.799C86.832 366.831 86.8473 366.861 86.868 366.886C86.8887 366.912 86.9145 366.933 86.9437 366.949C86.9729 366.964 87.0049 366.974 87.0379 366.976C87.0708 366.979 87.1039 366.975 87.1352 366.964C87.1852 366.945 87.2288 366.912 87.261 366.869C87.2932 366.826 87.3126 366.775 87.3172 366.721C87.3208 366.116 87.4827 365.523 87.7868 365C88.0909 364.477 88.5266 364.042 89.0505 363.74C89.5012 363.489 90.0298 363.74 89.9952 364.121C89.9179 364.56 89.7198 364.968 89.4232 365.3C88.9432 365.8 88.3481 366.175 87.6898 366.392C87.4667 366.492 87.2571 366.621 87.0658 366.773Z" fill="#263238"/>
<path d="M84.292 369.417C85.0351 369.4 85.7782 369.455 86.5107 369.582C87.2149 369.832 87.8964 370.142 88.5473 370.509C88.3348 370.166 88.0518 369.872 87.7172 369.646C87.3825 369.42 87.0038 369.268 86.606 369.2C86.2277 369.066 85.8247 369.016 85.4251 369.054C85.0255 369.091 84.6389 369.215 84.292 369.417Z" fill="#263238"/>
<path d="M82.4199 371.626C82.4199 371.739 83.3386 371.713 84.3873 372.042C85.4359 372.372 86.1899 372.909 86.2593 372.796C85.8378 372.219 85.2224 371.813 84.5259 371.652C83.8531 371.374 83.0994 371.365 82.4199 371.626Z" fill="#263238"/>
<path d="M98.1587 319.731L97.3701 317.997C103.328 316.372 108.587 312.834 112.337 307.927L119.123 318.153L88.5648 339.213C86.7708 336.163 98.1587 319.731 98.1587 319.731Z" fill="#455A64"/>
<path d="M119.124 318.119L117.468 315.623L88.721 336.821C88.721 336.821 87.759 338.355 88.565 339.213L119.124 318.119Z" fill="#E0E0E0"/>
<path d="M98.5661 319.436C98.6701 319.583 99.4327 319.133 100.525 319.115C101.617 319.098 102.397 319.445 102.492 319.289C102.587 319.133 101.79 318.422 100.507 318.483C99.2248 318.543 98.4448 319.323 98.5661 319.436Z" fill="#263238"/>
<path d="M111.246 315.969C111.319 316.074 111.411 316.162 111.518 316.23C111.626 316.298 111.745 316.343 111.87 316.364C111.996 316.385 112.124 316.381 112.247 316.352C112.37 316.323 112.487 316.27 112.589 316.195C112.802 316.046 112.946 315.82 112.992 315.565C113.037 315.31 112.98 315.047 112.832 314.834C112.76 314.729 112.666 314.639 112.559 314.571C112.451 314.502 112.33 314.456 112.204 314.435C112.078 314.414 111.949 314.418 111.824 314.448C111.7 314.478 111.583 314.533 111.48 314.609C111.269 314.759 111.126 314.986 111.083 315.241C111.039 315.496 111.097 315.758 111.246 315.969Z" fill="#E0E0E0"/>
<path d="M98.7313 319.176C98.9877 319.125 99.2338 319.031 99.4593 318.899C100.13 318.606 100.711 318.139 101.141 317.547C101.282 317.34 101.396 317.116 101.479 316.88C101.593 316.606 101.644 316.309 101.626 316.013C101.608 315.834 101.534 315.666 101.416 315.531C101.299 315.396 101.142 315.301 100.967 315.259C100.795 315.226 100.617 315.228 100.445 315.267C100.274 315.306 100.112 315.38 99.9706 315.484C99.4155 315.915 98.9849 316.485 98.7229 317.137C98.461 317.789 98.3771 318.499 98.4799 319.193L98.9566 319.029C98.8292 318.778 98.6783 318.54 98.5059 318.318C98.0455 317.739 97.4357 317.297 96.7423 317.038C96.049 316.78 95.2983 316.716 94.5713 316.854C94.3793 316.883 94.196 316.954 94.0339 317.061C93.945 317.131 93.8725 317.218 93.8215 317.319C93.7706 317.419 93.7425 317.53 93.7393 317.642C93.7471 317.998 93.8932 318.337 94.1466 318.587C94.5329 319.008 95.0324 319.309 95.5853 319.454C96.3563 319.613 97.1534 319.595 97.9166 319.402C98.1968 319.367 98.471 319.294 98.7313 319.185C98.4446 319.134 98.1513 319.134 97.8646 319.185C97.1343 319.3 96.3881 319.265 95.6719 319.081C95.1998 318.944 94.7742 318.68 94.4413 318.318C94.2727 318.147 94.1765 317.917 94.1726 317.677C94.1726 317.477 94.3286 317.382 94.6319 317.339C95.2748 317.228 95.9357 317.291 96.5456 317.523C97.1555 317.755 97.6918 318.146 98.0986 318.656C98.2486 318.853 98.3819 319.061 98.4973 319.28C98.512 319.31 98.5324 319.336 98.5574 319.358C98.5824 319.38 98.6114 319.396 98.6428 319.407C98.6742 319.417 98.7074 319.421 98.7404 319.419C98.7735 319.417 98.8057 319.408 98.8353 319.393C98.8812 319.365 98.9185 319.326 98.943 319.278C98.9675 319.231 98.9782 319.177 98.9739 319.124C98.8829 318.522 98.9501 317.907 99.1689 317.338C99.3877 316.77 99.7506 316.268 100.222 315.883C100.629 315.554 101.184 315.675 101.21 316.082C101.209 316.53 101.083 316.968 100.846 317.348C100.465 317.918 99.9542 318.391 99.3553 318.726C98.9479 318.994 98.7139 319.141 98.7313 319.176Z" fill="#263238"/>
<path d="M96.4258 322.261C97.1543 322.121 97.8939 322.046 98.6358 322.036C99.3711 322.156 100.094 322.345 100.794 322.599C100.527 322.297 100.199 322.055 99.8313 321.889C99.4637 321.723 99.065 321.637 98.6618 321.637C98.2661 321.573 97.8612 321.596 97.4751 321.703C97.089 321.811 96.731 322.001 96.4258 322.261Z" fill="#263238"/>
<path d="M94.9346 324.766C94.9346 324.879 95.8532 324.697 96.9452 324.835C98.0372 324.974 98.8519 325.364 98.9039 325.26C98.3938 324.752 97.7086 324.457 96.9886 324.437C96.2868 324.286 95.5539 324.403 94.9346 324.766Z" fill="#263238"/>
</svg>
