<svg width="750" height="750" viewBox="0 0 750 750" fill="none" xmlns="http://www.w3.org/2000/svg">
<path d="M719.82 697.38C719.82 697.59 570.015 697.77 385.32 697.77C200.625 697.77 50.7305 697.59 50.7305 697.38C50.7305 697.17 200.505 696.99 385.32 696.99C570.135 696.99 719.82 697.155 719.82 697.38Z" fill="#263238"/>
<path d="M609.945 567.51C624.375 572.55 643.185 568.05 655.53 559.035C667.875 550.02 676.755 537.105 684.63 524.01C687.975 518.415 691.26 512.595 692.325 506.16C693.39 499.725 691.815 492.48 686.835 488.28C679.08 481.755 667.2 485.07 658.335 490.08C644.585 498.089 632.989 509.323 624.548 522.812C616.108 536.302 611.075 551.642 609.885 567.51" fill="#F0C901"/>
<path d="M625.5 602.04C634.17 613.47 649.05 618.54 663.39 619.215C677.73 619.89 691.89 615.93 705.255 610.785C710.115 608.925 715.44 606.36 717.105 601.44C717.624 599.533 717.664 597.528 717.222 595.602C716.78 593.676 715.869 591.889 714.57 590.4C711.914 587.467 708.598 585.209 704.895 583.815C691.71 578.205 676.62 577.935 662.745 581.535C648.87 585.135 636.765 593.175 625.5 602.04Z" fill="#F0C901"/>
<path d="M609.735 505.695C621.735 505.935 630.735 495.48 636.12 484.83C643.626 469.936 646.12 453.016 643.23 436.59C642.135 430.485 639.825 423.9 634.365 420.96C628.905 418.02 621.6 419.955 616.95 424.2C612.3 428.445 609.75 434.505 607.95 440.52C601.53 461.265 602.91 485.115 609.795 505.695" fill="#F0C901"/>
<path d="M570.495 571.755C590.865 537.105 594.255 494.7 582.225 456.345C580.275 450.12 576.6 443.01 570.09 442.59C562.89 442.14 558.36 450.18 556.38 457.11C549.39 481.47 550.875 507.33 552.42 532.62C553.38 548.205 558.72 561.525 570.495 571.755Z" fill="#F0C901"/>
<path d="M549.33 586.005C545.536 574.133 539.128 563.263 530.577 554.195C522.026 545.127 511.55 538.093 499.92 533.61C494.505 531.585 487.635 530.415 483.6 534.555C479.565 538.695 480.87 545.4 483.405 550.47C487.5 558.645 494.16 565.23 500.79 571.47C506.79 577.215 513.09 582.975 520.71 586.32C528.33 589.665 542.355 590.49 549.33 585.945" fill="#F0C901"/>
<path d="M675.57 496.98C675.57 496.98 675.465 497.1 675.21 497.295L674.115 498.15L669.855 501.33L666.75 503.625C665.64 504.48 664.485 505.485 663.21 506.52C660.69 508.62 657.705 510.885 654.705 513.735L649.905 518.1C648.24 519.6 646.65 521.355 644.925 523.05C641.415 526.425 638.025 530.355 634.425 534.42C618.904 552.389 606.342 572.713 597.21 594.63C595.215 599.715 593.205 604.515 591.765 609.15C591.015 611.46 590.175 613.65 589.56 615.825L587.805 622.065C586.59 626.025 585.9 629.7 585.135 632.895C584.79 634.5 584.415 635.985 584.145 637.395C583.875 638.805 583.68 640.035 583.485 641.19C583.08 643.41 582.765 645.165 582.54 646.44C582.42 646.98 582.345 647.43 582.27 647.79C582.195 648.15 582.165 648.255 582.135 648.255C582.118 648.095 582.118 647.934 582.135 647.775C582.135 647.415 582.24 646.965 582.315 646.41C582.495 645.12 582.765 643.41 583.08 641.13C583.26 639.975 583.455 638.7 583.665 637.32C583.875 635.94 584.25 634.425 584.58 632.82C585.3 629.61 585.945 625.905 587.115 621.93C587.655 619.92 588.225 617.82 588.825 615.645C589.425 613.47 590.235 611.25 590.97 608.925C592.47 604.26 594.375 599.43 596.37 594.315C605.458 572.269 618.078 551.851 633.735 533.865C637.41 529.815 640.845 525.885 644.385 522.525C646.125 520.815 647.745 519.105 649.425 517.59L654.285 513.255C657.285 510.435 660.285 508.2 662.895 506.13C664.2 505.11 665.37 504.135 666.51 503.295L669.66 501.06L674.04 498.06L675.195 497.295C675.42 497.04 675.555 496.965 675.57 496.98Z" fill="#263238"/>
<path d="M702.54 593.04C702.064 593.007 701.592 592.932 701.13 592.815C700.23 592.65 698.91 592.29 697.17 592.005C678.622 588.314 659.43 589.558 641.514 595.612C623.598 601.667 607.586 612.319 595.08 626.505C591.788 630.209 588.747 634.128 585.975 638.235C584.955 639.735 584.28 640.845 583.755 641.61C583.519 642.021 583.242 642.408 582.93 642.765C583.109 642.325 583.33 641.903 583.59 641.505C584.055 640.71 584.685 639.495 585.66 638.025C588.326 633.808 591.304 629.797 594.57 626.025C605.357 613.494 618.928 603.664 634.198 597.321C649.467 590.979 666.009 588.3 682.5 589.5C687.472 589.826 692.411 590.533 697.275 591.615C699 591.96 700.275 592.365 701.22 592.59C701.669 592.711 702.11 592.861 702.54 593.04Z" fill="#263238"/>
<path d="M627.33 434.805C627.332 434.987 627.306 435.169 627.255 435.345C627.165 435.75 627.06 436.26 626.925 436.845C626.61 438.345 626.16 440.28 625.59 442.845C624.42 448.02 622.59 455.49 620.385 464.715C615.885 483.165 609.375 508.575 602.58 536.715C599.205 550.8 596.16 564.255 593.58 576.525C591 588.795 588.795 599.88 587.16 609.225C586.275 613.89 585.66 618.135 584.985 621.855C584.31 625.575 583.86 628.77 583.485 631.395C583.11 634.02 582.78 635.985 582.555 637.395C582.435 638.04 582.345 638.55 582.285 638.895C582.225 639.24 582.18 639.435 582.15 639.435C582.134 639.255 582.134 639.074 582.15 638.895C582.15 638.475 582.255 637.965 582.33 637.305C582.51 635.805 582.765 633.825 583.095 631.305C583.425 628.785 583.86 625.455 584.445 621.72C585.03 617.985 585.63 613.74 586.47 609.075C587.97 599.7 590.16 588.6 592.71 576.3C595.26 564 598.32 550.545 601.71 536.445C608.505 508.29 615.135 482.91 619.71 464.445L625.215 442.65C625.86 440.13 626.37 438.15 626.715 436.725C626.88 436.095 627.015 435.6 627.135 435.225C627.185 435.078 627.25 434.937 627.33 434.805Z" fill="#263238"/>
<path d="M580.575 636.765C580.511 636.632 580.466 636.491 580.44 636.345L580.17 635.1C579.915 633.915 579.585 632.295 579.165 630.27C578.295 626.085 577.155 619.995 575.85 612.45C573.24 597.375 570.135 576.45 568.245 553.155C567.315 541.5 566.745 530.385 566.58 520.26C566.415 510.135 566.505 501.015 566.82 493.365C566.91 489.54 567.165 486.09 567.33 483.045C567.495 480 567.69 477.405 567.9 475.275C568.11 473.145 568.23 471.57 568.35 470.37C568.35 469.86 568.455 469.44 568.485 469.095C568.515 468.75 568.485 468.66 568.575 468.66C568.592 468.81 568.592 468.961 568.575 469.11C568.575 469.455 568.575 469.875 568.575 470.385C568.575 471.585 568.41 473.235 568.29 475.305C568.17 477.375 567.99 480.045 567.885 483.075C567.78 486.105 567.57 489.57 567.525 493.395C567.3 501.03 567.27 510.135 567.525 520.245C567.78 530.355 568.335 541.44 569.25 553.065C571.155 576.315 574.14 597.24 576.585 612.345C577.8 619.845 578.835 625.995 579.585 630.195C579.93 632.25 580.215 633.87 580.41 635.055C580.485 635.565 580.545 635.985 580.605 636.33C580.612 636.476 580.602 636.622 580.575 636.765Z" fill="#263238"/>
<path d="M582.075 641.16C581.863 640.782 581.687 640.385 581.55 639.975L580.215 636.48C579.915 635.715 579.6 634.875 579.255 633.96L577.95 631.035C577.485 629.985 576.975 628.86 576.45 627.66C575.925 626.46 575.25 625.275 574.605 623.97C573.96 622.665 573.24 621.345 572.52 619.935L570 615.675C568.365 612.675 566.25 609.675 564.21 606.48C559.515 599.667 554.437 593.126 549 586.89C543.438 580.715 537.56 574.832 531.39 569.265C528.465 566.805 525.78 564.33 523.08 562.26L519.225 559.26L515.565 556.56C513.255 554.82 511.065 553.35 509.175 552.06C507.285 550.77 505.62 549.645 504.24 548.82L501 546.75C500.62 546.537 500.263 546.286 499.935 546C500.341 546.159 500.733 546.355 501.105 546.585L504.345 548.43C505.77 549.225 507.465 550.275 509.385 551.55C511.305 552.825 513.54 554.22 515.88 555.945L519.6 558.6L523.5 561.6C526.245 563.64 528.945 566.1 531.9 568.56C538.128 574.111 544.047 580 549.63 586.2C555.148 592.481 560.277 599.094 564.99 606C567.015 609.27 569.115 612.27 570.735 615.285C571.575 616.785 572.385 618.21 573.18 619.605L575.205 623.685C575.835 625.005 576.495 626.22 577.005 627.42L578.505 630.84L579.735 633.84C580.065 634.77 580.35 635.625 580.62 636.405C581.1 637.905 581.49 639.045 581.79 639.945C581.935 640.336 582.031 640.745 582.075 641.16Z" fill="#263238"/>
<path d="M668.025 537.18C668.025 537.33 665.55 537.33 661.59 537.54C656.431 537.838 651.296 538.459 646.215 539.4C641.135 540.377 636.124 541.685 631.215 543.315C627.45 544.56 625.215 545.46 625.095 545.325C625.551 544.977 626.057 544.699 626.595 544.5C627.6 544.005 629.085 543.375 630.96 542.67C640.738 539.02 651.065 537.057 661.5 536.865C663.495 536.865 665.115 536.865 666.225 536.955C666.833 536.93 667.441 537.006 668.025 537.18Z" fill="#263238"/>
<path d="M683.385 612.195C683.085 612.345 680.79 605.715 675 599.565C669.21 593.415 662.835 590.565 663 590.265C664.47 590.648 665.868 591.266 667.14 592.095C673.526 595.772 678.65 601.293 681.84 607.935C682.57 609.268 683.091 610.705 683.385 612.195Z" fill="#263238"/>
<path d="M630.99 462.93C631.185 463.14 627.435 466.86 623.355 471.93C619.275 477 616.35 481.365 616.11 481.215C615.87 481.065 618.45 476.4 622.605 471.315C624.99 468.138 627.813 465.315 630.99 462.93Z" fill="#263238"/>
<path d="M618.69 441.69C618.96 441.69 619.785 445.245 620.55 449.73C621.315 454.215 621.72 457.875 621.465 457.92C621.21 457.965 620.37 454.365 619.605 449.88C618.84 445.395 618.435 441.735 618.69 441.69Z" fill="#263238"/>
<path d="M580.605 508.365C580.83 508.485 578.175 514.095 574.605 520.905C571.035 527.715 568.035 533.13 567.795 533.01C567.555 532.89 570.225 527.265 573.795 520.455C577.365 513.645 580.365 508.245 580.605 508.365Z" fill="#263238"/>
<path d="M558 485.73C558.24 485.61 560.505 489.675 563.055 494.805C565.605 499.935 567.48 504.18 567.255 504.3C567.03 504.42 564.75 500.355 562.2 495.225C559.65 490.095 557.685 485.85 558 485.73Z" fill="#263238"/>
<path d="M524.61 563.13C524.61 563.415 520.5 562.62 515.46 562.275C510.42 561.93 506.31 562.125 506.28 561.84C506.25 561.555 510.39 560.94 515.535 561.315C520.68 561.69 524.67 562.89 524.61 563.13Z" fill="#263238"/>
<path d="M547.365 631.575L558.705 691.185C559.066 693.097 560.083 694.822 561.581 696.063C563.08 697.304 564.965 697.982 566.91 697.98H600.405C602.384 697.981 604.299 697.279 605.807 695.998C607.316 694.718 608.32 692.942 608.64 690.99L618.495 631.575H547.365Z" fill="#1A43BF"/>
<path d="M551.055 650.955H615.09L618.495 631.575H547.365L551.055 650.955Z" fill="#1A43BF"/>
<path d="M551.055 650.955L552.39 658.02H614.115L615.09 650.955H551.055Z" fill="#FAFAFA"/>
<path d="M290.385 689.565L294.255 673.065L326.4 673.86L323.715 697.335L321.675 697.5C312.57 698.115 275.355 699.99 269.175 698.22C262.5 696.225 290.385 689.565 290.385 689.565Z" fill="#0A2471"/>
<g opacity="0.4">
<path d="M311.745 697.215C312.196 694.421 313.665 691.894 315.87 690.12C318.027 688.355 320.768 687.467 323.55 687.63L323.67 696.855L311.745 697.215Z" fill="black"/>
</g>
<g opacity="0.4">
<path d="M276.735 693.315C276.735 693.315 266.94 696.315 268.185 697.815C269.43 699.315 307.185 698.94 323.685 697.275V696.54L279.735 697.47C279.735 697.47 278.655 693.36 276.735 693.315Z" fill="black"/>
</g>
<path d="M324.165 696.555C323.978 696.602 323.787 696.627 323.595 696.63L321.975 696.75L315.975 697.08C310.92 697.335 303.975 697.575 296.175 697.68C288.375 697.785 281.43 697.68 276.36 697.68L270.36 697.5H268.725H268.17C268.359 697.477 268.551 697.477 268.74 697.5H270.36H276.36C281.415 697.5 288.36 697.5 296.16 697.5C303.96 697.5 310.89 697.185 315.945 697.005L321.945 696.81H323.58L324.165 696.555Z" fill="#263238"/>
<path d="M279.72 698.04C279.445 697.049 279.057 696.093 278.565 695.19C277.962 694.351 277.262 693.586 276.48 692.91C277.508 693.279 278.366 694.01 278.895 694.965C279.536 695.855 279.829 696.949 279.72 698.04Z" fill="#263238"/>
<path d="M289.395 693C289.305 693 288.825 692.505 288.33 691.74C287.835 690.975 287.52 690.33 287.61 690.24C287.7 690.15 288.18 690.75 288.675 691.5C289.17 692.25 289.5 692.91 289.395 693Z" fill="#263238"/>
<path d="M292.05 691.5C292.05 691.575 291.45 691.23 290.88 690.735C290.31 690.24 289.89 689.745 289.965 689.67C290.04 689.595 290.565 689.925 291.135 690.435C291.705 690.945 292.125 691.5 292.05 691.5Z" fill="#263238"/>
<path d="M293.7 688.38C293.153 688.599 292.562 688.686 291.975 688.635C291.395 688.705 290.806 688.649 290.25 688.47C290.799 688.261 291.389 688.179 291.975 688.23C292.554 688.151 293.143 688.203 293.7 688.38Z" fill="#263238"/>
<path d="M294.255 686.175C293.662 686.501 293.008 686.7 292.334 686.759C291.66 686.819 290.981 686.737 290.34 686.52C290.989 686.415 291.647 686.364 292.305 686.37C292.948 686.25 293.6 686.185 294.255 686.175Z" fill="#263238"/>
<path d="M288.24 690.105C287.535 690.226 286.815 690.226 286.11 690.105C285.342 690.018 284.584 689.862 283.845 689.64C283.398 689.509 282.966 689.333 282.555 689.115C282.301 688.984 282.104 688.766 282 688.5C281.964 688.342 281.975 688.178 282.031 688.026C282.087 687.874 282.186 687.742 282.315 687.645C283.121 687.238 284.042 687.124 284.923 687.321C285.804 687.517 286.589 688.014 287.145 688.725C287.478 689.139 287.719 689.62 287.85 690.135C287.94 690.495 287.94 690.69 287.85 690.705C287.629 690.051 287.293 689.442 286.86 688.905C286.377 688.348 285.74 687.947 285.03 687.75C284.617 687.617 284.181 687.567 283.749 687.603C283.316 687.639 282.895 687.76 282.51 687.96C282.18 688.2 282.315 688.605 282.69 688.815C283.069 689.026 283.472 689.192 283.89 689.31C284.605 689.547 285.337 689.727 286.08 689.85C287.43 690 288.24 690 288.24 690.105Z" fill="#263238"/>
<path d="M287.685 690.225C287.42 689.773 287.329 689.24 287.43 688.725C287.495 688.189 287.685 687.675 287.985 687.225C288.158 686.906 288.411 686.636 288.718 686.442C289.025 686.248 289.377 686.135 289.74 686.115C289.956 686.159 290.146 686.285 290.269 686.468C290.393 686.65 290.44 686.874 290.4 687.09C290.359 687.427 290.241 687.751 290.055 688.035C289.782 688.511 289.449 688.949 289.065 689.34C288.405 690 287.895 690.255 287.865 690.21C287.835 690.165 288.285 689.82 288.855 689.145C289.191 688.748 289.483 688.316 289.725 687.855C290.01 687.405 290.205 686.61 289.725 686.52C289.245 686.43 288.645 687 288.33 687.435C288.037 687.847 287.837 688.318 287.745 688.815C287.686 689.283 287.666 689.754 287.685 690.225Z" fill="#263238"/>
<path d="M323.385 687.54C323.385 687.615 322.44 687.465 320.94 687.66C318.997 687.89 317.16 688.671 315.646 689.909C314.131 691.147 313.001 692.792 312.389 694.65C311.894 696.075 311.865 697.035 311.79 697.02C311.745 696.802 311.745 696.578 311.79 696.36C311.844 695.755 311.96 695.157 312.135 694.575C312.702 692.628 313.846 690.899 315.414 689.614C316.983 688.329 318.904 687.548 320.925 687.375C321.528 687.311 322.136 687.311 322.74 687.375C322.964 687.385 323.183 687.442 323.385 687.54Z" fill="#263238"/>
<path d="M319.785 673.845C320.035 676.097 320.16 678.36 320.16 680.625C320.288 682.883 320.288 685.147 320.16 687.405C319.902 685.16 319.777 682.901 319.785 680.64C319.658 678.377 319.658 676.108 319.785 673.845Z" fill="#263238"/>
<path d="M307.5 694.05C304.324 694.699 301.057 694.77 297.855 694.26C297.855 694.14 300.03 694.26 302.685 694.26C305.34 694.26 307.5 693.93 307.5 694.05Z" fill="#263238"/>
<path d="M314.01 693.96C314.1 694.035 313.845 694.41 313.635 694.905C313.425 695.4 313.305 695.85 313.185 695.835C313.065 695.82 313.02 695.325 313.26 694.755C313.5 694.185 313.95 693.87 314.01 693.96Z" fill="#263238"/>
<path d="M316.41 690.885C316.5 690.96 316.29 691.305 315.945 691.665C315.6 692.025 315.27 692.235 315.195 692.16C315.12 692.085 315.33 691.74 315.66 691.38C315.99 691.02 316.335 690.81 316.41 690.885Z" fill="#263238"/>
<path d="M319.89 689.46C319.89 689.565 319.425 689.58 318.945 689.745C318.465 689.91 318.12 690.195 318.03 690.12C317.94 690.045 318.21 689.58 318.81 689.37C319.41 689.16 319.92 689.355 319.89 689.46Z" fill="#263238"/>
<path d="M322.365 688.77C322.365 688.875 322.215 689.055 321.945 689.16C321.675 689.265 321.42 689.265 321.375 689.16C321.33 689.055 321.525 688.875 321.795 688.77C322.065 688.665 322.32 688.665 322.365 688.77Z" fill="#263238"/>
<path d="M421.92 689.64L422.025 672.03L389.025 671.625L388.605 697.41L390.66 697.56C399.75 698.175 436.98 700.05 443.085 698.28C449.88 696.3 421.92 689.64 421.92 689.64Z" fill="#0A2471"/>
<g opacity="0.4">
<path d="M400.5 697.29C400.047 694.497 398.578 691.971 396.375 690.195C394.215 688.437 391.476 687.549 388.695 687.705L388.575 696.93L400.5 697.29Z" fill="black"/>
</g>
<g opacity="0.4">
<path d="M435.57 693.39C435.57 693.39 445.365 696.39 444.12 697.89C442.875 699.39 405.195 699.015 388.62 697.35V696.6L432.57 697.545C432.57 697.545 433.65 693.45 435.57 693.39Z" fill="black"/>
</g>
<path d="M388.14 696.645H388.71L390.33 696.765L396.33 697.11C401.385 697.35 408.33 697.59 416.13 697.71C423.93 697.83 430.875 697.71 435.945 697.635L441.945 697.47H443.58H444.15C443.96 697.448 443.769 697.448 443.58 697.47H441.945H435.945C430.875 697.47 423.87 697.47 416.13 697.47C408.39 697.47 401.4 697.155 396.345 696.99L390.345 696.78H388.71L388.14 696.645Z" fill="#263238"/>
<path d="M432.585 698.115C432.864 697.125 433.251 696.169 433.74 695.265C434.337 694.425 435.037 693.664 435.825 693C434.789 693.354 433.926 694.089 433.41 695.055C432.773 695.941 432.48 697.029 432.585 698.115Z" fill="#263238"/>
<path d="M422.91 693C423 693 423.48 692.505 423.975 691.755C424.47 691.005 424.785 690.345 424.695 690.255C424.605 690.165 424.125 690.75 423.63 691.5C423.135 692.25 422.82 693 422.91 693Z" fill="#263238"/>
<path d="M420.255 691.605C420.33 691.68 420.855 691.35 421.44 690.84C422.025 690.33 422.415 689.865 422.34 689.775C422.265 689.685 421.74 690.03 421.17 690.54C420.6 691.05 420.18 691.5 420.255 691.605Z" fill="#263238"/>
<path d="M418.605 688.5C419.157 688.701 419.745 688.783 420.33 688.74C420.91 688.819 421.501 688.762 422.055 688.575C421.509 688.375 420.926 688.293 420.345 688.335C419.76 688.257 419.165 688.313 418.605 688.5Z" fill="#263238"/>
<path d="M418.065 686.265C418.655 686.591 419.307 686.791 419.979 686.85C420.651 686.91 421.327 686.828 421.965 686.61C421.322 686.494 420.669 686.439 420.015 686.445C419.373 686.317 418.72 686.257 418.065 686.265Z" fill="#263238"/>
<path d="M424.065 690.18C424.769 690.31 425.491 690.31 426.195 690.18C426.964 690.1 427.723 689.945 428.46 689.715C428.905 689.583 429.336 689.413 429.75 689.205C430.002 689.055 430.193 688.821 430.29 688.545C430.326 688.388 430.315 688.223 430.259 688.071C430.203 687.92 430.105 687.787 429.975 687.69C429.171 687.288 428.253 687.175 427.375 687.372C426.498 687.569 425.715 688.063 425.16 688.77C424.818 689.18 424.572 689.662 424.44 690.18C424.397 690.368 424.397 690.563 424.44 690.75C424.662 690.097 424.997 689.487 425.43 688.95C425.918 688.398 426.553 687.998 427.26 687.795C427.674 687.662 428.109 687.612 428.541 687.648C428.974 687.684 429.395 687.806 429.78 688.005C430.11 688.26 429.975 688.65 429.6 688.875C429.219 689.078 428.817 689.239 428.4 689.355C427.687 689.6 426.954 689.785 426.21 689.91C424.875 690.12 424.065 690.12 424.065 690.18Z" fill="#263238"/>
<path d="M424.62 690.3C424.886 689.848 424.976 689.314 424.875 688.8C424.808 688.264 424.618 687.751 424.32 687.3C424.147 686.981 423.894 686.711 423.587 686.517C423.28 686.322 422.928 686.21 422.565 686.19C422.351 686.237 422.163 686.364 422.041 686.546C421.918 686.727 421.869 686.949 421.905 687.165C421.949 687.506 422.066 687.834 422.25 688.125C422.527 688.593 422.859 689.026 423.24 689.415C423.9 690.075 424.41 690.33 424.44 690.285C424.47 690.24 424.02 689.91 423.45 689.22C423.114 688.829 422.822 688.401 422.58 687.945C422.295 687.495 422.1 686.685 422.58 686.595C423.06 686.505 423.645 687.075 423.96 687.51C424.253 687.922 424.453 688.393 424.545 688.89C424.61 689.357 424.635 689.829 424.62 690.3Z" fill="#263238"/>
<path d="M388.92 687.615C388.92 687.615 389.88 687.54 391.365 687.735C393.308 687.972 395.143 688.756 396.657 689.996C398.171 691.237 399.301 692.882 399.915 694.74C400.41 696.15 400.44 697.11 400.515 697.095C400.56 696.877 400.56 696.653 400.515 696.435C400.468 695.829 400.352 695.23 400.17 694.65C399.595 692.708 398.457 690.98 396.9 689.685C395.319 688.415 393.399 687.638 391.38 687.45C390.777 687.386 390.168 687.386 389.565 687.45C389.344 687.478 389.127 687.534 388.92 687.615Z" fill="#263238"/>
<path d="M392.52 673.92C392.271 676.171 392.146 678.435 392.145 680.7C392.018 682.963 392.018 685.232 392.145 687.495C392.404 685.244 392.529 682.98 392.52 680.715C392.648 678.452 392.648 676.183 392.52 673.92Z" fill="#263238"/>
<path d="M404.76 694.125C407.936 694.774 411.203 694.845 414.405 694.335C414.405 694.23 412.23 694.335 409.575 694.26C406.92 694.185 404.775 694.005 404.76 694.125Z" fill="#263238"/>
<path d="M398.295 694.035C398.205 694.11 398.46 694.485 398.67 694.995C398.88 695.505 399 695.925 399.12 695.925C399.24 695.925 399.3 695.4 399.045 694.83C398.79 694.26 398.355 693.96 398.295 694.035Z" fill="#263238"/>
<path d="M395.895 690.975C395.805 691.05 396.015 691.395 396.36 691.74C396.705 692.085 397.035 692.31 397.11 692.235C397.185 692.16 396.975 691.815 396.645 691.47C396.315 691.125 396 690.885 395.895 690.975Z" fill="#263238"/>
<path d="M392.415 689.535C392.415 689.655 392.88 689.655 393.36 689.835C393.84 690.015 394.185 690.27 394.275 690.195C394.365 690.12 394.095 689.655 393.495 689.445C392.895 689.235 392.385 689.43 392.415 689.535Z" fill="#263238"/>
<path d="M390 688.845C390 688.95 390.15 689.13 390.42 689.235C390.69 689.34 390.945 689.355 390.99 689.235C391.035 689.115 390.84 688.965 390.57 688.845C390.3 688.725 390 688.755 390 688.845Z" fill="#263238"/>
<path d="M440.685 367.98L425.67 685.485L384.465 686.46L387.705 411.165L326.04 686.985L290.955 685.395L345.975 368.625L440.685 367.98Z" fill="#00072C"/>
<path d="M397.815 372.27C397.82 374.017 397.694 375.762 397.44 377.49C397.095 380.7 396.57 385.125 395.94 390.015C395.717 392.338 395.336 394.644 394.8 396.915C394.323 398.826 393.277 400.547 391.8 401.85C390.807 402.723 389.602 403.318 388.305 403.575C387.837 403.689 387.348 403.689 386.88 403.575C388.63 403.275 390.25 402.457 391.531 401.227C392.812 399.997 393.694 398.412 394.065 396.675C394.543 394.427 394.893 392.153 395.115 389.865C395.76 384.99 396.375 380.565 396.87 377.385C397.038 375.656 397.354 373.945 397.815 372.27Z" fill="#455A64"/>
<path d="M387.66 374.16C387.78 374.235 387.39 374.76 387.66 375.585C387.723 375.806 387.832 376.01 387.979 376.186C388.127 376.362 388.309 376.505 388.515 376.605C388.772 376.701 389.05 376.72 389.317 376.658C389.584 376.597 389.827 376.458 390.015 376.26C390.23 376.083 390.385 375.844 390.46 375.576C390.535 375.308 390.527 375.023 390.435 374.76C390.343 374.55 390.208 374.361 390.041 374.203C389.873 374.046 389.676 373.924 389.46 373.845C388.65 373.53 388.11 373.845 388.035 373.77C387.96 373.695 388.47 373.035 389.625 373.245C389.949 373.321 390.251 373.468 390.511 373.676C390.77 373.883 390.98 374.146 391.125 374.445C391.274 374.856 391.298 375.302 391.196 375.727C391.093 376.152 390.869 376.537 390.549 376.836C390.23 377.134 389.83 377.333 389.399 377.406C388.969 377.48 388.526 377.426 388.125 377.25C387.825 377.088 387.567 376.856 387.374 376.575C387.181 376.293 387.058 375.969 387.015 375.63C386.91 374.55 387.63 374.055 387.66 374.16Z" fill="#455A64"/>
<path d="M361.5 379.635C360.861 378.235 360.583 376.697 360.69 375.162C360.798 373.627 361.288 372.143 362.115 370.845C362.355 370.935 361.71 372.825 361.56 375.21C361.41 377.595 361.755 379.5 361.5 379.635Z" fill="#455A64"/>
<path d="M367.38 379.035C366.755 377.581 366.458 376.008 366.51 374.426C366.562 372.845 366.961 371.294 367.68 369.885C367.67 371.389 367.569 372.892 367.38 374.385C367.472 375.933 367.472 377.486 367.38 379.035Z" fill="#455A64"/>
<path d="M418.095 378.45C418.003 376.87 418.038 375.285 418.2 373.71C418.074 372.128 418.074 370.538 418.2 368.955C419.367 372.022 419.319 375.418 418.065 378.45H418.095Z" fill="#455A64"/>
<path d="M424.5 377.865C424.26 377.775 424.95 375.69 425.025 373.035C425.1 370.38 424.575 368.25 424.815 368.175C425.716 369.631 426.092 371.351 425.88 373.05C425.973 374.764 425.487 376.46 424.5 377.865Z" fill="#455A64"/>
<path d="M415.065 168.9C416.745 166.905 418.065 163.35 417.03 160.95C419.04 159.915 419.22 158.13 419.22 155.88C419.105 153.617 418.435 151.418 417.27 149.475C415.69 146.174 413.169 143.413 410.025 141.54C408.441 140.632 406.631 140.192 404.807 140.272C402.983 140.351 401.219 140.947 399.72 141.99C398.642 140.71 397.319 139.66 395.827 138.901C394.336 138.142 392.708 137.691 391.039 137.573C389.37 137.456 387.694 137.675 386.112 138.217C384.529 138.759 383.071 139.614 381.825 140.73C381.039 141.677 380.125 142.51 379.11 143.205C377.325 144.195 375.135 143.82 373.11 144.015C371.451 144.158 369.85 144.694 368.439 145.578C367.028 146.462 365.847 147.668 364.994 149.099C364.141 150.529 363.641 152.141 363.534 153.803C363.427 155.464 363.717 157.128 364.38 158.655C362.962 159.65 361.79 160.955 360.951 162.47C360.111 163.985 359.627 165.671 359.535 167.4C359.393 170.855 359.788 174.311 360.705 177.645C361.635 181.8 362.685 186.165 365.625 189.24C367.666 191.352 370.407 192.648 373.335 192.885C375.419 193.024 377.504 192.63 379.393 191.741C381.283 190.851 382.914 189.495 384.135 187.8" fill="#263238"/>
<path d="M371.16 239.685L404.49 238.185C404.685 234.645 402.87 212.685 402.87 212.685C402.87 212.685 415.47 210.735 415.635 198.135C415.8 185.535 413.595 156.615 413.595 156.615C406.434 153.537 398.581 152.426 390.848 153.396C383.114 154.367 375.779 157.383 369.6 162.135L367.74 163.635L371.16 239.685Z" fill="#B78876"/>
<path d="M402.9 212.55C397.058 212.673 391.313 211.049 386.4 207.885C386.4 207.885 390.285 216.885 402.9 215.82V212.55Z" fill="#AA6550"/>
<path d="M369.285 176.67C369.075 176.58 360.63 174.105 360.915 182.67C361.2 191.235 369.78 189.24 369.78 188.985C369.78 188.73 369.285 176.67 369.285 176.67Z" fill="#B78876"/>
<path d="M367.05 185.85C367.05 185.85 366.9 185.97 366.645 186.09C366.289 186.232 365.891 186.232 365.535 186.09C364.964 185.757 364.492 185.276 364.17 184.698C363.848 184.12 363.688 183.466 363.705 182.805C363.658 182.067 363.781 181.328 364.065 180.645C364.138 180.376 364.274 180.128 364.462 179.922C364.65 179.716 364.884 179.558 365.145 179.46C365.317 179.409 365.501 179.421 365.666 179.492C365.83 179.563 365.964 179.69 366.045 179.85C366.165 180.09 366.12 180.255 366.165 180.27C366.21 180.285 366.345 180.12 366.27 179.76C366.21 179.551 366.084 179.366 365.91 179.235C365.79 179.148 365.654 179.086 365.51 179.053C365.365 179.019 365.216 179.015 365.07 179.04C364.723 179.128 364.403 179.302 364.141 179.545C363.879 179.789 363.683 180.095 363.57 180.435C363.223 181.191 363.069 182.02 363.12 182.85C363.104 183.618 363.314 184.373 363.725 185.021C364.136 185.67 364.729 186.182 365.43 186.495C365.663 186.554 365.907 186.561 366.143 186.514C366.379 186.467 366.602 186.369 366.795 186.225C367.035 186 367.08 185.865 367.05 185.85Z" fill="#AA6550"/>
<path d="M410.82 176.4C410.829 176.869 410.652 177.321 410.33 177.661C410.007 178 409.564 178.2 409.095 178.215C408.866 178.234 408.636 178.206 408.418 178.134C408.2 178.062 407.998 177.947 407.825 177.797C407.651 177.646 407.51 177.462 407.409 177.255C407.308 177.049 407.249 176.825 407.235 176.595C407.231 176.128 407.409 175.677 407.731 175.339C408.053 175 408.494 174.8 408.96 174.78C409.19 174.76 409.421 174.786 409.64 174.857C409.859 174.928 410.062 175.043 410.236 175.194C410.409 175.345 410.551 175.53 410.651 175.737C410.752 175.945 410.809 176.17 410.82 176.4Z" fill="#263238"/>
<path d="M411.21 174.375C411 174.615 409.635 173.595 407.7 173.61C405.765 173.625 404.34 174.585 404.13 174.345C403.92 174.105 404.25 173.82 404.865 173.37C405.706 172.788 406.707 172.48 407.73 172.485C408.736 172.48 409.719 172.796 410.535 173.385C411.12 173.85 411.33 174.27 411.21 174.375Z" fill="#263238"/>
<path d="M391.86 176.85C391.869 177.318 391.692 177.771 391.37 178.111C391.047 178.45 390.604 178.649 390.135 178.665C389.906 178.683 389.676 178.656 389.458 178.584C389.24 178.512 389.038 178.397 388.865 178.246C388.691 178.096 388.55 177.912 388.449 177.705C388.348 177.499 388.289 177.274 388.275 177.045C388.271 176.575 388.451 176.123 388.776 175.783C389.101 175.444 389.546 175.246 390.015 175.23C390.244 175.212 390.473 175.239 390.691 175.311C390.908 175.384 391.109 175.499 391.281 175.65C391.453 175.801 391.593 175.985 391.692 176.191C391.792 176.397 391.849 176.621 391.86 176.85Z" fill="#263238"/>
<path d="M392.19 174.735C391.965 174.975 390.6 173.955 388.665 173.97C386.73 173.985 385.305 174.945 385.095 174.705C384.885 174.465 385.215 174.18 385.845 173.73C386.681 173.148 387.677 172.839 388.695 172.845C389.702 172.84 390.684 173.155 391.5 173.745C392.1 174.21 392.295 174.63 392.19 174.735Z" fill="#263238"/>
<path d="M399.21 189.09C400.234 188.777 401.291 188.586 402.36 188.52C402.855 188.52 403.32 188.37 403.41 188.04C403.443 187.519 403.329 186.999 403.08 186.54L401.58 182.775C400.23 179.586 399.132 176.296 398.295 172.935C399.908 176.004 401.267 179.2 402.36 182.49L403.77 186.285C404.079 186.88 404.169 187.565 404.025 188.22C403.953 188.393 403.843 188.548 403.702 188.673C403.562 188.797 403.395 188.889 403.215 188.94C402.942 189.02 402.659 189.06 402.375 189.06C401.326 189.21 400.262 189.22 399.21 189.09Z" fill="#263238"/>
<path d="M393.51 190.5C393.825 190.5 393.84 192.585 395.64 194.085C397.44 195.585 399.675 195.345 399.69 195.585C399.705 195.825 399.18 196.005 398.19 196.02C396.962 196.04 395.766 195.626 394.815 194.85C393.901 194.098 393.31 193.024 393.165 191.85C393.135 190.935 393.375 190.5 393.51 190.5Z" fill="#263238"/>
<path d="M392.685 167.145C392.49 167.67 390.57 167.43 388.29 167.7C386.01 167.97 384.18 168.6 383.88 168.12C383.745 167.895 384.06 167.4 384.81 166.89C385.793 166.254 386.915 165.863 388.08 165.75C389.241 165.604 390.42 165.743 391.515 166.155C392.355 166.5 392.775 166.905 392.685 167.145Z" fill="#263238"/>
<path d="M410.505 168.765C410.16 169.215 408.825 168.765 407.22 168.765C405.615 168.765 404.22 169.065 403.95 168.6C403.815 168.375 404.025 167.94 404.625 167.52C405.423 167.02 406.35 166.769 407.291 166.799C408.231 166.828 409.141 167.137 409.905 167.685C410.475 168.105 410.655 168.555 410.505 168.765Z" fill="#263238"/>
<path d="M367.065 163.05C367.23 166.71 366.42 170.805 367.065 174.405C367.17 174.96 368.565 176.415 368.715 176.955C369.45 180.135 370.77 181.455 372.675 178.215C373.405 176.207 373.908 174.124 374.175 172.005L376.47 160.365C379.427 161.906 382.72 162.69 386.055 162.645C387.715 162.598 389.336 162.13 390.766 161.285C392.195 160.44 393.387 159.246 394.23 157.815C395.019 159.123 396.092 160.236 397.371 161.072C398.649 161.909 400.1 162.446 401.614 162.645C403.129 162.844 404.668 162.699 406.119 162.221C407.57 161.743 408.895 160.945 409.995 159.885C410.613 160.748 411.531 161.348 412.57 161.568C413.608 161.787 414.691 161.609 415.605 161.07C416.489 160.48 417.164 159.625 417.533 158.628C417.902 157.631 417.946 156.543 417.66 155.52C416.79 152.445 413.49 150.78 410.43 149.88C398.43 146.355 385.2 149.115 374.43 155.43C372.824 156.302 371.358 157.409 370.08 158.715C368.85 160.05 367.155 161.715 367.08 163.455" fill="#263238"/>
<path d="M395.595 183.75C395.595 183.75 396.045 183.21 396.645 182.145C397.479 180.638 397.795 178.899 397.545 177.195C397.347 175.817 396.769 174.521 395.876 173.452C394.984 172.384 393.811 171.585 392.49 171.145C391.169 170.705 389.751 170.642 388.396 170.962C387.041 171.282 385.802 171.973 384.818 172.958C383.833 173.942 383.142 175.182 382.822 176.537C382.502 177.892 382.565 179.309 383.005 180.63C383.445 181.951 384.244 183.124 385.312 184.017C386.381 184.909 387.676 185.487 389.055 185.685C390.757 185.939 392.496 185.628 394.005 184.8C395.07 184.2 395.505 183.69 395.595 183.75C395.685 183.81 395.505 183.9 395.28 184.14C394.941 184.487 394.563 184.794 394.155 185.055C392.622 186.045 390.79 186.465 388.98 186.24C387.463 186.051 386.031 185.441 384.844 184.478C383.658 183.515 382.766 182.238 382.27 180.793C381.773 179.348 381.693 177.792 382.037 176.304C382.381 174.815 383.137 173.453 384.217 172.372C385.298 171.292 386.66 170.537 388.148 170.192C389.637 169.848 391.192 169.929 392.638 170.425C394.083 170.921 395.359 171.813 396.323 173C397.286 174.186 397.896 175.619 398.085 177.135C398.313 178.939 397.899 180.766 396.915 182.295C396.657 182.711 396.35 183.094 396 183.435C395.76 183.655 395.625 183.76 395.595 183.75Z" fill="#455A64"/>
<path d="M415.5 183.75C415.5 183.75 415.95 183.21 416.55 182.145C417.378 180.636 417.688 178.897 417.435 177.195C417.237 175.817 416.659 174.521 415.766 173.452C414.874 172.384 413.701 171.585 412.38 171.145C411.059 170.705 409.641 170.642 408.286 170.962C406.931 171.282 405.692 171.973 404.707 172.958C403.723 173.942 403.032 175.182 402.712 176.537C402.392 177.892 402.455 179.309 402.895 180.63C403.335 181.951 404.133 183.124 405.202 184.017C406.27 184.909 407.566 185.487 408.945 185.685C410.647 185.939 412.386 185.628 413.895 184.8C414.96 184.2 415.395 183.69 415.5 183.75C415.605 183.81 415.41 183.9 415.185 184.14C414.843 184.49 414.46 184.798 414.045 185.055C412.517 186.043 410.69 186.462 408.885 186.24C407.367 186.054 405.933 185.446 404.744 184.484C403.556 183.523 402.661 182.247 402.163 180.801C401.664 179.356 401.582 177.8 401.925 176.31C402.268 174.821 403.022 173.457 404.102 172.375C405.182 171.293 406.544 170.537 408.034 170.191C409.523 169.846 411.079 169.926 412.525 170.422C413.971 170.918 415.248 171.811 416.212 172.997C417.175 174.184 417.786 175.618 417.975 177.135C418.203 178.939 417.789 180.766 416.805 182.295C416.547 182.711 416.24 183.094 415.89 183.435C415.68 183.66 415.5 183.765 415.5 183.75Z" fill="#455A64"/>
<path d="M402.315 177.6C402.315 177.825 401.325 177.99 400.095 177.99C398.865 177.99 397.86 177.825 397.86 177.6C397.86 177.375 398.865 177.21 400.095 177.21C401.325 177.21 402.315 177.39 402.315 177.6Z" fill="#455A64"/>
<path d="M368.7 177C370.953 176.528 373.254 176.316 375.555 176.37C377.849 176.171 380.158 176.227 382.44 176.535C380.187 177.006 377.886 177.212 375.585 177.15C373.292 177.357 370.982 177.307 368.7 177Z" fill="#455A64"/>
<path d="M375.93 174.585L365.16 170.7L354.96 174.24L340.845 189L331.665 197.76L346.665 204.42L354.6 201.255L367.245 192.645L374.4 179.145C374.4 179.145 372.36 178.185 370.065 181.41L367.92 184.275L365.88 176.475V174.165L372.21 176.1C372.846 176.307 373.53 176.317 374.172 176.13C374.814 175.943 375.385 175.567 375.81 175.05L375.93 174.585Z" fill="#B78876"/>
<path d="M355.725 186C355.815 186 356.25 186.57 356.655 187.71C357.168 189.206 357.38 190.788 357.28 192.366C357.179 193.944 356.768 195.486 356.07 196.905C355.515 197.985 355.005 198.54 354.93 198.48C355.681 196.494 356.185 194.424 356.43 192.315C356.462 190.189 356.225 188.067 355.725 186Z" fill="#AA6550"/>
<path d="M355.83 186.15C357.102 185.712 358.413 185.401 359.745 185.22H359.835C360.087 185.371 360.285 185.597 360.4 185.866C360.516 186.135 360.544 186.434 360.48 186.72C360.353 187.258 360.123 187.768 359.805 188.22C359.661 188.413 359.562 188.636 359.515 188.872C359.468 189.108 359.475 189.352 359.535 189.585C359.772 190.092 360.14 190.527 360.6 190.845H360.135C361.23 190.178 362.162 189.276 362.865 188.205C363.915 186.54 362.715 184.785 362.07 183.18C361.929 182.819 361.753 182.472 361.545 182.145C361.429 182.052 361.292 181.987 361.147 181.956C361.001 181.925 360.85 181.928 360.705 181.965L358.575 182.295C357.173 182.582 355.747 182.743 354.315 182.775C355.67 182.305 357.067 181.964 358.485 181.755L360.615 181.335C360.862 181.272 361.12 181.269 361.368 181.327C361.616 181.384 361.847 181.5 362.04 181.665C362.324 182.035 362.551 182.444 362.715 182.88C363.075 183.69 363.51 184.47 363.84 185.43C364.02 185.945 364.088 186.493 364.039 187.036C363.99 187.579 363.825 188.106 363.555 188.58C362.788 189.757 361.762 190.742 360.555 191.46L360.315 191.625L360.09 191.43C359.539 191.017 359.109 190.462 358.845 189.825C358.758 189.498 358.747 189.155 358.812 188.822C358.877 188.489 359.016 188.176 359.22 187.905C359.513 187.513 359.732 187.071 359.865 186.6C359.918 186.43 359.92 186.248 359.869 186.077C359.818 185.906 359.718 185.754 359.58 185.64H359.745C358.459 185.932 357.148 186.102 355.83 186.15Z" fill="#AA6550"/>
<path d="M363.795 187.29C363.795 187.29 363.975 187.605 364.485 187.77C364.657 187.825 364.837 187.844 365.016 187.826C365.195 187.808 365.368 187.754 365.526 187.667C365.683 187.58 365.821 187.462 365.931 187.32C366.041 187.177 366.121 187.014 366.165 186.84C366.397 185.69 366.171 184.495 365.535 183.51C364.995 182.25 364.44 180.75 363.795 179.385C363.15 178.02 361.485 178.245 360.135 178.395C358.785 178.545 357.525 178.71 356.49 178.875C355.381 179.133 354.252 179.299 353.115 179.37C354.149 178.868 355.251 178.519 356.385 178.335C357.42 178.095 358.665 177.855 360.06 177.675C360.808 177.549 361.568 177.508 362.325 177.555C362.782 177.597 363.221 177.757 363.597 178.02C363.973 178.283 364.274 178.64 364.47 179.055C365.205 180.555 365.67 182.055 366.21 183.285C366.476 183.91 366.687 184.558 366.84 185.22C366.984 185.842 366.927 186.493 366.675 187.08C366.581 187.336 366.431 187.568 366.236 187.76C366.042 187.952 365.808 188.099 365.55 188.19C365.357 188.256 365.152 188.283 364.948 188.267C364.745 188.252 364.546 188.195 364.365 188.1C363.765 187.74 363.765 187.275 363.795 187.29Z" fill="#AA6550"/>
<path d="M367.98 184.26C367.511 183.349 367.163 182.38 366.945 181.38C366.66 180.39 366.345 179.325 366.03 178.215C365.85 177.63 365.685 176.955 365.505 176.37C365.408 176.089 365.252 175.833 365.047 175.618C364.843 175.404 364.595 175.235 364.32 175.125C363.081 174.871 361.795 174.996 360.63 175.485L357.435 176.34C356.463 176.658 355.455 176.855 354.435 176.925C355.333 176.43 356.29 176.051 357.285 175.8L360.42 174.795C361.738 174.206 363.215 174.068 364.62 174.405C364.994 174.558 365.331 174.79 365.608 175.085C365.885 175.38 366.095 175.731 366.225 176.115C366.435 176.82 366.555 177.42 366.72 178.035L367.485 181.245C367.781 182.224 367.947 183.237 367.98 184.26Z" fill="#AA6550"/>
<path d="M340.845 189C340.91 188.898 340.985 188.802 341.07 188.715C341.28 188.505 341.505 188.235 341.79 187.92L344.595 184.92L354.825 174.105L365.025 170.52H365.1L375.885 174.39H376.035V175.095C375.594 175.641 374.998 176.038 374.325 176.235C373.629 176.393 372.906 176.393 372.21 176.235L367.785 174.885L365.895 174.3L366.195 174.09C366.195 174.855 366.195 175.59 366.195 176.4V176.325C366.885 178.995 367.575 181.605 368.235 184.125H367.83C368.76 182.895 369.615 181.695 370.56 180.525C370.997 179.892 371.612 179.402 372.328 179.119C373.044 178.836 373.828 178.772 374.58 178.935H374.79L374.67 179.16L367.485 192.66L358.185 198.9L355.5 200.685C354.915 201.075 354.6 201.255 354.6 201.255C354.6 201.255 354.885 201.015 355.44 200.61L357.945 198.87L367.155 192.51L374.265 179.01L374.37 179.31C374.058 179.214 373.731 179.181 373.407 179.212C373.082 179.242 372.767 179.337 372.48 179.49C371.862 179.819 371.313 180.262 370.86 180.795C369.975 181.905 369.09 183.165 368.175 184.38L367.89 184.755L367.77 184.305C367.095 181.77 366.42 179.175 365.715 176.505C365.715 175.74 365.715 175.005 365.715 174.195V173.88L366.015 173.97L367.905 174.555L372.33 175.905C372.957 176.047 373.608 176.047 374.235 175.905C374.824 175.736 375.348 175.391 375.735 174.915V175.065V174.615L375.885 174.825L365.115 170.925H365.265L355.05 174.45L344.7 185.145L341.835 188.145L341.07 188.91C340.998 188.947 340.922 188.977 340.845 189Z" fill="#AA6550"/>
<path d="M345.225 283.95L344.52 232.125L358.02 227.625C362.265 226.815 366.39 225.27 371.385 225.06C375.942 228.664 381.564 230.658 387.373 230.731C393.183 230.805 398.853 228.953 403.5 225.465L403.95 225.12C405.24 225.27 406.95 225.435 409.095 225.69H409.515C414.851 226.359 419.927 228.383 424.26 231.57L491.34 271.62L530.73 241.62L550.68 257.265C550.68 257.265 499.08 308.865 494.07 310.095C490.605 310.95 456.18 292.095 435.315 280.515C436.17 293.01 440.835 362.46 440.61 372.015H344.76L344.685 328.215V316.29L345.225 283.95Z" fill="#0A2471"/>
<path d="M434.025 250.89C433.912 251.655 433.887 252.43 433.95 253.2C433.95 254.865 434.07 256.965 434.13 259.44C434.325 264.72 434.67 271.995 435.105 280.035C435.54 288.075 435.975 295.35 436.35 300.615C436.545 303.09 436.71 305.115 436.83 306.84C436.863 307.613 436.968 308.382 437.145 309.135C437.259 308.376 437.284 307.605 437.22 306.84C437.22 305.16 437.1 303.075 437.025 300.585C436.83 295.305 436.5 288.03 436.065 279.99C435.63 271.95 435.195 264.66 434.82 259.395C434.625 256.92 434.46 254.895 434.325 253.17C434.301 252.402 434.201 251.638 434.025 250.89Z" fill="#263238"/>
<path d="M520.185 250.2C519.96 250.44 524.295 254.535 529.83 259.365C535.365 264.195 539.985 267.945 540.165 267.735C540.345 267.525 535.995 263.475 530.46 258.63C527.7 256.215 525.165 254.13 523.305 252.54C522.34 251.664 521.296 250.881 520.185 250.2Z" fill="#263238"/>
<path d="M515.61 253.62C515.43 253.83 519.825 257.94 525.375 262.86C528.15 265.32 530.7 267.495 532.575 269.04C533.535 269.952 534.603 270.743 535.755 271.395C534.971 270.332 534.059 269.37 533.04 268.53C531.27 266.85 528.795 264.585 526.005 262.125C523.215 259.665 520.68 257.49 518.79 255.96C517.833 255.049 516.764 254.263 515.61 253.62Z" fill="#263238"/>
<path d="M334.695 189.165C334.695 189.165 296.355 225 284.25 239.685C278.775 246.3 277.53 256.185 281.94 263.535C283.663 266.427 286.153 268.785 289.134 270.347C292.116 271.91 295.472 272.615 298.83 272.385L345 269.295L348.495 230.88L320.58 239.595L353.1 205.59L334.695 189.165Z" fill="#0A2471"/>
<path d="M344.73 299.7C344.505 299.7 344.445 291.45 344.58 281.295C344.715 271.14 345 262.92 345.225 262.92C345.45 262.92 345.495 271.155 345.36 281.31C345.225 291.465 345 299.7 344.73 299.7Z" fill="#263238"/>
<path d="M333.225 226.38C332.893 226.919 332.506 227.421 332.07 227.88L328.68 231.675C325.785 234.87 321.69 239.31 317.01 244.335L317.1 244.17C316.65 245.79 316.095 247.455 315.465 249.12C314.184 252.74 312.477 256.194 310.38 259.41C308.571 261.999 306.26 264.198 303.585 265.875C301.795 267.032 299.798 267.832 297.705 268.23C297.141 268.34 296.569 268.401 295.995 268.41C295.605 268.41 295.395 268.41 295.395 268.41C295.395 268.41 296.22 268.29 297.645 267.945C299.656 267.436 301.564 266.584 303.285 265.425C305.839 263.725 308.044 261.55 309.78 259.02C311.804 255.829 313.47 252.423 314.745 248.865C315.36 247.215 315.9 245.565 316.365 243.975V243.885C321.06 238.875 325.23 234.51 328.23 231.405L331.77 227.775C332.211 227.267 332.698 226.8 333.225 226.38Z" fill="#263238"/>
<path d="M314.775 250.065C315.458 252.414 315.658 254.878 315.361 257.307C315.065 259.735 314.278 262.079 313.05 264.195C312.825 264.105 314.13 261.195 314.55 257.205C314.97 253.215 314.535 250.095 314.775 250.065Z" fill="#263238"/>
<path d="M358.635 371.055C358.555 370.963 358.484 370.862 358.425 370.755L357.84 369.825L355.68 366.225C354.511 364.334 353.445 362.381 352.485 360.375C351.127 357.685 350.654 354.635 351.135 351.66C351.75 348.36 353.715 345.24 355.155 341.745C355.908 339.951 356.33 338.035 356.4 336.09C356.434 334.017 356.218 331.947 355.755 329.925C354.885 325.74 353.25 321.435 352.83 316.68C352.504 311.798 352.94 306.894 354.12 302.145C355.215 297.27 356.565 292.59 357.525 288.015C357.989 285.774 358.339 283.511 358.575 281.235C358.575 280.125 358.725 279.015 358.77 277.92C358.815 276.825 358.77 275.73 358.77 274.665C358.221 267.064 356.96 259.531 355.005 252.165C353.505 245.82 352.44 240.63 352.005 237C351.75 235.185 351.615 233.775 351.555 232.815C351.555 232.38 351.555 232.02 351.555 231.72C351.539 231.596 351.539 231.47 351.555 231.345C351.555 231.345 351.555 231.48 351.63 231.72C351.705 231.96 351.72 232.365 351.78 232.8C351.87 233.76 352.065 235.155 352.365 236.955C352.935 240.555 354.075 245.7 355.65 252.03C357.696 259.419 359.017 266.99 359.595 274.635C359.595 275.715 359.595 276.825 359.595 277.935C359.595 279.045 359.49 280.17 359.43 281.31C359.205 283.575 358.845 285.81 358.38 288.18C357.42 292.8 356.07 297.465 354.99 302.31C353.828 306.981 353.393 311.802 353.7 316.605C354.09 321.24 355.695 325.515 356.565 329.775C357.035 331.856 357.241 333.988 357.18 336.12C357.103 338.14 356.656 340.128 355.86 341.985C354.36 345.555 352.395 348.6 351.795 351.765C351.294 354.631 351.715 357.583 352.995 360.195C353.894 362.205 354.895 364.168 355.995 366.075L358.02 369.75L358.53 370.71C358.605 370.935 358.65 371.055 358.635 371.055Z" fill="#FAFAFA"/>
<path d="M379.5 230.865C379.55 230.98 379.585 231.101 379.605 231.225L379.845 232.29C380.04 233.22 380.295 234.6 380.595 236.4C381.399 241.467 381.835 246.585 381.9 251.715C382.007 259.327 381.349 266.93 379.935 274.41C378.435 282.855 375.945 291.99 375.135 301.815C374.325 311.64 375.825 321.03 376.995 329.505C378.234 337.009 378.99 344.585 379.26 352.185C379.393 357.325 378.787 362.458 377.46 367.425L377.13 368.67L376.755 369.735L376.125 371.4L375.735 372.405C375.645 372.63 375.585 372.75 375.585 372.75C375.567 372.626 375.567 372.5 375.585 372.375L375.915 371.34L376.455 369.66C376.56 369.33 376.68 368.985 376.8 368.595C376.92 368.205 376.98 367.785 377.085 367.35C378.275 362.387 378.78 357.285 378.585 352.185C378.227 344.643 377.41 337.129 376.14 329.685C374.94 321.21 373.485 311.79 374.22 301.83C374.955 291.87 377.55 282.765 379.095 274.365C380.537 266.928 381.246 259.366 381.21 251.79C381.182 246.683 380.831 241.583 380.16 236.52C379.92 234.72 379.71 233.325 379.545 232.395C379.545 231.96 379.425 231.6 379.395 231.315C379.39 231.159 379.427 231.004 379.5 230.865Z" fill="#FAFAFA"/>
<path d="M414.735 371.115L414.525 370.8L413.97 369.84C413.66 369.317 413.404 368.764 413.205 368.19C413.085 367.86 412.92 367.5 412.8 367.095C412.68 366.69 412.59 366.27 412.47 365.82C411.989 363.599 411.827 361.321 411.99 359.055C412.218 356.065 412.614 353.091 413.175 350.145C413.871 346.611 414.317 343.032 414.51 339.435C414.575 335.337 413.857 331.264 412.395 327.435C410.7 323.153 409.307 318.757 408.225 314.28C407.467 309.355 407.563 304.337 408.51 299.445C409.29 294.42 410.31 289.59 410.595 284.85C410.796 280.294 410.438 275.73 409.53 271.26C407.85 262.68 405.525 255.075 404.73 248.43C403.917 243.215 404.08 237.895 405.21 232.74C405.624 230.849 406.29 229.023 407.19 227.31C407.17 227.44 407.129 227.567 407.07 227.685L406.68 228.72C406.199 230.052 405.808 231.415 405.51 232.8C404.496 237.929 404.42 243.199 405.285 248.355C406.125 254.925 408.51 262.485 410.235 271.125C411.181 275.65 411.559 280.276 411.36 284.895C411.09 289.71 410.055 294.585 409.275 299.565C408.347 304.368 408.246 309.293 408.975 314.13C410.038 318.574 411.406 322.94 413.07 327.195C413.78 329.232 414.341 331.317 414.75 333.435C415.113 335.443 415.249 337.486 415.155 339.525C414.922 343.157 414.42 346.767 413.655 350.325C413.066 353.239 412.635 356.184 412.365 359.145C412.172 361.38 412.288 363.632 412.71 365.835C413.168 367.671 413.848 369.444 414.735 371.115Z" fill="#FAFAFA"/>
<path d="M427.41 236.34C427.461 236.451 427.501 236.566 427.53 236.685L427.815 237.69C428.085 238.575 428.37 239.895 428.7 241.62C429.462 246.511 429.658 251.474 429.285 256.41C428.925 262.65 427.71 270.015 426.585 278.175C425.42 287.031 424.864 295.957 424.92 304.89C425.271 321.128 426.714 337.325 429.24 353.37C430.155 359.49 430.905 364.47 431.43 367.995C431.685 369.66 431.865 370.995 432.015 371.97C432.015 372.39 432.105 372.72 432.15 373.005C432.164 373.124 432.164 373.245 432.15 373.365C432.101 373.255 432.066 373.139 432.045 373.02C432.045 372.735 431.925 372.405 431.85 371.985C431.67 371.025 431.43 369.705 431.115 368.04C430.515 364.605 429.615 359.625 428.685 353.46C426.013 337.4 424.509 321.167 424.185 304.89C424.13 295.92 424.712 286.957 425.925 278.07C427.095 269.895 428.34 262.575 428.775 256.365C429.202 251.467 429.091 246.538 428.445 241.665C428.175 239.955 427.935 238.665 427.71 237.72L427.5 236.7C427.449 236.586 427.419 236.464 427.41 236.34Z" fill="#FAFAFA"/>
<path d="M450.51 289.965C450.368 289.477 450.292 288.973 450.285 288.465C450.195 287.475 450.09 286.035 450 284.25C449.805 280.695 449.64 275.775 449.625 270.33C449.61 264.885 449.715 259.965 449.88 256.41C449.97 254.625 450.045 253.185 450.135 252.195C450.143 251.689 450.209 251.186 450.33 250.695C450.431 251.188 450.467 251.692 450.435 252.195V256.41C450.435 260.16 450.435 264.99 450.435 270.315C450.435 275.64 450.54 280.47 450.585 284.22C450.585 285.855 450.585 287.22 450.585 288.435C450.618 288.946 450.593 289.459 450.51 289.965Z" fill="#FAFAFA"/>
<path d="M465 256.185C464.802 256.656 464.572 257.112 464.31 257.55C463.712 258.783 463.414 260.14 463.44 261.51C463.44 263.235 463.8 265.335 464.04 267.645C464.28 269.955 464.835 272.475 465.18 275.145C465.511 277.687 465.562 280.257 465.33 282.81C465.171 284.919 464.664 286.987 463.83 288.93C463.257 290.222 462.516 291.433 461.625 292.53C460.995 293.31 460.59 293.685 460.545 293.655C461.605 292.09 462.533 290.439 463.32 288.72C464.736 284.367 465.096 279.74 464.37 275.22C464.04 272.565 463.545 270.03 463.29 267.72C463.028 265.65 462.883 263.567 462.855 261.48C462.879 260.038 463.277 258.627 464.01 257.385C464.261 256.926 464.597 256.519 465 256.185Z" fill="#FAFAFA"/>
<path d="M303.42 269.895C304.089 269.838 304.761 269.838 305.43 269.895C307.229 269.953 309.027 269.787 310.785 269.4C313.335 268.655 315.596 267.147 317.265 265.08C319.26 262.815 321.255 260.1 323.46 257.37C327.84 251.85 331.83 246.87 334.755 243.33L338.235 239.13C338.639 238.586 339.096 238.083 339.6 237.63C339.281 238.216 338.904 238.769 338.475 239.28L335.19 243.645C332.37 247.29 328.455 252.315 324.075 257.82C321.855 260.565 319.875 263.235 317.805 265.53C316.024 267.673 313.616 269.205 310.92 269.91C309.108 270.268 307.252 270.354 305.415 270.165C304.742 270.152 304.072 270.061 303.42 269.895Z" fill="#FAFAFA"/>
<path d="M341.52 198.135C341.425 198.439 341.304 198.735 341.16 199.02C340.792 199.852 340.361 200.654 339.87 201.42C338.086 204.276 335.835 206.811 333.21 208.92C329.985 211.665 325.71 214.425 321.285 217.695C316.86 220.965 312.06 224.97 309.18 230.67C307.875 233.529 306.403 236.309 304.77 238.995C303.049 241.408 300.892 243.479 298.41 245.1C296.1 246.705 293.82 248.1 291.825 249.465C289.941 250.721 288.245 252.235 286.785 253.965C285.712 255.202 284.91 256.65 284.43 258.215C283.949 259.781 283.801 261.429 283.995 263.055C284.204 264.245 284.626 265.389 285.24 266.43C285.24 266.43 285.24 266.43 285.075 266.25C284.91 266.073 284.769 265.877 284.655 265.665C284.188 264.878 283.863 264.014 283.695 263.115C283.439 261.434 283.544 259.719 284.002 258.082C284.46 256.445 285.26 254.924 286.35 253.62C287.815 251.813 289.533 250.227 291.45 248.91C293.46 247.41 295.74 246.075 297.99 244.485C300.393 242.882 302.478 240.847 304.14 238.485C305.752 235.826 307.2 233.071 308.475 230.235C311.475 224.37 316.365 220.26 320.865 217.035C325.365 213.81 329.625 211.035 332.865 208.425C335.478 206.399 337.756 203.974 339.615 201.24C340.134 200.504 340.6 199.732 341.01 198.93C341.148 198.646 341.319 198.379 341.52 198.135Z" fill="#FAFAFA"/>
<g opacity="0.3">
<path d="M296.175 268.14C299.299 268.187 302.402 267.615 305.304 266.456C308.206 265.297 310.85 263.574 313.081 261.387C315.313 259.199 317.089 256.591 318.307 253.713C319.524 250.835 320.159 247.745 320.175 244.62C320.175 243.825 320.04 242.88 319.335 242.52C318.995 242.399 318.625 242.397 318.284 242.514C317.944 242.631 317.653 242.861 317.46 243.165C317.091 243.783 316.861 244.474 316.785 245.19C315.758 250.309 313.531 255.112 310.287 259.203C307.044 263.295 302.875 266.558 298.125 268.725" fill="black"/>
</g>
<g opacity="0.3">
<path d="M480.57 267C479.565 267.802 478.763 268.83 478.23 270C474.975 275.13 468.54 277.2 464.235 281.475C460.95 284.76 458.325 288.645 458.31 293.295L465.345 296.49L483.645 267.99C483.48 266.685 481.665 266.28 480.57 267Z" fill="black"/>
</g>
<path d="M151.5 621.69C151.5 621.69 126.84 627 139.635 657C152.43 687 144.78 695.175 135.945 697.29L203.595 696.855L209.595 621.42L151.5 621.69Z" fill="#E0E0E0"/>
<path d="M200.7 697.26C195.901 697.29 191.26 695.549 187.665 692.37C182.1 687.48 175.23 678.33 173.865 662.46C171 628.875 151.5 621.705 151.5 621.705L209.565 621.45C209.565 621.45 228.42 621.45 229.95 651.255C231.555 682.5 274.875 700.44 301.62 696.945L200.7 697.26Z" fill="#F4F7FF"/>
<path d="M287.13 569.79C287.13 569.79 256.71 566.145 253.335 633.525C249.96 700.905 199.005 697.245 199.005 697.245H300.585C300.585 697.245 321.72 692.55 316.8 645C314.745 625.05 350.535 569.835 350.535 569.835L287.13 569.79Z" fill="#EBEBEB"/>
<path d="M270.18 577.41C266.94 581.295 268.26 587.52 271.095 591.72C273.93 595.92 278.355 598.755 282.855 601.095C287.355 603.435 292.065 605.415 296.1 608.49C302.34 613.26 306.495 620.34 309.015 627.78C311.303 635.3 312.84 643.027 313.605 650.85C313.605 650.85 310.275 594.945 300.45 579.435C290.625 563.925 276.39 570 270.18 577.41Z" fill="#E0E0E0"/>
<path d="M348.48 697.245C348.48 697.245 318.48 698.745 314.31 663.93C310.14 629.115 306.645 571.875 287.13 569.79H348.63C352.856 569.781 356.987 571.048 360.482 573.424C363.977 575.801 366.674 579.176 368.22 583.11C370.89 589.98 373.605 600.135 375.285 614.925C378.84 646.17 396.54 697.635 440.88 697.185L348.48 697.245Z" fill="#F4F7FF"/>
<path d="M368.67 668.565C368.67 668.775 359.67 668.955 348.645 668.955C337.62 668.955 328.62 668.775 328.62 668.565C328.62 668.355 337.62 668.175 348.645 668.175C359.67 668.175 368.67 668.34 368.67 668.565Z" fill="#263238"/>
<path d="M378.885 670.98C378.666 669.022 378.556 667.054 378.555 665.085L378.885 665.415H372.99L373.38 665.025V666.525C373.38 667.05 373.38 667.545 373.38 668.025C373.38 668.985 373.38 669.915 373.38 670.8L373.035 670.47C375.005 670.47 376.973 670.58 378.93 670.8C376.976 671.06 375.006 671.176 373.035 671.145H372.705V670.8C372.705 669.915 372.705 668.985 372.705 668.025C372.705 667.515 372.705 667.02 372.705 666.525V665.025L373.095 664.635H378.99H379.335V664.965C379.337 666.978 379.187 668.989 378.885 670.98Z" fill="#263238"/>
<path d="M377.865 681.48C377.865 681.705 368.865 681.87 357.855 681.87C346.845 681.87 337.83 681.705 337.83 681.48C337.83 681.255 346.83 681.09 357.855 681.09C368.88 681.09 377.865 681.27 377.865 681.48Z" fill="#263238"/>
<path d="M388.095 683.91C387.866 681.953 387.751 679.985 387.75 678.015L388.095 678.345H382.2L382.59 677.955V681.045C382.59 682.045 382.59 682.975 382.59 683.835L382.26 683.49C384.23 683.491 386.198 683.606 388.155 683.835C386.2 684.083 384.23 684.194 382.26 684.165H381.915V683.82C381.915 682.94 381.915 682.01 381.915 681.03V678C381.555 678.345 382.38 677.52 382.305 677.61H388.2H388.5V678C388.504 679.977 388.369 681.952 388.095 683.91Z" fill="#263238"/>
<path d="M360.945 636C360.945 636.21 351.945 636.39 340.935 636.39C329.925 636.39 320.91 636.21 320.91 636C320.91 635.79 329.91 635.61 340.935 635.61C351.96 635.61 360.945 635.79 360.945 636Z" fill="#263238"/>
<path d="M371.175 638.43C370.946 636.474 370.83 634.505 370.83 632.535L371.175 632.88H365.28L365.67 632.49V635.49C365.67 636.45 365.67 637.38 365.67 638.265L365.34 637.935C367.309 637.936 369.277 638.047 371.235 638.265C369.281 638.525 367.311 638.64 365.34 638.61H364.995V638.265C364.995 637.38 364.995 636.45 364.995 635.49V632.49C364.65 632.835 365.475 632.01 365.4 632.1H371.295H371.64V632.43C371.63 634.439 371.474 636.444 371.175 638.43Z" fill="#263238"/>
<path d="M358.755 619.02C358.755 619.23 349.755 619.41 338.73 619.41C327.705 619.41 318.705 619.23 318.705 619.02C318.705 618.81 327.705 618.63 338.73 618.63C349.755 618.63 358.755 618.81 358.755 619.02Z" fill="#263238"/>
<path d="M369 621.45C368.781 619.487 368.671 617.514 368.67 615.54L369 615.885H363.105L363.495 615.495V616.995C363.495 617.52 363.495 618.03 363.495 618.495C363.495 619.47 363.495 620.385 363.495 621.285L363.15 620.94C365.12 620.94 367.089 621.056 369.045 621.285C367.09 621.524 365.12 621.635 363.15 621.615H362.82V621.27C362.82 620.37 362.82 619.455 362.82 618.48C362.82 617.985 362.82 617.475 362.82 616.98V615.48C362.475 615.84 363.3 615.015 363.21 615.09H369.105H369.45V615.42C369.452 617.438 369.301 619.454 369 621.45Z" fill="#263238"/>
<path d="M355.845 603.465C355.845 603.675 346.845 603.855 335.82 603.855C324.795 603.855 315.795 603.675 315.795 603.465C315.795 603.255 324.795 603.075 335.82 603.075C346.845 603.075 355.845 603.24 355.845 603.465Z" fill="#263238"/>
<path d="M366 605.88C365.779 603.923 365.664 601.955 365.655 599.985L366 600.33H360.105L360.495 599.94V601.44C360.495 601.965 360.495 602.475 360.495 602.94C360.495 603.9 360.495 604.83 360.495 605.715L360.165 605.385C362.135 605.385 364.103 605.495 366.06 605.715C364.106 605.975 362.136 606.09 360.165 606.06H359.835V605.715C359.835 604.83 359.835 603.9 359.835 602.94C359.835 602.445 359.835 601.935 359.835 601.44V599.94C359.49 600.285 360.3 599.46 360.225 599.55H366.12H366.465V600C366.446 601.968 366.29 603.933 366 605.88Z" fill="#263238"/>
<path d="M351.72 589.2C351.72 589.41 342.72 589.59 331.695 589.59C320.67 589.59 311.67 589.41 311.67 589.2C311.67 588.99 320.67 588.795 331.695 588.795C342.72 588.795 351.72 588.975 351.72 589.2Z" fill="#263238"/>
<path d="M361.935 591.615C361.716 589.658 361.605 587.69 361.605 585.72L361.935 586.05H356.04L356.43 585.66V587.235C356.43 587.745 356.43 588.255 356.43 588.735C356.43 589.695 356.43 590.625 356.43 591.51L356.085 591.165C358.055 591.174 360.023 591.289 361.98 591.51C360.025 591.761 358.055 591.876 356.085 591.855H355.755V591.51C355.755 590.625 355.755 589.695 355.755 588.735C355.755 588.225 355.755 587.715 355.755 587.235V585.66L356.145 585.27H362.04H362.385V585.615C362.385 587.623 362.235 589.629 361.935 591.615Z" fill="#263238"/>
<path d="M344.775 577.23C344.775 577.44 335.775 577.62 324.75 577.62C313.725 577.62 304.725 577.44 304.725 577.23C304.725 577.02 313.725 576.84 324.75 576.84C335.775 576.84 344.775 577.02 344.775 577.23Z" fill="#263238"/>
<path d="M354.99 579.645C354.77 577.687 354.659 575.719 354.66 573.75L354.99 574.095H349.095L349.485 573.705V575.205C349.485 575.73 349.485 576.24 349.485 576.705C349.485 577.68 349.485 578.595 349.485 579.48L349.14 579.15C351.109 579.159 353.076 579.269 355.035 579.48C353.081 579.74 351.11 579.856 349.14 579.825H348.81V579.465C348.81 578.58 348.81 577.665 348.81 576.69C348.81 576.195 348.81 575.685 348.81 575.19V573.69L349.2 573.3H355.095H355.44V573.63C355.443 575.643 355.292 577.654 354.99 579.645Z" fill="#263238"/>
<path d="M358.74 607.8C359.42 606.356 360.332 605.033 361.44 603.885C361.785 603.495 362.1 603.105 362.445 602.7L362.7 602.4L362.97 602.655C364.35 603.915 365.25 604.89 365.145 605.025C365.04 605.16 363.93 604.395 362.49 603.21H363.015L362.04 604.425C361.13 605.721 360.015 606.86 358.74 607.8Z" fill="#0A2471"/>
<path d="M361.83 622.65C362.51 621.206 363.422 619.884 364.53 618.735L365.535 617.55L365.79 617.265L366.06 617.505C367.44 618.765 368.34 619.74 368.235 619.875C368.13 620.01 367.02 619.245 365.58 618.075H366.105L365.13 619.29C364.217 620.579 363.103 621.714 361.83 622.65Z" fill="#0A2471"/>
<path d="M370.62 673.5C371.3 672.056 372.212 670.734 373.32 669.585C373.665 669.195 373.98 668.805 374.325 668.4L374.58 668.1L374.85 668.355C376.23 669.615 377.13 670.59 377.025 670.725C376.92 670.86 375.81 670.095 374.37 668.91H374.895L373.92 670.125C373.01 671.421 371.895 672.561 370.62 673.5Z" fill="#0A2471"/>
<path d="M364.05 639.75C364.723 638.302 365.636 636.979 366.75 635.835L367.755 634.65L368.01 634.35L368.28 634.605C369.645 635.865 370.56 636.84 370.455 636.975C370.35 637.11 369.24 636.345 367.8 635.16H368.325L367.35 636.375C366.435 637.667 365.321 638.806 364.05 639.75Z" fill="#0A2471"/>
<path d="M364.815 652.29C364.815 652.5 355.815 652.68 344.79 652.68C333.765 652.68 324.765 652.5 324.765 652.29C324.765 652.08 333.765 651.9 344.79 651.9C355.815 651.9 364.815 652.065 364.815 652.29Z" fill="#263238"/>
<path d="M375 654.705C374.779 652.748 374.664 650.78 374.655 648.81L375 649.155H369.105L369.495 648.765V650.265C369.495 650.79 369.495 651.285 369.495 651.765C369.495 652.725 369.495 653.655 369.495 654.54L369.165 654.21C371.134 654.211 373.102 654.321 375.06 654.54C373.106 654.8 371.135 654.915 369.165 654.885H368.835V654.54C368.835 653.655 368.835 652.725 368.835 651.765C368.835 651.255 368.835 650.76 368.835 650.265V648.765C368.475 649.11 369.3 648.285 369.225 648.375H375.12H375.465V648.705C375.455 650.714 375.299 652.719 375 654.705Z" fill="#263238"/>
<path d="M367.065 656.715C367.752 655.275 368.663 653.953 369.765 652.8C370.11 652.41 370.44 652.02 370.77 651.615L371.025 651.315L371.295 651.57C372.675 652.83 373.59 653.805 373.47 653.925C373.35 654.045 372.255 653.31 370.815 652.125H371.34L370.38 653.34C369.462 654.634 368.343 655.774 367.065 656.715Z" fill="#0A2471"/>
<path d="M198.36 677.64C198.36 677.415 206.49 677.25 216.525 677.25C226.56 677.25 234.705 677.415 234.705 677.64C234.705 677.865 226.575 678.03 216.525 678.03C206.475 678.03 198.36 677.85 198.36 677.64Z" fill="#263238"/>
<path d="M189.09 675.435C189.307 677.212 189.417 679 189.42 680.79L189.09 680.46H194.445C194.52 680.37 193.695 681.195 194.04 680.85V678C194.04 677.115 194.04 676.275 194.04 675.465L194.385 675.81C192.594 675.809 190.806 675.693 189.03 675.465C190.803 675.214 192.594 675.103 194.385 675.135H194.715V675.48C194.715 676.29 194.715 677.13 194.715 678.015V680.82L194.325 681.21H188.97H188.625V680.88C188.629 679.055 188.784 677.234 189.09 675.435Z" fill="#263238"/>
<path d="M196.32 673.62C195.725 674.943 194.903 676.152 193.89 677.19L192.975 678.27L192.72 678.57L192.45 678.315C191.205 677.175 190.38 676.275 190.5 676.14C190.62 676.005 191.61 676.695 192.93 677.76H192.405L193.275 676.65C194.79 674.865 196.14 673.5 196.32 673.62Z" fill="#0A2471"/>
<path d="M191.13 666.975C191.13 666.75 199.275 666.585 209.31 666.585C219.345 666.585 227.475 666.75 227.475 666.975C227.475 667.2 219.345 667.365 209.31 667.365C199.275 667.365 191.13 667.185 191.13 666.975Z" fill="#263238"/>
<path d="M181.86 664.77C182.076 666.547 182.187 668.335 182.19 670.125L181.86 669.795H187.215L186.825 670.185V668.76C186.825 668.295 186.825 667.83 186.825 667.38C186.825 666.495 186.825 665.655 186.825 664.845L187.17 665.19C185.379 665.188 183.591 665.073 181.815 664.845C183.588 664.594 185.379 664.484 187.17 664.515H187.5V664.86C187.5 665.67 187.5 666.51 187.5 667.395C187.5 667.845 187.5 668.31 187.5 668.775V670.2L187.11 670.59H181.755H181.5V670.26C181.466 668.423 181.586 666.587 181.86 664.77Z" fill="#263238"/>
<path d="M189.09 663C188.495 664.323 187.673 665.532 186.66 666.57L185.745 667.65L185.49 667.95L185.22 667.695C183.975 666.555 183.165 665.655 183.27 665.52C183.375 665.385 184.395 666.075 185.7 667.14H185.175L186 666C187.5 664.2 189 662.82 189.09 663Z" fill="#0A2471"/>
<path d="M188.67 654.93C188.67 654.705 196.8 654.54 206.835 654.54C216.87 654.54 225.015 654.705 225.015 654.93C225.015 655.155 216.885 655.32 206.835 655.32C196.785 655.32 188.67 655.14 188.67 654.93Z" fill="#263238"/>
<path d="M179.4 652.725C179.617 654.502 179.727 656.29 179.73 658.08L179.4 657.75H184.74L184.35 658.14V655.335C184.35 654.45 184.35 653.61 184.35 652.8L184.68 653.145C182.894 653.143 181.11 653.028 179.34 652.8C181.108 652.549 182.894 652.439 184.68 652.47H185.025V652.815C185.025 653.625 185.025 654.465 185.025 655.35V658.155C185.37 657.81 184.545 658.635 184.62 658.545H179.28H178.935V658.215C178.936 656.375 179.091 654.539 179.4 652.725Z" fill="#263238"/>
<path d="M186.615 650.91C186.036 652.238 185.218 653.448 184.2 654.48L183.285 655.56L183.03 655.86L182.76 655.605C181.515 654.465 180.69 653.565 180.81 653.43C180.93 653.295 181.92 653.985 183.24 655.05H182.715L183.585 653.94C185.1 652.155 186.45 650.775 186.615 650.91Z" fill="#0A2471"/>
<path d="M186 642.615C186 642.39 194.13 642.21 204.165 642.21C214.2 642.21 222.33 642.39 222.33 642.615C222.33 642.84 214.2 643.005 204.165 643.005C194.13 643.005 186 642.825 186 642.615Z" fill="#263238"/>
<path d="M176.73 640.41C176.959 642.186 177.074 643.974 177.075 645.765L176.73 645.42H182.085L181.695 645.81V644.415C181.695 643.935 181.695 643.485 181.695 643.02C181.695 642.15 181.695 641.31 181.695 640.5L182.04 640.845C180.25 640.834 178.462 640.718 176.685 640.5C178.459 640.249 180.249 640.133 182.04 640.155H182.37V640.5C182.37 641.31 182.37 642.15 182.37 643.02C182.37 643.485 182.37 643.935 182.37 644.415V645.81L181.98 646.2H176.625H176.28V645.87C176.284 644.041 176.434 642.215 176.73 640.41Z" fill="#263238"/>
<path d="M183.96 638.595C183.368 639.92 182.545 641.129 181.53 642.165L180.615 643.245L180.36 643.53L180.09 643.29C178.845 642.135 178.035 641.25 178.14 641.115C178.245 640.98 179.265 641.67 180.57 642.72H180.045L180.93 641.625C182.43 639.825 183.795 638.445 183.96 638.595Z" fill="#0A2471"/>
<path d="M179.13 630.45C179.13 630.24 187.26 630.06 197.295 630.06C207.33 630.06 215.46 630.24 215.46 630.45C215.46 630.66 207.33 630.84 197.295 630.84C187.26 630.84 179.13 630.675 179.13 630.45Z" fill="#263238"/>
<path d="M169.845 628.26C170.073 630.031 170.188 631.814 170.19 633.6L169.845 633.27H175.2L174.81 633.66V632.235C174.81 631.77 174.81 631.305 174.81 630.855C174.81 629.985 174.81 629.145 174.81 628.335L175.14 628.665C173.35 628.663 171.561 628.552 169.785 628.335C171.557 628.074 173.348 627.959 175.14 627.99H175.5V628.335C175.5 629.145 175.5 629.985 175.5 630.855C175.5 631.305 175.5 631.77 175.5 632.235V633.66C175.845 633.315 175.02 634.14 175.11 634.065H169.755H169.5V633.72C169.467 631.894 169.582 630.067 169.845 628.26Z" fill="#263238"/>
<path d="M177.075 626.43C176.488 627.757 175.665 628.967 174.645 630L173.73 631.08L173.49 631.38L173.205 631.125C171.975 629.985 171.15 629.085 171.27 628.965C171.39 628.845 172.38 629.505 173.7 630.57H173.16L174.045 629.46C175.5 627.675 176.91 626.295 177.075 626.43Z" fill="#0A2471"/>
<path d="M286.11 569.73H286.425H287.355H290.955L304.365 569.64H350.235C353.496 569.235 356.802 569.865 359.685 571.44C362.695 573.043 365.269 575.355 367.185 578.175C370.209 582.992 372.211 588.378 373.065 594C374.13 599.355 374.895 604.5 375.54 609.525C376.875 619.44 377.685 628.44 379.275 635.805C380.549 641.571 382.476 647.172 385.02 652.5C385.92 654.405 386.745 655.83 387.3 656.805C387.555 657.24 387.765 657.6 387.945 657.885C388.026 658.007 388.091 658.138 388.14 658.275C388.036 658.173 387.945 658.057 387.87 657.93L387.165 656.88C386.283 655.508 385.472 654.091 384.735 652.635C382.046 647.276 380.002 641.616 378.645 635.775C376.965 628.275 376.11 619.38 374.745 609.465C374.07 604.515 373.245 599.325 372.225 594C371.375 588.482 369.411 583.194 366.45 578.46C364.618 575.75 362.158 573.522 359.28 571.965C356.534 570.465 353.387 569.862 350.28 570.24L304.365 570L290.955 569.865L287.355 569.79H286.425L286.11 569.73Z" fill="#263238"/>
<path d="M135.945 697.29C136.377 697.204 136.803 697.089 137.22 696.945C138.461 696.569 139.631 695.991 140.685 695.235C142.392 694.009 143.752 692.36 144.63 690.45C145.765 687.823 146.278 684.968 146.13 682.11C146.071 678.517 145.567 674.944 144.63 671.475C143.386 667.383 141.883 663.375 140.13 659.475C139.26 657.33 138.42 655.095 137.67 652.725C136.857 650.282 136.26 647.772 135.885 645.225C134.994 639.655 136.053 633.949 138.885 629.07C140.475 626.46 142.767 624.35 145.5 622.98C146.205 622.643 146.937 622.367 147.69 622.155C148.065 622.065 148.44 621.93 148.83 621.855L150.015 621.705C151.643 621.524 153.288 621.865 154.71 622.68C157.533 624.362 159.979 626.609 161.895 629.28C163.933 631.978 165.739 634.843 167.295 637.845C168.913 640.937 170.297 644.146 171.435 647.445C172.052 649.139 172.554 650.873 172.935 652.635C173.265 654.435 173.415 656.22 173.685 658.02C174.165 661.669 174.841 665.289 175.71 668.865C176.644 672.53 177.766 676.145 179.07 679.695C179.643 681.511 180.428 683.253 181.41 684.885C182.452 686.506 183.72 687.971 185.175 689.235C186.649 690.522 188.241 691.667 189.93 692.655C191.613 693.689 193.385 694.573 195.225 695.295C197.081 696.002 199.044 696.392 201.03 696.45C202.995 696.45 205.065 696.225 207.03 696.06C211.125 695.783 215.162 694.945 219.03 693.57C222.942 692.072 226.636 690.054 230.01 687.57C233.463 685.101 236.467 682.056 238.89 678.57C243.879 671.41 247.57 663.429 249.795 654.99C250.81 651.189 251.576 647.326 252.09 643.425C252.585 639.555 252.81 635.655 253.14 631.785C253.667 624.14 254.638 616.532 256.05 609C256.8 605.295 257.745 601.665 258.81 598.125C259.803 594.581 261.036 591.108 262.5 587.73C263.997 584.425 265.935 581.337 268.26 578.55C270.518 575.774 273.314 573.483 276.48 571.815C279.143 570.22 282.18 569.356 285.285 569.31C288.364 569.321 291.338 570.433 293.67 572.445C295.861 574.443 297.613 576.874 298.815 579.585C299.994 582.188 301.021 584.858 301.89 587.58C305.245 597.761 307.626 608.238 309 618.87C310.41 628.905 311.13 638.37 311.76 647.205C312.39 656.04 313.26 664.125 315.555 671.205C317.376 677.539 320.63 683.369 325.065 688.245C328.415 691.829 332.614 694.512 337.275 696.045C340.175 696.995 343.226 697.402 346.275 697.245C347.31 697.155 348.09 697.065 348.615 696.96L349.41 696.855L348.63 697.02C347.853 697.189 347.067 697.304 346.275 697.365C343.202 697.584 340.117 697.213 337.185 696.27C332.466 694.758 328.204 692.081 324.795 688.485C320.289 683.591 316.973 677.724 315.105 671.34C312.825 664.275 311.865 656.1 311.205 647.34C310.545 638.58 309.81 629.055 308.385 619.05C306.963 608.467 304.547 598.04 301.17 587.91C300.329 585.212 299.327 582.568 298.17 579.99C297.012 577.37 295.321 575.02 293.205 573.09C290.999 571.172 288.178 570.107 285.255 570.09C282.282 570.144 279.375 570.977 276.825 572.505C273.764 574.119 271.065 576.339 268.89 579.03C266.608 581.759 264.71 584.787 263.25 588.03C261.8 591.372 260.582 594.811 259.605 598.32C258.54 601.86 257.61 605.46 256.86 609.135C255.454 616.633 254.483 624.205 253.95 631.815C253.635 635.67 253.395 639.57 252.915 643.5C252.388 647.434 251.616 651.332 250.605 655.17C248.344 663.694 244.608 671.756 239.565 678.99C237.118 682.556 234.073 685.672 230.565 688.2C227.136 690.724 223.382 692.772 219.405 694.29C215.463 695.684 211.35 696.537 207.18 696.825C205.11 696.975 203.115 697.185 201.03 697.2C198.976 697.14 196.948 696.734 195.03 696C193.141 695.262 191.323 694.353 189.6 693.285C187.878 692.269 186.256 691.094 184.755 689.775C183.24 688.475 181.926 686.959 180.855 685.275C179.848 683.595 179.042 681.803 178.455 679.935C177.139 676.362 176.013 672.722 175.08 669.03C174.217 665.428 173.546 661.783 173.07 658.11C172.392 651.097 170.273 644.3 166.845 638.145C165.323 635.172 163.547 632.336 161.535 629.67C159.677 627.064 157.302 624.869 154.56 623.22C151.845 621.555 148.56 622.305 145.89 623.505C143.266 624.834 141.072 626.878 139.56 629.4C136.773 634.164 135.714 639.742 136.56 645.195C136.891 647.673 137.438 650.117 138.195 652.5C138.93 654.84 139.695 657 140.61 659.22C142.371 663.148 143.874 667.186 145.11 671.31C146.049 674.815 146.553 678.422 146.61 682.05C146.703 684.956 146.128 687.845 144.93 690.495C144.015 692.425 142.614 694.084 140.865 695.31C139.789 696.051 138.597 696.608 137.34 696.96C136.887 697.116 136.419 697.227 135.945 697.29Z" fill="#263238"/>
<path d="M241.275 675.705C241.275 675.705 241.17 675.705 241.005 675.525C240.84 675.345 240.57 675.195 240.255 674.925C239.32 674.113 238.429 673.252 237.585 672.345C236.24 670.932 234.992 669.428 233.85 667.845C232.327 665.725 231.086 663.416 230.16 660.975C229.242 657.967 228.555 654.893 228.105 651.78C227.58 648.435 227.16 644.85 226.515 641.13C225.902 637.236 224.688 633.461 222.915 629.94C221.97 628.106 220.756 626.423 219.315 624.945C218.639 624.17 217.819 623.533 216.9 623.07C215.939 622.654 214.932 622.352 213.9 622.17C209.704 621.563 205.461 621.347 201.225 621.525C197.1 621.525 193.125 621.795 189.33 621.825L169.155 622.005H155.55H151.86C151.429 622.022 150.997 621.997 150.57 621.93C150.998 621.872 151.429 621.842 151.86 621.84L155.55 621.72L169.14 621.42L189.3 621.075C193.095 621.075 197.07 620.79 201.21 620.73C205.501 620.54 209.8 620.755 214.05 621.375C215.157 621.557 216.236 621.88 217.26 622.335C217.8 622.57 218.305 622.878 218.76 623.25C219.165 623.61 219.57 623.97 219.945 624.375C221.437 625.904 222.691 627.649 223.665 629.55C225.465 633.142 226.69 636.994 227.295 640.965C227.925 644.73 228.315 648.315 228.795 651.645C229.204 654.73 229.851 657.78 230.73 660.765C231.604 663.174 232.789 665.459 234.255 667.56C235.359 669.163 236.562 670.696 237.855 672.15C238.92 673.335 239.79 674.22 240.405 674.805C241.02 675.39 241.29 675.69 241.275 675.705Z" fill="#263238"/>
<path d="M556.5 222.21C556.538 220.411 557.057 218.655 558.005 217.125C558.952 215.595 560.292 214.346 561.885 213.51C562.391 213.216 562.964 213.055 563.55 213.045C563.841 213.043 564.127 213.125 564.372 213.282C564.617 213.439 564.811 213.664 564.93 213.93C565.013 214.229 565.012 214.546 564.928 214.845C564.843 215.144 564.678 215.414 564.45 215.625C563.977 216.044 563.476 216.43 562.95 216.78C562.206 217.398 561.643 218.204 561.318 219.114C560.993 220.025 560.92 221.006 561.105 221.955" fill="#B78876"/>
<path d="M528.21 157.875C521.35 158.393 514.974 161.606 510.477 166.812C505.98 172.018 503.726 178.792 504.21 185.655C505.575 205.905 505.155 233.415 495.48 250.155C478.74 279.135 453.63 284.28 455.55 342.225C457.47 400.17 460.05 406.305 448.47 421.275C436.89 436.245 411.78 428.505 400.83 462.63C389.88 496.755 397.605 667.365 380.22 685.395C380.22 685.395 366.06 698.895 351.255 697.62H434.445C441.523 697.71 448.353 695.016 453.465 690.12C455.574 688.1 457.248 685.67 458.383 682.98C459.518 680.289 460.09 677.395 460.065 674.475C460.065 662.73 463.92 496.785 470.37 482.61C476.82 468.435 510.285 453.99 515.37 421.305C520.455 388.62 518.7 335.73 518.655 326.22C518.655 317.22 520.41 299.55 537.72 278.955C564 247.83 560.415 213.81 561 202.215C561.585 190.62 556.5 155.715 556.5 155.715L528.21 157.875Z" fill="#EBEBEB"/>
<path d="M506.535 181.32C506.939 179.846 507.757 178.518 508.891 177.493C510.026 176.468 511.43 175.789 512.938 175.537C514.446 175.285 515.995 175.469 517.401 176.069C518.808 176.668 520.013 177.657 520.875 178.92C523.35 182.52 522.78 187.92 526.11 190.77C528.225 192.585 531.285 192.705 534.075 192.66C542.859 192.483 551.6 191.397 560.16 189.42L558.24 162C558.24 162 516.615 158.34 511.545 165.18C506.475 172.02 506.535 181.32 506.535 181.32Z" fill="#E0E0E0"/>
<path d="M504.555 195.375C504.555 189.195 505.95 183.75 507.405 177.75C509.16 170.49 514.215 165.195 520.35 164.25C528.105 163.14 535.755 174.33 535.755 174.33C535.755 174.33 565.905 169.95 580.245 168.885C579.195 165.15 571.665 155.52 566.25 154.35C560.805 153.392 555.265 153.095 549.75 153.465C539.85 153.735 529.605 154.08 520.665 158.34C511.725 162.6 502.515 168.84 504.69 191.85" fill="#F4F7FF"/>
<path d="M563.22 155.085C562.729 155.203 562.225 155.263 561.72 155.265L557.625 155.58C554.175 155.835 549.405 156.195 544.125 156.75C538.845 157.305 534.135 157.98 530.73 158.58L526.71 159.315C526.217 159.432 525.715 159.507 525.21 159.54C525.696 159.359 526.199 159.223 526.71 159.135C527.655 158.895 529.02 158.595 530.715 158.25C534.12 157.575 538.86 156.75 544.11 156.285C549.36 155.82 554.145 155.43 557.61 155.25L561.705 155.085C562.209 155.045 562.716 155.045 563.22 155.085Z" fill="#263238"/>
<path d="M469.815 484.41C469.815 484.635 457.05 486.705 441.315 489.045C425.58 491.385 412.665 493.11 412.635 492.9C412.605 492.69 425.385 490.62 441.135 488.265C456.885 485.91 469.785 484.2 469.815 484.41Z" fill="#263238"/>
<path d="M472.83 478.17C472.83 478.38 461.085 478.635 446.595 478.725C432.105 478.815 420.345 478.725 420.345 478.485C420.345 478.245 432.09 478.02 446.58 477.93C461.07 477.84 472.83 477.945 472.83 478.17Z" fill="#263238"/>
<path d="M354.99 697.815L356.49 697.62C357.899 697.435 359.292 697.15 360.66 696.765C365.903 695.217 370.833 692.76 375.225 689.505C376.757 688.42 378.229 687.253 379.635 686.01C381.115 684.588 382.253 682.85 382.965 680.925C384.621 676.559 385.827 672.036 386.565 667.425C388.414 656.118 389.675 644.723 390.345 633.285C392.1 607.875 392.82 577.545 393.87 543.885C394.425 527.04 394.98 509.385 396.39 491.07C396.75 486.57 397.185 481.905 397.785 477.27C398.305 472.579 399.188 467.935 400.425 463.38C401.175 461.115 402.045 458.88 402.9 456.645L404.505 453.42L405.315 451.8C405.615 451.29 405.96 450.78 406.29 450.3C408.807 446.103 412.137 442.452 416.085 439.56C420.054 436.746 424.37 434.457 428.925 432.75C433.398 431.158 437.733 429.202 441.885 426.9L443.385 425.97C443.85 425.625 444.285 425.235 444.735 424.875L446.085 423.78L447.255 422.49C447.63 422.07 448.035 421.65 448.41 421.215L449.445 419.805C450.165 418.89 450.795 417.915 451.425 416.94C452.673 415.016 453.724 412.971 454.56 410.835C455.329 408.693 455.891 406.483 456.24 404.235C456.852 399.762 457.107 395.248 457.005 390.735C457.005 386.235 456.84 381.735 456.69 377.385C456.34 368.575 456.005 359.96 455.685 351.54C455.565 347.325 455.31 343.185 455.355 339.06C455.355 337.005 455.355 334.965 455.355 332.94C455.355 330.915 455.565 328.905 455.655 326.94C455.76 322.935 456.465 319.035 456.93 315.18C457.596 311.417 458.498 307.7 459.63 304.05C461.773 297.1 464.976 290.523 469.125 284.55C473.03 279.136 477.226 273.939 481.695 268.98C485.69 264.44 489.393 259.65 492.78 254.64L495.03 251.055C495.78 249.885 496.35 248.64 496.995 247.455C498.112 245.098 499.079 242.674 499.89 240.195C502.407 231.906 503.918 223.345 504.39 214.695C504.87 207.585 504.855 202.05 504.825 198.315C504.825 196.455 504.825 195.03 504.75 194.04C504.675 193.05 504.75 192.54 504.75 192.54C504.75 192.54 504.915 194.505 505.005 198.255C505.095 202.005 505.14 207.555 504.705 214.665C504.272 223.312 502.791 231.875 500.295 240.165C499.491 242.668 498.529 245.118 497.415 247.5C496.77 248.685 496.2 249.96 495.435 251.13C494.67 252.3 493.935 253.515 493.2 254.745C489.813 259.784 486.111 264.604 482.115 269.175C477.631 274.138 473.42 279.341 469.5 284.76C465.406 290.688 462.244 297.209 460.125 304.095C459.024 307.723 458.147 311.415 457.5 315.15C457.035 318.975 456.36 322.845 456.255 326.835C456.165 328.815 455.985 330.81 455.955 332.835C455.925 334.86 455.955 336.885 455.955 338.94C455.955 343.02 456.18 347.19 456.3 351.39C456.63 359.81 456.975 368.43 457.335 377.25C457.485 381.645 457.65 386.1 457.65 390.615C457.767 395.178 457.512 399.743 456.885 404.265C456.537 406.565 455.964 408.826 455.175 411.015C454.323 413.205 453.247 415.301 451.965 417.27C451.335 418.26 450.69 419.25 449.97 420.18L448.92 421.59C448.53 422.055 448.11 422.475 447.72 422.925L446.505 424.26L445.125 425.4C444.66 425.76 444.21 426.165 443.715 426.51L442.215 427.47C438.031 429.798 433.661 431.774 429.15 433.38C424.652 435.062 420.392 437.321 416.475 440.1C412.609 442.927 409.345 446.496 406.875 450.6C406.56 451.095 406.215 451.59 405.915 452.1L405.12 453.69L403.62 456.87C402.78 459.09 401.91 461.295 401.175 463.515C399.952 468.027 399.074 472.625 398.55 477.27C397.95 481.89 397.515 486.48 397.14 491.055C395.73 509.31 395.16 526.98 394.59 543.81C393.495 577.47 392.73 607.815 390.9 633.24C390.204 644.721 388.902 656.157 387 667.5C386.24 672.156 384.998 676.72 383.295 681.12C382.572 683.099 381.396 684.882 379.86 686.325C378.425 687.567 376.923 688.729 375.36 689.805C370.929 693.056 365.95 695.485 360.66 696.975C359.284 697.348 357.879 697.609 356.46 697.755L354.99 697.815Z" fill="#263238"/>
<path d="M504.645 192.48L504.51 190.59C504.51 189.315 504.315 187.47 504.165 185.025C504.116 183.653 504.166 182.279 504.315 180.915C504.48 179.415 504.885 177.795 505.23 176.04C506.095 171.959 508.025 168.181 510.825 165.09C514.575 161.462 519.069 158.694 523.995 156.975C529.818 154.884 535.9 153.602 542.07 153.165C545.385 152.88 548.82 152.73 552.375 152.67C556.056 152.52 559.74 152.904 563.31 153.81C565.175 154.301 566.993 154.959 568.74 155.775C570.517 156.665 572.174 157.773 573.675 159.075C575.247 160.374 576.675 161.837 577.935 163.44C578.583 164.259 579.15 165.138 579.63 166.065C580.172 167.011 580.49 168.067 580.56 169.155V169.41H580.29C573.555 169.995 566.34 171.48 558.78 172.41L559.05 172.08C559.935 179.4 560.835 187.08 561.315 194.925C561.42 196.89 561.495 198.9 561.465 200.925C561.435 202.95 561.315 204.945 561.315 206.925C561.315 211.005 561.315 215.145 561 219.345C560.539 227.982 559.089 236.538 556.68 244.845C554.077 253.557 550.248 261.855 545.31 269.49C540.33 277.365 533.46 284.01 528.81 292.41C523.785 300.764 520.608 310.099 519.495 319.785C519.132 324.777 519.072 329.786 519.315 334.785C519.375 339.785 519.435 344.855 519.495 349.995C519.57 360.195 519.495 370.53 519.15 380.97C518.73 392.97 518.1 404.97 516.57 416.58C515.97 422.412 514.577 428.134 512.43 433.59C510.153 438.892 507.193 443.874 503.625 448.41C496.59 457.41 487.845 464.565 479.835 471.93L477 474.825C476.085 475.815 475.155 476.79 474.27 477.825L473.055 479.415C472.626 479.917 472.254 480.466 471.945 481.05L470.97 482.775C470.719 483.373 470.499 483.984 470.31 484.605C469.21 489.751 468.433 494.961 467.985 500.205C465.99 520.965 465.06 540.795 464.16 559.335C463.26 577.875 462.66 595.155 462.12 610.935C461.58 626.715 461.175 640.935 460.845 653.52C460.705 659.79 460.575 665.61 460.455 670.98C460.524 673.562 460.384 676.145 460.035 678.705C459.629 681.02 458.827 683.247 457.665 685.29C455.689 688.711 452.909 691.6 449.565 693.705C447.122 695.238 444.448 696.367 441.645 697.05C439.93 697.478 438.176 697.739 436.41 697.83C435.225 697.83 434.61 697.83 434.61 697.83H435.06C435.36 697.83 435.81 697.83 436.41 697.755C441.036 697.454 445.512 696 449.43 693.525C452.724 691.421 455.458 688.549 457.395 685.155C458.529 683.137 459.31 680.94 459.705 678.66C460.039 676.119 460.165 673.556 460.08 670.995C460.185 665.625 460.29 659.79 460.41 653.52C460.695 640.98 461.07 626.7 461.565 610.92C462.06 595.14 462.675 577.92 463.5 559.32C464.325 540.72 465.285 520.95 467.265 500.145C467.675 494.848 468.421 489.582 469.5 484.38C469.725 483.735 469.905 483.045 470.19 482.43L471.21 480.645C471.531 480.042 471.913 479.474 472.35 478.95L473.595 477.33C474.495 476.295 475.425 475.305 476.355 474.33L479.355 471.48C487.395 464.07 496.095 456.99 503.055 448.035C506.579 443.553 509.503 438.632 511.755 433.395C513.86 427.997 515.232 422.342 515.835 416.58C517.335 404.955 517.98 393.06 518.4 381.03C518.745 370.605 518.82 360.285 518.745 350.085C518.685 344.985 518.625 339.92 518.565 334.89C518.331 329.89 518.396 324.881 518.76 319.89C519.884 310.095 523.101 300.656 528.195 292.215C532.89 283.725 539.805 277.035 544.695 269.265C549.616 261.696 553.43 253.463 556.02 244.815C558.418 236.556 559.867 228.051 560.34 219.465C560.58 215.28 560.64 211.14 560.67 207.06C560.67 205.035 560.76 202.965 560.82 201.06C560.88 199.155 560.82 197.07 560.685 195.06C560.22 187.185 559.335 179.565 558.465 172.245V171.945H558.765C566.265 171.015 573.51 169.545 580.32 168.945L580.05 169.23C579.755 167.233 578.891 165.363 577.56 163.845C576.322 162.275 574.925 160.837 573.39 159.555C571.921 158.286 570.305 157.198 568.575 156.315C566.854 155.515 565.067 154.863 563.235 154.365C559.708 153.471 556.071 153.087 552.435 153.225C548.895 153.225 545.475 153.405 542.175 153.69C536.033 154.094 529.975 155.346 524.175 157.41C519.291 159.088 514.828 161.805 511.095 165.375C508.315 168.422 506.385 172.146 505.5 176.175C505.155 177.915 504.72 179.52 504.57 181.02C504.392 182.372 504.327 183.737 504.375 185.1C504.495 187.53 504.585 189.39 504.645 190.65C504.705 191.91 504.645 192.48 504.645 192.48Z" fill="#263238"/>
<path d="M580.275 169.155C580.004 169.251 579.722 169.312 579.435 169.335L576.975 169.695L567.975 170.88L538.2 174.51L535.815 174.795H535.575L535.455 174.6C534.01 172.33 532.331 170.219 530.445 168.3C528.73 166.533 526.552 165.285 524.16 164.7C521.988 164.264 519.74 164.399 517.635 165.09C515.799 165.689 514.133 166.718 512.775 168.09C510.824 170.142 509.295 172.558 508.275 175.2C507.93 176.13 507.675 176.865 507.525 177.375C507.454 177.63 507.369 177.88 507.27 178.125C507.261 177.856 507.296 177.587 507.375 177.33C507.543 176.574 507.754 175.828 508.005 175.095C508.914 172.36 510.386 169.846 512.325 167.715C513.725 166.251 515.452 165.141 517.365 164.475C519.578 163.714 521.953 163.549 524.25 163.995C526.785 164.577 529.098 165.879 530.91 167.745C532.846 169.688 534.566 171.836 536.04 174.15L535.665 173.985L538.05 173.7L567.855 170.295L576.855 169.35L579.315 169.125C579.635 169.095 579.957 169.105 580.275 169.155Z" fill="#263238"/>
<path d="M561 224.88C560.986 225.255 560.862 225.616 560.643 225.921C560.424 226.225 560.12 226.458 559.77 226.59L550.77 229.995C549.39 230.52 547.545 230.91 546.69 229.71C546.438 229.272 546.337 228.763 546.402 228.262C546.467 227.761 546.695 227.295 547.05 226.935C547.778 226.252 548.649 225.739 549.6 225.435C553.065 223.935 556.86 222.525 560.37 221.07C560.451 221.037 560.538 221.024 560.625 221.034C560.712 221.044 560.795 221.076 560.865 221.128C560.936 221.179 560.993 221.247 561.029 221.326C561.066 221.406 561.082 221.493 561.075 221.58L561 224.88Z" fill="#B78876"/>
<path d="M561.345 227.895C561.543 228.788 561.414 229.723 560.982 230.529C560.55 231.335 559.843 231.96 558.99 232.29L550.635 235.5C549.255 236.025 547.41 236.415 546.555 235.23C546.303 234.792 546.202 234.283 546.267 233.782C546.332 233.28 546.56 232.814 546.915 232.455C547.64 231.767 548.512 231.254 549.465 230.955C552.78 229.575 556.395 228.18 559.755 226.8C559.904 226.737 560.065 226.707 560.226 226.713C560.388 226.719 560.546 226.761 560.689 226.836C560.833 226.91 560.958 227.016 561.056 227.144C561.154 227.273 561.222 227.422 561.255 227.58L561.345 227.895Z" fill="#B78876"/>
<path d="M559.845 232.38C560.159 233.689 559.984 235.068 559.355 236.258C558.725 237.448 557.684 238.368 556.425 238.845L549.465 241.5C548.085 242.025 546.24 242.415 545.385 241.215C545.138 240.775 545.04 240.268 545.104 239.768C545.169 239.268 545.394 238.802 545.745 238.44C546.48 237.759 547.356 237.247 548.31 236.94C552.015 235.44 556.11 233.82 559.8 232.275L559.845 232.38Z" fill="#B78876"/>
<path d="M523.08 303.525C523.08 303.735 512.115 307.8 498.435 312.615C484.755 317.43 473.595 321.18 473.52 320.97C473.445 320.76 484.485 316.695 498.165 311.88C511.845 307.065 523.005 303.315 523.08 303.525Z" fill="#263238"/>
<path d="M517.155 309.525C515.911 310.59 514.576 311.544 513.165 312.375C510.645 314.04 507.165 316.26 503.13 318.615C499.095 320.97 495.51 323.01 492.84 324.42C491.438 325.264 489.962 325.977 488.43 326.55C489.745 325.581 491.129 324.709 492.57 323.94L502.74 317.94L512.88 311.94C514.242 311.029 515.671 310.222 517.155 309.525Z" fill="#263238"/>
<path d="M285.991 125.46C286.008 125.624 286.008 125.79 285.991 125.955C285.991 126.315 285.991 126.765 285.991 127.305C285.991 128.55 285.991 130.305 286.066 132.345C286.066 136.71 286.171 142.845 286.246 150.06L285.901 149.73H310.501C310.591 149.73 309.766 150.465 310.126 150.12V137.07C310.126 132.945 310.126 129.045 310.126 125.46L310.471 125.805L292.741 125.625L287.701 125.535H286.351H285.856C286.425 125.501 286.996 125.501 287.566 125.535L292.516 125.445L310.516 125.28H310.846V125.625C310.846 129.21 310.846 133.125 310.846 137.235V150C311.191 149.655 310.366 150.48 310.441 150.39H285.841H285.511V150C285.586 142.65 285.646 136.5 285.676 132C285.676 129.93 285.676 128.28 285.766 127.035C285.856 125.79 285.976 125.43 285.991 125.46Z" fill="#263238"/>
<path d="M315.736 120C316.231 120.405 311.011 127.59 304.081 136.02C302.581 137.79 301.231 139.47 299.926 141L299.161 141.87L298.336 141.135C292.576 135.945 288.676 132 289.006 131.61C289.336 131.22 293.821 134.505 299.791 139.455L298.216 139.59C299.446 138.015 300.826 136.305 302.281 134.535C309.211 126.075 315.226 119.55 315.736 120Z" fill="#0A2471"/>
<path d="M300.855 102H300.24H298.5C298.11 102 297.66 102 297.18 102L295.59 102.225L293.73 102.495L291.66 103.005C288.097 103.903 284.707 105.383 281.625 107.385C277.061 110.287 273.221 114.195 270.4 118.81C267.579 123.425 265.852 128.624 265.35 134.01C265.21 135.626 265.175 137.249 265.245 138.87C265.245 139.695 265.245 140.52 265.41 141.345C265.575 142.17 265.665 143.01 265.785 143.85C266.418 147.293 267.555 150.624 269.16 153.735C270.871 156.991 273.043 159.982 275.61 162.615C278.351 165.303 281.487 167.554 284.91 169.29C288.454 171.113 292.294 172.291 296.25 172.77C297.244 172.922 298.246 173.007 299.25 173.025C300.25 173.083 301.251 173.083 302.25 173.025C304.309 172.936 306.356 172.675 308.37 172.245C312.712 171.31 316.843 169.575 320.55 167.13H320.19L332.595 172.11L333.33 172.41L333.12 171.645C331.875 167.145 330.645 162.645 329.475 158.37V158.7C332.792 154.267 335.026 149.12 336 143.67C336.478 141.114 336.64 138.51 336.48 135.915C336.465 134.663 336.35 133.414 336.135 132.18C336.045 131.565 335.94 130.965 335.85 130.365C335.76 129.765 335.565 129.18 335.415 128.61C333.342 120.45 328.435 113.294 321.57 108.42C319.037 106.6 316.266 105.137 313.335 104.07L311.475 103.41L309.705 102.96L308.1 102.555L306.6 102.33C305.655 102.21 304.83 102.06 304.11 102.015H302.295H301.17H300.795C300.92 102.029 301.046 102.029 301.17 102.015L302.28 102.105L304.095 102.225C304.815 102.225 305.595 102.465 306.555 102.6C313.291 103.758 319.545 106.848 324.557 111.495C329.569 116.142 333.122 122.146 334.785 128.775C334.92 129.345 335.1 129.915 335.205 130.5C335.31 131.085 335.37 131.685 335.46 132.285C335.669 133.494 335.779 134.718 335.79 135.945C335.937 138.496 335.771 141.055 335.295 143.565C334.301 148.952 332.062 154.032 328.755 158.4L328.65 158.55V158.73L332.28 172.005L332.805 171.54L320.505 166.5L320.31 166.41L320.13 166.53C314.807 170.055 308.616 172.048 302.235 172.29C301.236 172.343 300.235 172.343 299.235 172.29C298.231 172.275 297.228 172.19 296.235 172.035C292.368 171.572 288.615 170.424 285.15 168.645C281.797 166.959 278.725 164.763 276.045 162.135C273.524 159.56 271.387 156.635 269.7 153.45C268.124 150.41 267.002 147.155 266.37 143.79C266.235 142.965 266.115 142.14 265.98 141.33C265.845 140.52 265.875 139.71 265.815 138.9C265.742 137.31 265.767 135.717 265.89 134.13C266.362 128.829 268.035 123.704 270.783 119.146C273.53 114.587 277.279 110.714 281.745 107.82C284.778 105.8 288.116 104.281 291.63 103.32L293.67 102.78L295.5 102.48L297.075 102.21L298.395 102.12L300.195 101.985C300.414 102.016 300.636 102.021 300.855 102Z" fill="#455A64"/>
</svg>
